<?xml version="1.0" encoding="UTF-8" standalone="no"?>
<!DOCTYPE svg PUBLIC "-//W3C//DTD SVG 1.1//EN" "http://www.w3.org/Graphics/SVG/1.1/DTD/svg11.dtd">
<svg version="1.1" xmlns="http://www.w3.org/2000/svg" xmlns:xl="http://www.w3.org/1999/xlink" xmlns:dc="http://purl.org/dc/elements/1.1/" viewBox="7.5 77 550 189.5" width="550" height="189.5">
  <defs>
    <marker orient="auto" overflow="visible" markerUnits="strokeWidth" id="SharpArrow_Marker" stroke-linejoin="miter" stroke-miterlimit="10" viewBox="-3 -3 7 6" markerWidth="7" markerHeight="6" color="#36218e">
      <g>
        <path d="M 2.3333333 0 L -1.4 -1.4 L 0 0 L 0 0 L -1.4 1.4 Z" fill="currentColor" stroke="currentColor" stroke-width="1"/>
      </g>
    </marker>
    <marker orient="auto" overflow="visible" markerUnits="strokeWidth" id="SharpArrow_Marker_2" stroke-linejoin="miter" stroke-miterlimit="10" viewBox="-3 -3 7 6" markerWidth="7" markerHeight="6" color="#99990f">
      <g>
        <path d="M 2.3333333 0 L -1.4 -1.4 L 0 0 L 0 0 L -1.4 1.4 Z" fill="currentColor" stroke="currentColor" stroke-width="1"/>
      </g>
    </marker>
  </defs>
  <g id="Canvas_1" stroke-opacity="1" stroke="none" stroke-dasharray="none" fill="none" fill-opacity="1">
    <title>Canvas 1</title>
    <g id="Canvas_1_Layer_1">
      <title>Layer 1</title>
      <g id="Graphic_3">
        <path d="M 29.7 229 L 126.3 229 C 137.7264 229 147 237.064 147 247 C 147 256.936 137.7264 265 126.3 265 L 29.7 265 C 18.2736 265 9 256.936 9 247 C 9 237.064 18.2736 229 29.7 229 Z" fill="#e1cc69"/>
        <path d="M 29.7 229 L 126.3 229 C 137.7264 229 147 237.064 147 247 C 147 256.936 137.7264 265 126.3 265 L 29.7 265 C 18.2736 265 9 256.936 9 247 C 9 237.064 18.2736 229 29.7 229 Z" stroke="#99990f" stroke-linecap="round" stroke-linejoin="round" stroke-width="3"/>
        <text transform="translate(14 231.65192)" fill="#4b3d2a">
          <tspan font-family="Helvetica Neue" font-weight="bold" font-size="12" fill="#4b3d2a" x="10.414" y="12" xml:space="preserve">Calculate an effect </tspan>
          <tspan font-family="Helvetica Neue" font-weight="bold" font-size="12" fill="#4b3d2a" x="14.332" y="27.348083" xml:space="preserve">size/Bayes factor</tspan>
        </text>
      </g>
      <g id="Graphic_11">
        <path d="M 415 78.5 L 547 78.5 C 551.97056 78.5 556 82.52944 556 87.5 L 556 104.5 C 556 109.47056 551.97056 113.5 547 113.5 L 415 113.5 C 410.02944 113.5 406 109.47056 406 104.5 L 406 87.5 C 406 82.52944 410.02944 78.5 415 78.5 Z" fill="#71cff2"/>
        <path d="M 415 78.5 L 547 78.5 C 551.97056 78.5 556 82.52944 556 87.5 L 556 104.5 C 556 109.47056 551.97056 113.5 547 113.5 L 415 113.5 C 410.02944 113.5 406 109.47056 406 104.5 L 406 87.5 C 406 82.52944 410.02944 78.5 415 78.5 Z" stroke="#36218e" stroke-linecap="butt" stroke-linejoin="round" stroke-width="3"/>
        <text transform="translate(411 80.65192)" fill="#36218e">
          <tspan font-family="Helvetica Neue" font-weight="bold" font-size="12" fill="#36218e" x="7.462" y="12" xml:space="preserve">Boxplots, histograms, </tspan>
          <tspan font-family="Helvetica Neue" font-weight="bold" font-size="12" fill="#36218e" x="10.798" y="27.348083" xml:space="preserve">descriptive statistics</tspan>
        </text>
      </g>
      <g id="Line_16">
        <line x1="375.5" y1="96" x2="394.3" y2="96" marker-end="url(#SharpArrow_Marker)" stroke="#36218e" stroke-linecap="butt" stroke-linejoin="round" stroke-width="3"/>
      </g>
      <g id="Graphic_37">
        <path d="M 29.7 148.625 L 126.3 148.625 C 137.7264 148.625 147 156.689 147 166.625 C 147 176.561 137.7264 184.625 126.3 184.625 L 29.7 184.625 C 18.2736 184.625 9 176.561 9 166.625 C 9 156.689 18.2736 148.625 29.7 148.625 Z" fill="#e1cc69"/>
        <path d="M 29.7 148.625 L 126.3 148.625 C 137.7264 148.625 147 156.689 147 166.625 C 147 176.561 137.7264 184.625 126.3 184.625 L 29.7 184.625 C 18.2736 184.625 9 176.561 9 166.625 C 9 156.689 18.2736 148.625 29.7 148.625 Z" stroke="#99990f" stroke-linecap="round" stroke-linejoin="round" stroke-width="3"/>
        <text transform="translate(14 158.95096)" fill="#4b3d2a">
          <tspan font-family="Helvetica Neue" font-weight="bold" font-size="12" fill="#4b3d2a" x="24.658" y="12" xml:space="preserve">Run the t-test</tspan>
        </text>
      </g>
      <g id="Graphic_40">
        <path d="M 209.88 148.625 L 366.5 148.625 C 371.47056 148.625 375.5 152.65444 375.5 157.625 L 375.5 174.625 C 375.5 179.59556 371.47056 183.625 366.5 183.625 L 209.88 183.625 C 204.90943 183.625 200.88 179.59556 200.88 174.625 L 200.88 157.625 C 200.88 152.65444 204.90943 148.625 209.88 148.625 Z" fill="#71cff2"/>
        <path d="M 209.88 148.625 L 366.5 148.625 C 371.47056 148.625 375.5 152.65444 375.5 157.625 L 375.5 174.625 C 375.5 179.59556 371.47056 183.625 366.5 183.625 L 209.88 183.625 C 204.90943 183.625 200.88 179.59556 200.88 174.625 L 200.88 157.625 C 200.88 152.65444 204.90943 148.625 209.88 148.625 Z" stroke="#36218e" stroke-linecap="butt" stroke-linejoin="round" stroke-width="3"/>
        <text transform="translate(205.88 150.77692)" fill="#36218e">
          <tspan font-family="Helvetica Neue" font-weight="bold" font-size="12" fill="#36218e" x="45.974005" y="12" xml:space="preserve">Robust tests</tspan>
          <tspan font-family="Helvetica Neue" font-weight="bold" font-size="12" fill="#36218e" x="53.864005" y="27.348083" xml:space="preserve">Bootstrap</tspan>
        </text>
      </g>
      <g id="Line_41">
        <line x1="147" y1="166.625" x2="189.1805" y2="166.23357" marker-end="url(#SharpArrow_Marker_2)" stroke="#99990f" stroke-linecap="butt" stroke-linejoin="round" stroke-width="3"/>
      </g>
      <g id="Line_59">
        <line x1="78" y1="184.625" x2="78" y2="217.3" marker-end="url(#SharpArrow_Marker_2)" stroke="#99990f" stroke-linecap="butt" stroke-linejoin="round" stroke-width="3"/>
      </g>
      <g id="Graphic_60">
        <path d="M 29.7 78.5 L 126.3 78.5 C 137.7264 78.5 147 86.564 147 96.5 C 147 106.436 137.7264 114.5 126.3 114.5 L 29.7 114.5 C 18.2736 114.5 9 106.436 9 96.5 C 9 86.564 18.2736 78.5 29.7 78.5 Z" fill="#e1cc69"/>
        <path d="M 29.7 78.5 L 126.3 78.5 C 137.7264 78.5 147 86.564 147 96.5 C 147 106.436 137.7264 114.5 126.3 114.5 L 29.7 114.5 C 18.2736 114.5 9 106.436 9 96.5 C 9 86.564 18.2736 78.5 29.7 78.5 Z" stroke="#99990f" stroke-linecap="round" stroke-linejoin="round" stroke-width="3"/>
        <text transform="translate(14 88.82596)" fill="#4b3d2a">
          <tspan font-family="Helvetica Neue" font-weight="bold" font-size="12" fill="#4b3d2a" x="28.006" y="12" xml:space="preserve">Explore data</tspan>
        </text>
      </g>
      <g id="Graphic_61">
        <path d="M 209.88 78.5 L 366.5 78.5 C 371.47056 78.5 375.5 82.52944 375.5 87.5 L 375.5 104.5 C 375.5 109.47056 371.47056 113.5 366.5 113.5 L 209.88 113.5 C 204.90943 113.5 200.88 109.47056 200.88 104.5 L 200.88 87.5 C 200.88 82.52944 204.90943 78.5 209.88 78.5 Z" fill="#71cff2"/>
        <path d="M 209.88 78.5 L 366.5 78.5 C 371.47056 78.5 375.5 82.52944 375.5 87.5 L 375.5 104.5 C 375.5 109.47056 371.47056 113.5 366.5 113.5 L 209.88 113.5 C 204.90943 113.5 200.88 109.47056 200.88 104.5 L 200.88 87.5 C 200.88 82.52944 204.90943 78.5 209.88 78.5 Z" stroke="#36218e" stroke-linecap="butt" stroke-linejoin="round" stroke-width="3"/>
        <text transform="translate(205.88 80.65192)" fill="#36218e">
          <tspan font-family="Helvetica Neue" font-weight="bold" font-size="12" fill="#36218e" x="29.540005" y="12" xml:space="preserve">Check for outliers, </tspan>
          <tspan font-family="Helvetica Neue" font-weight="bold" font-size="12" fill="#36218e" x="3.1100052" y="27.348083" xml:space="preserve">normality, homogeneity etc.</tspan>
        </text>
      </g>
      <g id="Line_62">
        <line x1="147" y1="96.5" x2="189.1805" y2="96.10857" marker-end="url(#SharpArrow_Marker_2)" stroke="#99990f" stroke-linecap="butt" stroke-linejoin="round" stroke-width="3"/>
      </g>
      <g id="Line_63">
        <line x1="78" y1="116" x2="78" y2="136.925" marker-end="url(#SharpArrow_Marker_2)" stroke="#99990f" stroke-linecap="butt" stroke-linejoin="round" stroke-width="3"/>
      </g>
      <g id="Line_64">
        <line x1="288.19" y1="113.5" x2="288.19" y2="136.925" marker-end="url(#SharpArrow_Marker)" stroke="#36218e" stroke-linecap="butt" stroke-linejoin="round" stroke-width="3"/>
      </g>
    </g>
  </g>
</svg>
