<?xml version="1.0" encoding="UTF-8" standalone="no"?>
<!DOCTYPE svg PUBLIC "-//W3C//DTD SVG 1.1//EN" "http://www.w3.org/Graphics/SVG/1.1/DTD/svg11.dtd">
<svg xmlns:xl="http://www.w3.org/1999/xlink" xmlns="http://www.w3.org/2000/svg" xmlns:dc="http://purl.org/dc/elements/1.1/" version="1.1" viewBox="-35 -107 1038 367" width="1038" height="367">
  <defs>
    <marker orient="auto" overflow="visible" markerUnits="strokeWidth" id="SharpArrow_Marker" stroke-linejoin="miter" stroke-miterlimit="10" viewBox="-3 -3 6 6" markerWidth="6" markerHeight="6" color="#dc5e76">
      <g>
        <path d="M 2 0 L -1.2 -1.2 L 0 0 L 0 0 L -1.2 1.2 Z" fill="currentColor" stroke="currentColor" stroke-width="1"/>
      </g>
    </marker>
    <marker orient="auto" overflow="visible" markerUnits="strokeWidth" id="SharpArrow_Marker_2" stroke-linejoin="miter" stroke-miterlimit="10" viewBox="-3 -3 6 6" markerWidth="6" markerHeight="6" color="#951256">
      <g>
        <path d="M 2 0 L -1.2 -1.2 L 0 0 L 0 0 L -1.2 1.2 Z" fill="currentColor" stroke="currentColor" stroke-width="1"/>
      </g>
    </marker>
  </defs>
  <g id="Canvas_1" stroke-opacity="1" stroke-dasharray="none" fill="none" fill-opacity="1" stroke="none">
    <title>Canvas 1</title>
    <g id="Canvas_1_Layer_1">
      <title>Layer 1</title>
      <g id="Graphic_11">
        <path d="M 260 -5.75 L 996.5 -5.75 C 998.7091 -5.75 1000.5 -3.959139 1000.5 -1.75 L 1000.5 182.5 C 1000.5 184.70914 998.7091 186.5 996.5 186.5 L 260 186.5 C 257.79086 186.5 256 184.70914 256 182.5 L 256 -1.75 C 256 -3.959139 257.79086 -5.75 260 -5.75 Z" stroke="#99990f" stroke-linecap="round" stroke-linejoin="round" stroke-width="4"/>
      </g>
      <g id="Graphic_10">
        <path d="M -29.5 -5.75 L 191 -5.75 C 193.20914 -5.75 195 -3.959139 195 -1.75 L 195 182.5 C 195 184.70914 193.20914 186.5 191 186.5 L -29.5 186.5 C -31.70914 186.5 -33.5 184.70914 -33.5 182.5 L -33.5 -1.75 C -33.5 -3.959139 -31.70914 -5.75 -29.5 -5.75 Z" stroke="#00ad99" stroke-linecap="round" stroke-linejoin="round" stroke-width="3"/>
      </g>
      <g id="Graphic_2">
        <text transform="translate(-10.5 22)" fill="#36218e">
          <tspan font-family="Monaco" font-size="36" fill="#36218e" x="0" y="36" xml:space="preserve">metallica &lt;- c(&quot;Lars&quot;,&quot;James&quot;,&quot;Jason&quot;, &quot;Kirk&quot;)</tspan>
          <tspan font-family="Monaco" font-size="36" fill="#36218e" x="0" y="84.00586" xml:space="preserve">metallica &lt;- metallica[metallica != &quot;Jason&quot;]</tspan>
          <tspan font-family="Monaco" font-size="36" fill="#36218e" x="0" y="132.01172" xml:space="preserve">metallica &lt;- c(metallica, &quot;Rob&quot;)</tspan>
        </text>
      </g>
      <g id="Graphic_6">
        <rect x="15.25" y="-26.783997" width="131" height="43.783997" fill="white"/>
        <text transform="translate(20.25 -21.783997)" fill="#00ad99">
          <tspan font-family="Helvetica Neue" font-size="28" fill="#00ad99" x="21.608" y="27" xml:space="preserve">object</tspan>
        </text>
      </g>
      <g id="Graphic_7">
        <rect x="543" y="-26.783997" width="170.5" height="43.783997" fill="white"/>
        <text transform="translate(548 -21.783997)" fill="#99990f">
          <tspan font-family="Helvetica Neue" font-size="28" fill="#99990f" x="7.646" y="27" xml:space="preserve">instructions</tspan>
        </text>
      </g>
      <g id="Graphic_8">
        <text transform="translate(69.9765 -101.98413)" fill="#dc5e76">
          <tspan font-family="Helvetica Neue" font-size="28" fill="#dc5e76" x="26.3875" y="27" xml:space="preserve">assignment operator</tspan>
        </text>
      </g>
      <g id="Line_9">
        <line x1="225.5" y1="-63.200134" x2="225.5" y2="-21.35" marker-end="url(#SharpArrow_Marker)" stroke="#dc5e76" stroke-linecap="round" stroke-linejoin="round" stroke-width="4"/>
      </g>
      <g id="Graphic_12">
        <path d="M 199 -5.75 L 252 -5.75 C 254.20914 -5.75 256 -3.959139 256 -1.75 L 256 182.5 C 256 184.70914 254.20914 186.5 252 186.5 L 199 186.5 C 196.79086 186.5 195 184.70914 195 182.5 L 195 -1.75 C 195 -3.959139 196.79086 -5.75 199 -5.75 Z" stroke="#dc5e76" stroke-linecap="round" stroke-linejoin="round" stroke-width="3"/>
      </g>
      <g id="Graphic_13">
        <text transform="translate(252.13062 220.4455)" fill="#951256">
          <tspan font-family="Helvetica Neue" font-size="28" fill="#951256" x="13.878442" y="27" xml:space="preserve">function</tspan>
        </text>
      </g>
      <g id="Line_14">
        <line x1="308.27297" y1="215.4455" x2="293.00074" y2="175.18342" marker-end="url(#SharpArrow_Marker_2)" stroke="#951256" stroke-linecap="round" stroke-linejoin="round" stroke-width="4"/>
      </g>
    </g>
  </g>
</svg>
