<?xml version="1.0" encoding="UTF-8" standalone="no"?>
<!DOCTYPE svg PUBLIC "-//W3C//DTD SVG 1.1//EN" "http://www.w3.org/Graphics/SVG/1.1/DTD/svg11.dtd">
<svg version="1.1" xmlns="http://www.w3.org/2000/svg" xmlns:xl="http://www.w3.org/1999/xlink" xmlns:dc="http://purl.org/dc/elements/1.1/" viewBox="54 167.04 926.1019 254.88" width="926.1019" height="254.88">
  <defs>
    <marker orient="auto" overflow="visible" markerUnits="strokeWidth" id="SharpArrow_Marker" stroke-linejoin="miter" stroke-miterlimit="10" viewBox="-3 -3 7 6" markerWidth="7" markerHeight="6" color="#df7300">
      <g>
        <path d="M 2.3333333 0 L -1.4 -1.4 L 0 0 L 0 0 L -1.4 1.4 Z" fill="currentColor" stroke="currentColor" stroke-width="1"/>
      </g>
    </marker>
    <marker orient="auto" overflow="visible" markerUnits="strokeWidth" id="SharpArrow_Marker_2" stroke-linejoin="miter" stroke-miterlimit="10" viewBox="-3 -3 7 6" markerWidth="7" markerHeight="6" color="#df7300">
      <g>
        <path d="M 2.3333333 0 L -1.4 -1.4 L 0 0 L 0 0 L -1.4 1.4 Z" fill="currentColor" stroke="currentColor" stroke-width="1"/>
      </g>
    </marker>
  </defs>
  <g id="Canvas_1" fill-opacity="1" stroke-opacity="1" stroke-dasharray="none" stroke="none" fill="none">
    <title>Canvas 1</title>
    <g id="Canvas_1_Layer_2">
      <title>Layer 2</title>
      <g id="Graphic_21">
        <path d="M 55 167.316 L 979.1019 167.316 C 979.6542 167.316 980.1019 167.76371 980.1019 168.316 L 980.1019 257.076 C 980.1019 257.62828 979.6542 258.076 979.1019 258.076 L 55 258.076 C 54.447714 258.076 54 257.62828 54 257.076 L 54 168.316 C 54 167.76371 54.447714 167.316 55 167.316 Z" fill="#edae00"/>
      </g>
      <g id="Graphic_20">
        <path d="M 55 295.92 L 979.1019 295.92 C 979.6542 295.92 980.1019 296.3677 980.1019 296.92 L 980.1019 420.92 C 980.1019 421.4723 979.6542 421.92 979.1019 421.92 L 55 421.92 C 54.447714 421.92 54 421.4723 54 420.92 L 54 296.92 C 54 296.3677 54.447714 295.92 55 295.92 Z" fill="#cccec0"/>
      </g>
    </g>
    <g id="Canvas_1_Layer_1">
      <title>Layer 1</title>
      <g id="Graphic_19">
        <path d="M 254.0973 193.5 L 364.3473 193.5 C 367.1087 193.5 369.3473 195.73857 369.3473 198.5 L 369.3473 242.04 C 369.3473 244.80142 367.1087 247.04 364.3473 247.04 L 254.0973 247.04 C 251.33588 247.04 249.0973 244.80142 249.0973 242.04 L 249.0973 198.5 C 249.0973 195.73857 251.33588 193.5 254.0973 193.5 Z" fill="#df7300"/>
        <text transform="translate(254.0973 198.5)" fill="white">
          <tspan font-family="Helvetica Neue" font-size="18" fill="white" x="45.116996" y="17" xml:space="preserve">92</tspan>
          <tspan font-family="Helvetica Neue" font-size="18" fill="white" x="28.286996" y="38.504" xml:space="preserve">(yc47t)</tspan>
        </text>
      </g>
      <g id="Graphic_18">
        <path d="M 386.0396 194 L 496.2896 194 C 499.051 194 501.2896 196.23857 501.2896 199 L 501.2896 242.54 C 501.2896 245.30142 499.051 247.54 496.2896 247.54 L 386.0396 247.54 C 383.27817 247.54 381.0396 245.30142 381.0396 242.54 L 381.0396 199 C 381.0396 196.23857 383.27817 194 386.0396 194 Z" fill="#df7300"/>
        <text transform="translate(386.0396 199)" fill="white">
          <tspan font-family="Helvetica Neue" font-size="18" fill="white" x="40.112996" y="17" xml:space="preserve">141</tspan>
          <tspan font-family="Helvetica Neue" font-size="18" fill="white" x="23.966996" y="38.504" xml:space="preserve">(wa86e)</tspan>
        </text>
      </g>
      <g id="Graphic_17">
        <path d="M 122.155 193 L 232.405 193 C 235.16642 193 237.405 195.23857 237.405 198 L 237.405 241.54 C 237.405 244.30142 235.16642 246.54 232.405 246.54 L 122.155 246.54 C 119.39358 246.54 117.155 244.30142 117.155 241.54 L 117.155 198 C 117.155 195.23857 119.39358 193 122.155 193 Z" fill="#df7300"/>
        <text transform="translate(122.155 198)" fill="white">
          <tspan font-family="Helvetica Neue" font-size="18" fill="white" x="50.120996" y="17" xml:space="preserve">1 </tspan>
          <tspan font-family="Helvetica Neue" font-size="18" fill="white" x="27.278996" y="38.504" xml:space="preserve">(tp52h) </tspan>
        </text>
      </g>
      <g id="Graphic_16">
        <path d="M 586.20336 194 L 696.45335 194 C 699.2148 194 701.45335 196.23857 701.45335 199 L 701.45335 242.54 C 701.45335 245.30142 699.2148 247.54 696.45335 247.54 L 586.20336 247.54 C 583.4419 247.54 581.20336 245.30142 581.20336 242.54 L 581.20336 199 C 581.20336 196.23857 583.4419 194 586.20336 194 Z" fill="#df7300"/>
        <text transform="translate(586.20336 199)" fill="white">
          <tspan font-family="Helvetica Neue" font-size="18" fill="white" x="45.116996" y="17" xml:space="preserve">12</tspan>
          <tspan font-family="Helvetica Neue" font-size="18" fill="white" x="23.795996" y="38.504" xml:space="preserve">(ew74n)</tspan>
        </text>
      </g>
      <g id="Graphic_15">
        <path d="M 122.155 329.24116 L 232.405 329.24116 C 235.16642 329.24116 237.405 331.47973 237.405 334.24116 L 237.405 398.98115 C 237.405 401.7426 235.16642 403.98115 232.405 403.98115 L 122.155 403.98115 C 119.39358 403.98115 117.155 401.7426 117.155 398.98115 L 117.155 334.24116 C 117.155 331.47973 119.39358 329.24116 122.155 329.24116 Z" fill="#666"/>
        <text transform="translate(129.155 334.24116)" fill="white">
          <tspan font-family="Helvetica Neue" font-size="14" fill="white" x="40.340996" y="13" xml:space="preserve">51</tspan>
          <tspan font-family="Helvetica Neue" font-size="14" fill="white" x="40.340996" y="30" xml:space="preserve">52</tspan>
          <tspan font-family="Helvetica Neue" font-size="14" fill="white" x="40.340996" y="47" xml:space="preserve">70</tspan>
          <tspan font-family="Helvetica Neue" font-size="14" fill="white" x="40.340996" y="64" xml:space="preserve">61</tspan>
        </text>
      </g>
      <g id="Graphic_14">
        <path d="M 254.0973 329.24116 L 364.3473 329.24116 C 367.1087 329.24116 369.3473 331.47973 369.3473 334.24116 L 369.3473 398.98115 C 369.3473 401.7426 367.1087 403.98115 364.3473 403.98115 L 254.0973 403.98115 C 251.33588 403.98115 249.0973 401.7426 249.0973 398.98115 L 249.0973 334.24116 C 249.0973 331.47973 251.33588 329.24116 254.0973 329.24116 Z" fill="#666"/>
        <text transform="translate(261.0973 334.24116)" fill="white">
          <tspan font-family="Helvetica Neue" font-size="14" fill="white" x="40.340996" y="13" xml:space="preserve">33</tspan>
          <tspan font-family="Helvetica Neue" font-size="14" fill="white" x="40.340996" y="30" xml:space="preserve">29</tspan>
          <tspan font-family="Helvetica Neue" font-size="14" fill="white" x="40.340996" y="47" xml:space="preserve">40</tspan>
          <tspan font-family="Helvetica Neue" font-size="14" fill="white" x="40.340996" y="64" xml:space="preserve">58</tspan>
        </text>
      </g>
      <g id="Graphic_13">
        <path d="M 386.3196 330.24116 L 496.5696 330.24116 C 499.331 330.24116 501.5696 332.47973 501.5696 335.24116 L 501.5696 398.98115 C 501.5696 401.7426 499.331 403.98115 496.5696 403.98115 L 386.3196 403.98115 C 383.55817 403.98115 381.3196 401.7426 381.3196 398.98115 L 381.3196 335.24116 C 381.3196 332.47973 383.55817 330.24116 386.3196 330.24116 Z" fill="#666"/>
        <text transform="translate(393.3196 335.24116)" fill="white">
          <tspan font-family="Helvetica Neue" font-size="14" fill="white" x="40.340996" y="13" xml:space="preserve">35</tspan>
          <tspan font-family="Helvetica Neue" font-size="14" fill="white" x="40.340996" y="30" xml:space="preserve">33</tspan>
          <tspan font-family="Helvetica Neue" font-size="14" fill="white" x="40.340996" y="47" xml:space="preserve">41</tspan>
          <tspan font-family="Helvetica Neue" font-size="14" fill="white" x="40.340996" y="64" xml:space="preserve">37</tspan>
        </text>
      </g>
      <g id="Graphic_12">
        <path d="M 586.76336 330.24116 L 697.01335 330.24116 C 699.7748 330.24116 702.01335 332.47973 702.01335 335.24116 L 702.01335 398.98115 C 702.01335 401.7426 699.7748 403.98115 697.01335 403.98115 L 586.76336 403.98115 C 584.00194 403.98115 581.76336 401.7426 581.76336 398.98115 L 581.76336 335.24116 C 581.76336 332.47973 584.00194 330.24116 586.76336 330.24116 Z" fill="#666"/>
        <text transform="translate(593.76336 335.24116)" fill="white">
          <tspan font-family="Helvetica Neue" font-size="14" fill="white" x="40.340996" y="13" xml:space="preserve">46</tspan>
          <tspan font-family="Helvetica Neue" font-size="14" fill="white" x="40.340996" y="30" xml:space="preserve">54</tspan>
          <tspan font-family="Helvetica Neue" font-size="14" fill="white" x="40.340996" y="47" xml:space="preserve">52</tspan>
          <tspan font-family="Helvetica Neue" font-size="14" fill="white" x="40.340996" y="64" xml:space="preserve">45</tspan>
        </text>
      </g>
      <g id="Graphic_40">
        <path d="M 55 257.8 L 519.56 257.8 C 520.1123 257.8 520.56 258.2477 520.56 258.8 L 520.56 294.92 C 520.56 295.47228 520.1123 295.92 519.56 295.92 L 55 295.92 C 54.447714 295.92 54 295.47228 54 294.92 L 54 258.8 C 54 258.2477 54.447714 257.8 55 257.8 Z" fill="#00ad99"/>
      </g>
      <g id="Graphic_41">
        <path d="M 514.5419 258.076 L 979.1019 258.076 C 979.6542 258.076 980.1019 258.5237 980.1019 259.076 L 980.1019 295.196 C 980.1019 295.74828 979.6542 296.196 979.1019 296.196 L 514.5419 296.196 C 513.9896 296.196 513.5419 295.74828 513.5419 295.196 L 513.5419 259.076 C 513.5419 258.5237 513.9896 258.076 514.5419 258.076 Z" fill="#e1cc69"/>
      </g>
      <g id="Graphic_42">
        <text transform="translate(518.5419 262.248)" fill="black">
          <tspan font-family="Helvetica Neue" font-size="24" fill="black" x="0" y="23" xml:space="preserve">Wait list</tspan>
        </text>
      </g>
      <g id="Line_11">
        <line x1="177.28" y1="246.54" x2="177.28" y2="317.54116" marker-end="url(#SharpArrow_Marker)" stroke="#df7300" stroke-linecap="round" stroke-linejoin="round" stroke-width="3"/>
      </g>
      <g id="Line_10">
        <line x1="309.2223" y1="247.04" x2="309.2223" y2="317.54116" marker-end="url(#SharpArrow_Marker)" stroke="#df7300" stroke-linecap="round" stroke-linejoin="round" stroke-width="3"/>
      </g>
      <g id="Line_9">
        <line x1="441.1646" y1="247.54" x2="441.405" y2="318.54122" marker-end="url(#SharpArrow_Marker)" stroke="#df7300" stroke-linecap="round" stroke-linejoin="round" stroke-width="3"/>
      </g>
      <g id="Line_8">
        <line x1="641.32835" y1="247.54" x2="641.8091" y2="318.54142" marker-end="url(#SharpArrow_Marker)" stroke="#df7300" stroke-linecap="round" stroke-linejoin="round" stroke-width="3"/>
      </g>
      <g id="Graphic_7">
        <text transform="translate(61.64 169.04)" fill="white">
          <tspan font-family="Helvetica Neue" font-size="24" fill="white" x="0" y="23" xml:space="preserve">Level</tspan>
        </text>
      </g>
      <g id="Graphic_6">
        <text transform="translate(76.64 210.04)" fill="white">
          <tspan font-family="Helvetica Neue" font-size="24" fill="white" x="0" y="23" xml:space="preserve">2</tspan>
        </text>
      </g>
      <g id="Graphic_5">
        <text transform="translate(76.64 336.13115)" fill="#666">
          <tspan font-family="Helvetica Neue" font-size="24" fill="#666" x="0" y="23" xml:space="preserve">1</tspan>
        </text>
      </g>
      <g id="Graphic_4">
        <text transform="translate(533.2465 210.04)" fill="white">
          <tspan font-family="Helvetica Neue" font-weight="bold" font-size="18" fill="white" x="0" y="18" xml:space="preserve">...</tspan>
        </text>
      </g>
      <g id="Graphic_3">
        <text transform="translate(533.2465 355.61115)" fill="#666">
          <tspan font-family="Helvetica Neue" font-weight="bold" font-size="18" fill="#666" x="0" y="18" xml:space="preserve">...</tspan>
        </text>
      </g>
      <g id="Graphic_34">
        <path d="M 718.9857 194 L 829.2357 194 C 831.9971 194 834.2357 196.23857 834.2357 199 L 834.2357 242.54 C 834.2357 245.30142 831.9971 247.54 829.2357 247.54 L 718.9857 247.54 C 716.2242 247.54 713.9857 245.30142 713.9857 242.54 L 713.9857 199 C 713.9857 196.23857 716.2242 194 718.9857 194 Z" fill="#df7300"/>
        <text transform="translate(718.9857 199)" fill="white">
          <tspan font-family="Helvetica Neue" font-size="18" fill="white" x="45.116996" y="17" xml:space="preserve">62</tspan>
          <tspan font-family="Helvetica Neue" font-size="18" fill="white" x="21.455996" y="38.504" xml:space="preserve">(sw83m)</tspan>
        </text>
      </g>
      <g id="Graphic_33">
        <path d="M 851.768 194 L 962.018 194 C 964.7794 194 967.018 196.23857 967.018 199 L 967.018 242.54 C 967.018 245.30142 964.7794 247.54 962.018 247.54 L 851.768 247.54 C 849.0065 247.54 846.768 245.30142 846.768 242.54 L 846.768 199 C 846.768 196.23857 849.0065 194 851.768 194 Z" fill="#df7300"/>
        <text transform="translate(851.768 199)" fill="white">
          <tspan font-family="Helvetica Neue" font-size="18" fill="white" x="40.112996" y="17" xml:space="preserve">140</tspan>
          <tspan font-family="Helvetica Neue" font-size="18" fill="white" x="30.122996" y="38.504" xml:space="preserve">(pr89j)</tspan>
        </text>
      </g>
      <g id="Graphic_32">
        <path d="M 718.9857 330.24116 L 829.2357 330.24116 C 831.9971 330.24116 834.2357 332.47973 834.2357 335.24116 L 834.2357 398.98115 C 834.2357 401.7426 831.9971 403.98115 829.2357 403.98115 L 718.9857 403.98115 C 716.2242 403.98115 713.9857 401.7426 713.9857 398.98115 L 713.9857 335.24116 C 713.9857 332.47973 716.2242 330.24116 718.9857 330.24116 Z" fill="#666"/>
        <text transform="translate(725.9857 335.24116)" fill="white">
          <tspan font-family="Helvetica Neue" font-size="14" fill="white" x="40.340996" y="13" xml:space="preserve">42</tspan>
          <tspan font-family="Helvetica Neue" font-size="14" fill="white" x="40.340996" y="30" xml:space="preserve">34</tspan>
          <tspan font-family="Helvetica Neue" font-size="14" fill="white" x="40.340996" y="47" xml:space="preserve">40</tspan>
          <tspan font-family="Helvetica Neue" font-size="14" fill="white" x="40.340996" y="64" xml:space="preserve">36</tspan>
        </text>
      </g>
      <g id="Graphic_31">
        <path d="M 852.328 330.24116 L 962.578 330.24116 C 965.3394 330.24116 967.578 332.47973 967.578 335.24116 L 967.578 398.98115 C 967.578 401.7426 965.3394 403.98115 962.578 403.98115 L 852.328 403.98115 C 849.5665 403.98115 847.328 401.7426 847.328 398.98115 L 847.328 335.24116 C 847.328 332.47973 849.5665 330.24116 852.328 330.24116 Z" fill="#666"/>
        <text transform="translate(859.328 335.24116)" fill="white">
          <tspan font-family="Helvetica Neue" font-size="14" fill="white" x="40.340996" y="13" xml:space="preserve">49</tspan>
          <tspan font-family="Helvetica Neue" font-size="14" fill="white" x="40.340996" y="30" xml:space="preserve">47</tspan>
          <tspan font-family="Helvetica Neue" font-size="14" fill="white" x="40.340996" y="47" xml:space="preserve">48</tspan>
          <tspan font-family="Helvetica Neue" font-size="14" fill="white" x="40.340996" y="64" xml:space="preserve">51</tspan>
        </text>
      </g>
      <g id="Line_30">
        <line x1="774.1107" y1="247.54" x2="774.1107" y2="318.54116" marker-end="url(#SharpArrow_Marker_2)" stroke="#df7300" stroke-linecap="round" stroke-linejoin="round" stroke-width="3"/>
      </g>
      <g id="Line_29">
        <line x1="906.893" y1="247.54" x2="907.3737" y2="318.54142" marker-end="url(#SharpArrow_Marker_2)" stroke="#df7300" stroke-linecap="round" stroke-linejoin="round" stroke-width="3"/>
      </g>
      <g id="Graphic_43">
        <text transform="translate(59 262.8)" fill="white">
          <tspan font-family="Helvetica Neue" font-size="24" fill="white" x="5258016e-19" y="23" xml:space="preserve">Exercise</tspan>
        </text>
      </g>
    </g>
  </g>
</svg>
