<?xml version="1.0" encoding="UTF-8" standalone="no"?>
<!DOCTYPE svg PUBLIC "-//W3C//DTD SVG 1.1//EN" "http://www.w3.org/Graphics/SVG/1.1/DTD/svg11.dtd">
<svg version="1.1" xmlns="http://www.w3.org/2000/svg" xmlns:xl="http://www.w3.org/1999/xlink" xmlns:dc="http://purl.org/dc/elements/1.1/" viewBox="54 167.04 635.04 216.76" width="635.04" height="216.76">
  <defs>
    <marker orient="auto" overflow="visible" markerUnits="strokeWidth" id="SharpArrow_Marker" stroke-linejoin="miter" stroke-miterlimit="10" viewBox="-3 -3 7 6" markerWidth="7" markerHeight="6" color="#df7300">
      <g>
        <path d="M 2.3333333 0 L -1.4 -1.4 L 0 0 L 0 0 L -1.4 1.4 Z" fill="currentColor" stroke="currentColor" stroke-width="1"/>
      </g>
    </marker>
  </defs>
  <g id="Canvas_1" fill-opacity="1" stroke-opacity="1" stroke-dasharray="none" stroke="none" fill="none">
    <title>Canvas 1</title>
    <g id="Canvas_1_Layer_2">
      <title>Layer 2</title>
      <g id="Graphic_21">
        <path d="M 55 167.04 L 688.04 167.04 C 688.5923 167.04 689.04 167.48771 689.04 168.04 L 689.04 256.8 C 689.04 257.35228 688.5923 257.8 688.04 257.8 L 55 257.8 C 54.447714 257.8 54 257.35228 54 256.8 L 54 168.04 C 54 167.48771 54.447714 167.04 55 167.04 Z" fill="#edae00"/>
      </g>
      <g id="Graphic_20">
        <path d="M 55 257.8 L 688.04 257.8 C 688.5923 257.8 689.04 258.2477 689.04 258.8 L 689.04 382.8 C 689.04 383.35228 688.5923 383.8 688.04 383.8 L 55 383.8 C 54.447714 383.8 54 383.35228 54 382.8 L 54 258.8 C 54 258.2477 54.447714 257.8 55 257.8 Z" fill="#cccec0"/>
      </g>
    </g>
    <g id="Canvas_1_Layer_1">
      <title>Layer 1</title>
      <g id="Graphic_19">
        <path d="M 266.36 193 L 376.61 193 C 379.3714 193 381.61 195.23857 381.61 198 L 381.61 241.54 C 381.61 244.30142 379.3714 246.54 376.61 246.54 L 266.36 246.54 C 263.59857 246.54 261.36 244.30142 261.36 241.54 L 261.36 198 C 261.36 195.23857 263.59857 193 266.36 193 Z" fill="#df7300"/>
        <text transform="translate(266.36 198)" fill="white">
          <tspan font-family="Helvetica Neue" font-size="18" fill="white" x="30.950996" y="17" xml:space="preserve">Dog 2</tspan>
          <tspan font-family="Helvetica Neue" font-size="18" fill="white" x="32.795996" y="38.504" xml:space="preserve">(Vlad)</tspan>
        </text>
      </g>
      <g id="Graphic_18">
        <path d="M 421.88 193.5 L 532.13 193.5 C 534.8914 193.5 537.13 195.73857 537.13 198.5 L 537.13 242.04 C 537.13 244.80142 534.8914 247.04 532.13 247.04 L 421.88 247.04 C 419.11857 247.04 416.88 244.80142 416.88 242.04 L 416.88 198.5 C 416.88 195.73857 419.11857 193.5 421.88 193.5 Z" fill="#df7300"/>
        <text transform="translate(421.88 198.5)" fill="white">
          <tspan font-family="Helvetica Neue" font-size="18" fill="white" x="20.942996" y="17" xml:space="preserve">Dog 166</tspan>
          <tspan font-family="Helvetica Neue" font-size="18" fill="white" x="21.455996" y="38.504" xml:space="preserve">(Tekapo)</tspan>
        </text>
      </g>
      <g id="Graphic_17">
        <path d="M 122.155 193 L 232.405 193 C 235.16642 193 237.405 195.23857 237.405 198 L 237.405 241.54 C 237.405 244.30142 235.16642 246.54 232.405 246.54 L 122.155 246.54 C 119.39358 246.54 117.155 244.30142 117.155 241.54 L 117.155 198 C 117.155 195.23857 119.39358 193 122.155 193 Z" fill="#df7300"/>
        <text transform="translate(122.155 198)" fill="white">
          <tspan font-family="Helvetica Neue" font-size="18" fill="white" x="30.950996" y="17" xml:space="preserve">Dog 1 </tspan>
          <tspan font-family="Helvetica Neue" font-size="18" fill="white" x="22.292996" y="38.504" xml:space="preserve">(Sophie) </tspan>
        </text>
      </g>
      <g id="Graphic_16">
        <path d="M 561 193.5 L 671.25 193.5 C 674.0114 193.5 676.25 195.73857 676.25 198.5 L 676.25 242.04 C 676.25 244.80142 674.0114 247.04 671.25 247.04 L 561 247.04 C 558.23856 247.04 556 244.80142 556 242.04 L 556 198.5 C 556 195.73857 558.23856 193.5 561 193.5 Z" fill="#df7300"/>
        <text transform="translate(561 198.5)" fill="white">
          <tspan font-family="Helvetica Neue" font-size="18" fill="white" x="20.942996" y="17" xml:space="preserve">Dog 167</tspan>
          <tspan font-family="Helvetica Neue" font-size="18" fill="white" x="6.776996" y="38.504" xml:space="preserve">(Chuckanut)</tspan>
        </text>
      </g>
      <g id="Graphic_15">
        <path d="M 122.155 285.8 L 232.405 285.8 C 235.16642 285.8 237.405 288.03857 237.405 290.8 L 237.405 355.54 C 237.405 358.3014 235.16642 360.54 232.405 360.54 L 122.155 360.54 C 119.39358 360.54 117.155 358.3014 117.155 355.54 L 117.155 290.8 C 117.155 288.03857 119.39358 285.8 122.155 285.8 Z" fill="#666"/>
        <text transform="translate(129.155 290.8)" fill="white">
          <tspan font-family="Helvetica Neue" font-size="14" fill="white" x="40.340996" y="13" xml:space="preserve">29</tspan>
          <tspan font-family="Helvetica Neue" font-size="14" fill="white" x="40.340996" y="30" xml:space="preserve">40</tspan>
          <tspan font-family="Helvetica Neue" font-size="14" fill="white" x="40.340996" y="47" xml:space="preserve">49</tspan>
          <tspan font-family="Helvetica Neue" font-size="14" fill="white" x="40.340996" y="64" xml:space="preserve">58</tspan>
        </text>
      </g>
      <g id="Graphic_14">
        <path d="M 266.36 285.3 L 376.61 285.3 C 379.3714 285.3 381.61 287.53857 381.61 290.3 L 381.61 355.04 C 381.61 357.8014 379.3714 360.04 376.61 360.04 L 266.36 360.04 C 263.59857 360.04 261.36 357.8014 261.36 355.04 L 261.36 290.3 C 261.36 287.53857 263.59857 285.3 266.36 285.3 Z" fill="#666"/>
        <text transform="translate(273.36 290.3)" fill="white">
          <tspan font-family="Helvetica Neue" font-size="14" fill="white" x="40.340996" y="13" xml:space="preserve">38</tspan>
          <tspan font-family="Helvetica Neue" font-size="14" fill="white" x="40.340996" y="30" xml:space="preserve">49</tspan>
          <tspan font-family="Helvetica Neue" font-size="14" fill="white" x="40.340996" y="47" xml:space="preserve">59</tspan>
          <tspan font-family="Helvetica Neue" font-size="14" fill="white" x="40.340996" y="64" xml:space="preserve">67</tspan>
        </text>
      </g>
      <g id="Graphic_13">
        <path d="M 431.24 286.3 L 522.77 286.3 C 525.5314 286.3 527.77 288.53857 527.77 291.3 L 527.77 355.04 C 527.77 357.8014 525.5314 360.04 522.77 360.04 L 431.24 360.04 C 428.47857 360.04 426.24 357.8014 426.24 355.04 L 426.24 291.3 C 426.24 288.53857 428.47857 286.3 431.24 286.3 Z" fill="#666"/>
        <text transform="translate(438.24 291.3)" fill="white">
          <tspan font-family="Helvetica Neue" font-size="14" fill="white" x="30.980996" y="13" xml:space="preserve">31</tspan>
          <tspan font-family="Helvetica Neue" font-size="14" fill="white" x="30.980996" y="30" xml:space="preserve">41</tspan>
          <tspan font-family="Helvetica Neue" font-size="14" fill="white" x="30.980996" y="47" xml:space="preserve">48</tspan>
          <tspan font-family="Helvetica Neue" font-size="14" fill="white" x="30.980996" y="64" xml:space="preserve">53</tspan>
        </text>
      </g>
      <g id="Graphic_12">
        <path d="M 561.56 286.3 L 671.81 286.3 C 674.5714 286.3 676.81 288.53857 676.81 291.3 L 676.81 355.04 C 676.81 357.8014 674.5714 360.04 671.81 360.04 L 561.56 360.04 C 558.79856 360.04 556.56 357.8014 556.56 355.04 L 556.56 291.3 C 556.56 288.53857 558.79856 286.3 561.56 286.3 Z" fill="#666"/>
        <text transform="translate(568.56 291.3)" fill="white">
          <tspan font-family="Helvetica Neue" font-size="14" fill="white" x="40.340996" y="13" xml:space="preserve">31</tspan>
          <tspan font-family="Helvetica Neue" font-size="14" fill="white" x="40.340996" y="30" xml:space="preserve">40</tspan>
          <tspan font-family="Helvetica Neue" font-size="14" fill="white" x="40.340996" y="47" xml:space="preserve">48</tspan>
          <tspan font-family="Helvetica Neue" font-size="14" fill="white" x="40.340996" y="64" xml:space="preserve">50</tspan>
        </text>
      </g>
      <g id="Line_11">
        <line x1="177.28" y1="246.54" x2="177.28" y2="274.1" marker-end="url(#SharpArrow_Marker)" stroke="#df7300" stroke-linecap="round" stroke-linejoin="round" stroke-width="3"/>
      </g>
      <g id="Line_10">
        <line x1="321.485" y1="246.54" x2="321.485" y2="273.6" marker-end="url(#SharpArrow_Marker)" stroke="#df7300" stroke-linecap="round" stroke-linejoin="round" stroke-width="3"/>
      </g>
      <g id="Line_9">
        <line x1="477.005" y1="247.04" x2="477.005" y2="274.6" marker-end="url(#SharpArrow_Marker)" stroke="#df7300" stroke-linecap="round" stroke-linejoin="round" stroke-width="3"/>
      </g>
      <g id="Line_8">
        <line x1="616.125" y1="247.04" x2="616.5181" y2="274.60118" marker-end="url(#SharpArrow_Marker)" stroke="#df7300" stroke-linecap="round" stroke-linejoin="round" stroke-width="3"/>
      </g>
      <g id="Graphic_7">
        <text transform="translate(61.64 169.04)" fill="white">
          <tspan font-family="Helvetica Neue" font-size="24" fill="white" x="0" y="23" xml:space="preserve">Level</tspan>
        </text>
      </g>
      <g id="Graphic_6">
        <text transform="translate(76.64 210.04)" fill="white">
          <tspan font-family="Helvetica Neue" font-size="24" fill="white" x="0" y="23" xml:space="preserve">2</tspan>
        </text>
      </g>
      <g id="Graphic_5">
        <text transform="translate(76.64 292.69)" fill="#666">
          <tspan font-family="Helvetica Neue" font-size="24" fill="#666" x="0" y="23" xml:space="preserve">1</tspan>
        </text>
      </g>
      <g id="Graphic_4">
        <text transform="translate(391.245 213.04)" fill="white">
          <tspan font-family="Helvetica Neue" font-weight="bold" font-size="18" fill="white" x="0" y="18" xml:space="preserve">...</tspan>
        </text>
      </g>
      <g id="Graphic_3">
        <text transform="translate(391.245 295.69)" fill="#666">
          <tspan font-family="Helvetica Neue" font-weight="bold" font-size="18" fill="#666" x="0" y="18" xml:space="preserve">...</tspan>
        </text>
      </g>
    </g>
  </g>
</svg>
