<?xml version="1.0" encoding="UTF-8" standalone="no"?>
<!DOCTYPE svg PUBLIC "-//W3C//DTD SVG 1.1//EN" "http://www.w3.org/Graphics/SVG/1.1/DTD/svg11.dtd">
<svg version="1.1" xmlns:xl="http://www.w3.org/1999/xlink" xmlns="http://www.w3.org/2000/svg" xmlns:dc="http://purl.org/dc/elements/1.1/" viewBox="8.5 37.5 535 229.5" width="535" height="229.5">
  <defs>
    <marker orient="auto" overflow="visible" markerUnits="strokeWidth" id="SharpArrow_Marker" stroke-linejoin="miter" stroke-miterlimit="10" viewBox="-3 -3 7 6" markerWidth="7" markerHeight="6" color="#99990f">
      <g>
        <path d="M 2.3333333 0 L -1.4 -1.4 L 0 0 L 0 0 L -1.4 1.4 Z" fill="currentColor" stroke="currentColor" stroke-width="1"/>
      </g>
    </marker>
    <marker orient="auto" overflow="visible" markerUnits="strokeWidth" id="SharpArrow_Marker_2" stroke-linejoin="miter" stroke-miterlimit="10" viewBox="-3 -3 7 6" markerWidth="7" markerHeight="6" color="#36218e">
      <g>
        <path d="M 2.3333333 0 L -1.4 -1.4 L 0 0 L 0 0 L -1.4 1.4 Z" fill="currentColor" stroke="currentColor" stroke-width="1"/>
      </g>
    </marker>
  </defs>
  <g id="Canvas_1" stroke-dasharray="none" fill="none" stroke="none" stroke-opacity="1" fill-opacity="1">
    <title>Canvas 1</title>
    <g id="Canvas_1_Layer_1">
      <title>Layer 1</title>
      <g id="Graphic_3">
        <path d="M 30.7 72.5 L 127.3 72.5 C 138.7264 72.5 148 80.564 148 90.5 C 148 100.436 138.7264 108.5 127.3 108.5 L 30.7 108.5 C 19.2736 108.5 10 100.436 10 90.5 C 10 80.564 19.2736 72.5 30.7 72.5 Z" fill="#e1cc69"/>
        <path d="M 30.7 72.5 L 127.3 72.5 C 138.7264 72.5 148 80.564 148 90.5 C 148 100.436 138.7264 108.5 127.3 108.5 L 30.7 108.5 C 19.2736 108.5 10 100.436 10 90.5 C 10 80.564 19.2736 72.5 30.7 72.5 Z" stroke="#99990f" stroke-linecap="round" stroke-linejoin="round" stroke-width="3"/>
        <text transform="translate(15 75.15192)" fill="#4b3d2a">
          <tspan font-family="Helvetica Neue" font-weight="bold" font-size="12" fill="#4b3d2a" x="5.116" y="12" xml:space="preserve">Check assumptions/</tspan>
          <tspan font-family="Helvetica Neue" font-weight="bold" font-size="12" fill="#4b3d2a" x="52.12" y="27.348083" xml:space="preserve">bias</tspan>
        </text>
      </g>
      <g id="Graphic_4">
        <path d="M 229.9 156.98 L 346.1 156.98 C 359.8448 156.98 371 166.62096 371 178.5 C 371 190.37904 359.8448 200.02 346.1 200.02 L 229.9 200.02 C 216.1552 200.02 205 190.37904 205 178.5 C 205 166.62096 216.1552 156.98 229.9 156.98 Z" fill="#e1cc69"/>
        <path d="M 229.9 156.98 L 346.1 156.98 C 359.8448 156.98 371 166.62096 371 178.5 C 371 190.37904 359.8448 200.02 346.1 200.02 L 229.9 200.02 C 216.1552 200.02 205 190.37904 205 178.5 C 205 166.62096 216.1552 156.98 229.9 156.98 Z" stroke="#99990f" stroke-linecap="round" stroke-linejoin="round" stroke-width="3"/>
        <text transform="translate(210 163.15192)" fill="#4b3d2a">
          <tspan font-family="Helvetica Neue" font-weight="bold" font-size="12" fill="#4b3d2a" x="17.46" y="12" xml:space="preserve">Assumptions met, no </tspan>
          <tspan font-family="Helvetica Neue" font-weight="bold" font-size="12" fill="#4b3d2a" x="2.46" y="27.348083" xml:space="preserve">outliers, interval/ratio data</tspan>
        </text>
      </g>
      <g id="Graphic_5">
        <path d="M 229.9 218.625 L 346.1 218.625 C 359.8448 218.625 371 228.313 371 240.25 C 371 252.187 359.8448 261.875 346.1 261.875 L 229.9 261.875 C 216.1552 261.875 205 252.187 205 240.25 C 205 228.313 216.1552 218.625 229.9 218.625 Z" fill="#e1cc69"/>
        <path d="M 229.9 218.625 L 346.1 218.625 C 359.8448 218.625 371 228.313 371 240.25 C 371 252.187 359.8448 261.875 346.1 261.875 L 229.9 261.875 C 216.1552 261.875 205 252.187 205 240.25 C 205 228.313 216.1552 218.625 229.9 218.625 Z" stroke="#99990f" stroke-linecap="round" stroke-linejoin="round" stroke-width="3"/>
        <text transform="translate(210 224.90192)" fill="#4b3d2a">
          <tspan font-family="Helvetica Neue" font-weight="bold" font-size="12" fill="#4b3d2a" x="15.348" y="12" xml:space="preserve">Assumptions not met, </tspan>
          <tspan font-family="Helvetica Neue" font-weight="bold" font-size="12" fill="#4b3d2a" x=".348" y="27.348083" xml:space="preserve">outliers and/or ordinal data</tspan>
        </text>
      </g>
      <g id="Graphic_11">
        <path d="M 426 63 L 533 63 C 537.97056 63 542 67.02944 542 72 L 542 109 C 542 113.97056 537.97056 118 533 118 L 426 118 C 421.02944 118 417 113.97056 417 109 L 417 72 C 417 67.02944 421.02944 63 426 63 Z" fill="#71cff2"/>
        <path d="M 426 63 L 533 63 C 537.97056 63 542 67.02944 542 72 L 542 109 C 542 113.97056 537.97056 118 533 118 L 426 118 C 421.02944 118 417 113.97056 417 109 L 417 72 C 417 67.02944 421.02944 63 426 63 Z" stroke="#36218e" stroke-linecap="butt" stroke-linejoin="round" stroke-width="3"/>
        <text transform="translate(422 75.15192)" fill="#36218e">
          <tspan font-family="Helvetica Neue" font-weight="bold" font-size="12" fill="#36218e" x="1.94" y="12" xml:space="preserve">Scatterplot, Q-Q/P-</tspan>
          <tspan font-family="Helvetica Neue" font-weight="bold" font-size="12" fill="#36218e" x="2.072" y="27.348083" xml:space="preserve">P plots, histograms</tspan>
        </text>
      </g>
      <g id="Graphic_12">
        <path d="M 426 215 L 533 215 C 537.97056 215 542 219.02944 542 224 L 542 256.5 C 542 261.47056 537.97056 265.5 533 265.5 L 426 265.5 C 421.02944 265.5 417 261.47056 417 256.5 L 417 224 C 417 219.02944 421.02944 215 426 215 Z" fill="#71cff2"/>
        <path d="M 426 215 L 533 215 C 537.97056 215 542 219.02944 542 224 L 542 256.5 C 542 261.47056 537.97056 265.5 533 265.5 L 426 265.5 C 421.02944 265.5 417 261.47056 417 256.5 L 417 224 C 417 219.02944 421.02944 215 426 215 Z" stroke="#36218e" stroke-linecap="butt" stroke-linejoin="round" stroke-width="3"/>
        <text transform="translate(422 217.22787)" fill="#36218e">
          <tspan font-family="Helvetica Neue" font-weight="bold" font-size="12" fill="#36218e" x="19.502" y="12" xml:space="preserve">Bootstrap CI, </tspan>
          <tspan font-family="Helvetica Neue" font-weight="bold" font-size="12" fill="#36218e" x="22.61" y="27.348083" xml:space="preserve">Spearman </tspan>
          <tspan font-family="Helvetica Neue" font-style="italic" font-weight="bold" font-size="12" fill="#36218e" y="27.348083" xml:space="preserve">r</tspan>
          <tspan font-family="Helvetica Neue" font-weight="bold" font-size="12" fill="#36218e" y="27.348083" xml:space="preserve">, </tspan>
          <tspan font-family="Helvetica Neue" font-weight="bold" font-size="12" fill="#36218e" x="20.288" y="42.696167" xml:space="preserve">Kendall&apos;s tau</tspan>
        </text>
      </g>
      <g id="Graphic_13">
        <path d="M 426 161 L 533 161 C 537.97056 161 542 165.02944 542 170 L 542 187 C 542 191.97056 537.97056 196 533 196 L 426 196 C 421.02944 196 417 191.97056 417 187 L 417 170 C 417 165.02944 421.02944 161 426 161 Z" fill="#71cff2"/>
        <path d="M 426 161 L 533 161 C 537.97056 161 542 165.02944 542 170 L 542 187 C 542 191.97056 537.97056 196 533 196 L 426 196 C 421.02944 196 417 191.97056 417 187 L 417 170 C 417 165.02944 421.02944 161 426 161 Z" stroke="#36218e" stroke-linecap="butt" stroke-linejoin="round" stroke-width="3"/>
        <text transform="translate(422 170.82596)" fill="#36218e">
          <tspan font-family="Helvetica Neue" font-weight="bold" font-size="12" fill="#36218e" x="29.828" y="12" xml:space="preserve">Pearson </tspan>
          <tspan font-family="Helvetica Neue" font-style="italic" font-weight="bold" font-size="12" fill="#36218e" y="12" xml:space="preserve">r</tspan>
        </text>
      </g>
      <g id="Line_15">
        <line x1="371" y1="178.5" x2="405.3" y2="178.5" marker-end="url(#SharpArrow_Marker)" stroke="#99990f" stroke-linecap="round" stroke-linejoin="round" stroke-width="3"/>
      </g>
      <g id="Line_16">
        <line x1="371" y1="56.5" x2="407.59114" y2="83.54563" marker-end="url(#SharpArrow_Marker_2)" stroke="#36218e" stroke-linecap="round" stroke-linejoin="round" stroke-width="3"/>
      </g>
      <g id="Line_17">
        <path d="M 78.97873 109.99985 L 78 179 L 193.30008 178.54606" marker-end="url(#SharpArrow_Marker)" stroke="#99990f" stroke-linecap="round" stroke-linejoin="round" stroke-width="3"/>
      </g>
      <g id="Line_18">
        <line x1="371" y1="240.25" x2="405.3" y2="240.25" marker-end="url(#SharpArrow_Marker)" stroke="#99990f" stroke-linecap="round" stroke-linejoin="round" stroke-width="3"/>
      </g>
      <g id="Line_19">
        <line x1="148" y1="90.5" x2="194.39053" y2="112.06753" marker-end="url(#SharpArrow_Marker)" stroke="#99990f" stroke-linecap="round" stroke-linejoin="round" stroke-width="3"/>
      </g>
      <g id="Line_20">
        <line x1="371" y1="117" x2="406.86196" y2="96.34039" marker-end="url(#SharpArrow_Marker_2)" stroke="#36218e" stroke-linecap="round" stroke-linejoin="round" stroke-width="3"/>
      </g>
      <g id="Line_21">
        <path d="M 78 179 L 78 241 L 193.3002 240.3191" marker-end="url(#SharpArrow_Marker)" stroke="#99990f" stroke-linecap="round" stroke-linejoin="round" stroke-width="3"/>
      </g>
      <g id="Graphic_25">
        <path d="M 214 39 L 362 39 C 366.97056 39 371 43.029437 371 48 L 371 65 C 371 69.97056 366.97056 74 362 74 L 214 74 C 209.02943 74 205 69.97056 205 65 L 205 48 C 205 43.029437 209.02943 39 214 39 Z" fill="#71cff2"/>
        <path d="M 214 39 L 362 39 C 366.97056 39 371 43.029437 371 48 L 371 65 C 371 69.97056 366.97056 74 362 74 L 214 74 C 209.02943 74 205 69.97056 205 65 L 205 48 C 205 43.029437 209.02943 39 214 39 Z" stroke="#36218e" stroke-linecap="butt" stroke-linejoin="round" stroke-width="3"/>
        <text transform="translate(210 41.151917)" fill="#36218e">
          <tspan font-family="Helvetica Neue" font-weight="bold" font-size="12" fill="#36218e" x="18.234" y="12" xml:space="preserve">Linearity: matters for </tspan>
          <tspan font-family="Helvetica Neue" font-weight="bold" font-size="12" fill="#36218e" x="38.472" y="27.348083" xml:space="preserve">model validity</tspan>
        </text>
      </g>
      <g id="Graphic_26">
        <path d="M 214 89.5 L 362 89.5 C 366.97056 89.5 371 93.52944 371 98.5 L 371 135.5 C 371 140.47056 366.97056 144.5 362 144.5 L 214 144.5 C 209.02943 144.5 205 140.47056 205 135.5 L 205 98.5 C 205 93.52944 209.02943 89.5 214 89.5 Z" fill="#71cff2"/>
        <path d="M 214 89.5 L 362 89.5 C 366.97056 89.5 371 93.52944 371 98.5 L 371 135.5 C 371 140.47056 366.97056 144.5 362 144.5 L 214 144.5 C 209.02943 144.5 205 140.47056 205 135.5 L 205 98.5 C 205 93.52944 209.02943 89.5 214 89.5 Z" stroke="#36218e" stroke-linecap="butt" stroke-linejoin="round" stroke-width="3"/>
        <text transform="translate(210 93.97787)" fill="#36218e">
          <tspan font-family="Helvetica Neue" font-weight="bold" font-size="12" fill="#36218e" x="6.168" y="12" xml:space="preserve">Normality: small samples </tspan>
          <tspan font-family="Helvetica Neue" font-weight="bold" font-size="12" fill="#36218e" x="17.898" y="27.348083" xml:space="preserve">only, matters only for </tspan>
          <tspan font-family="Helvetica Neue" font-weight="bold" font-size="12" fill="#36218e" x="27.678" y="42.696167" xml:space="preserve">significance tests</tspan>
        </text>
      </g>
      <g id="Line_27">
        <line x1="148" y1="90.5" x2="194.9518" y2="62.49366" marker-end="url(#SharpArrow_Marker)" stroke="#99990f" stroke-linecap="round" stroke-linejoin="round" stroke-width="3"/>
      </g>
    </g>
  </g>
</svg>
