<?xml version="1.0" encoding="UTF-8" standalone="no"?>
<!DOCTYPE svg PUBLIC "-//W3C//DTD SVG 1.1//EN" "http://www.w3.org/Graphics/SVG/1.1/DTD/svg11.dtd">
<svg version="1.1" xmlns="http://www.w3.org/2000/svg" xmlns:xl="http://www.w3.org/1999/xlink" xmlns:dc="http://purl.org/dc/elements/1.1/" viewBox="15 41 478 309" width="478" height="309">
  <defs>
    <filter id="Shadow" filterUnits="userSpaceOnUse" x="-32.8" y="10.1">
      <feGaussianBlur in="SourceAlpha" result="blur" stdDeviation="1.308"/>
      <feOffset in="blur" result="offset" dx="0" dy="2"/>
      <feFlood flood-color="black" flood-opacity=".5" result="flood"/>
      <feComposite in="flood" in2="offset" operator="in"/>
    </filter>
    <marker orient="auto" overflow="visible" markerUnits="strokeWidth" id="SharpArrow_Marker" stroke-linejoin="miter" stroke-miterlimit="10" viewBox="-3 -3 7 6" markerWidth="7" markerHeight="6" color="#004479">
      <g>
        <path d="M 2.3333333 0 L -1.4 -1.4 L 0 0 L 0 0 L -1.4 1.4 Z" fill="currentColor" stroke="currentColor" stroke-width="1"/>
      </g>
    </marker>
  </defs>
  <g id="Canvas_1" fill-opacity="1" stroke-opacity="1" stroke-dasharray="none" stroke="none" fill="none">
    <title>Canvas 1</title>
    <g id="Canvas_1_Layer_2">
      <title>Layer 2</title>
      <g id="Graphic_20">
        <path d="M 16 41 L 492 41 C 492.5523 41 493 41.447715 493 42 L 493 149.5 C 493 150.05228 492.5523 150.5 492 150.5 L 16 150.5 C 15.447715 150.5 15 150.05228 15 149.5 L 15 42 C 15 41.447715 15.447715 41 16 41 Z" fill="#edae00"/>
      </g>
      <g id="Graphic_21">
        <path d="M 16 150.5 L 492 150.5 C 492.5523 150.5 493 150.94772 493 151.5 L 493 349 C 493 349.5523 492.5523 350 492 350 L 16 350 C 15.447715 350 15 349.5523 15 349 L 15 151.5 C 15 150.94772 15.447715 150.5 16 150.5 Z" fill="#cccec0"/>
      </g>
    </g>
    <g id="Canvas_1_Layer_1">
      <title>Layer 1</title>
      <g id="Graphic_19_shadow" filter="url(#Shadow)">
        <path d="M 165.5 82 L 243.5 82 C 246.26142 82 248.5 84.23858 248.5 87 L 248.5 116 C 248.5 118.76142 246.26142 121 243.5 121 L 165.5 121 C 162.73858 121 160.5 118.76142 160.5 116 L 160.5 87 C 160.5 84.23858 162.73858 82 165.5 82 Z" fill="#df7300"/>
      </g>
      <g id="Graphic_18_shadow" filter="url(#Shadow)">
        <path d="M 268 81 L 346 81 C 348.76142 81 351 83.23858 351 86 L 351 115 C 351 117.76142 348.76142 120 346 120 L 268 120 C 265.23858 120 263 117.76142 263 115 L 263 86 C 263 83.23858 265.23858 81 268 81 Z" fill="#df7300"/>
      </g>
      <g id="Graphic_17_shadow" filter="url(#Shadow)">
        <path d="M 66 82 L 144 82 C 146.76142 82 149 84.23858 149 87 L 149 116 C 149 118.76142 146.76142 121 144 121 L 66 121 C 63.23858 121 61 118.76142 61 116 L 61 87 C 61 84.23858 63.23858 82 66 82 Z" fill="#df7300"/>
      </g>
      <g id="Graphic_16_shadow" filter="url(#Shadow)">
        <path d="M 396 82 L 474 82 C 476.7614 82 479 84.23858 479 87 L 479 115 C 479 117.76142 476.7614 120 474 120 L 396 120 C 393.23858 120 391 117.76142 391 115 L 391 87 C 391 84.23858 393.23858 82 396 82 Z" fill="#df7300"/>
      </g>
      <g id="Graphic_15_shadow" filter="url(#Shadow)">
        <path d="M 66 178 L 144 178 C 146.76142 178 149 180.23858 149 183 L 149 319 C 149 321.76142 146.76142 324 144 324 L 66 324 C 63.23858 324 61 321.76142 61 319 L 61 183 C 61 180.23858 63.23858 178 66 178 Z" fill="#666"/>
      </g>
      <g id="Graphic_13_shadow" filter="url(#Shadow)">
        <path d="M 165.5 178 L 243.5 178 C 246.26142 178 248.5 180.23858 248.5 183 L 248.5 319 C 248.5 321.76142 246.26142 324 243.5 324 L 165.5 324 C 162.73858 324 160.5 321.76142 160.5 319 L 160.5 183 C 160.5 180.23858 162.73858 178 165.5 178 Z" fill="#666"/>
      </g>
      <g id="Graphic_12_shadow" filter="url(#Shadow)">
        <path d="M 268 178 L 346 178 C 348.76142 178 351 180.23858 351 183 L 351 319 C 351 321.76142 348.76142 324 346 324 L 268 324 C 265.23858 324 263 321.76142 263 319 L 263 183 C 263 180.23858 265.23858 178 268 178 Z" fill="#666"/>
      </g>
      <g id="Graphic_11_shadow" filter="url(#Shadow)">
        <path d="M 396 178 L 474 178 C 476.7614 178 479 180.23858 479 183 L 479 319 C 479 321.76142 476.7614 324 474 324 L 396 324 C 393.23858 324 391 321.76142 391 319 L 391 183 C 391 180.23858 393.23858 178 396 178 Z" fill="#666"/>
      </g>
      <g id="Graphic_19">
        <path d="M 165.5 82 L 243.5 82 C 246.26142 82 248.5 84.23858 248.5 87 L 248.5 116 C 248.5 118.76142 246.26142 121 243.5 121 L 165.5 121 C 162.73858 121 160.5 118.76142 160.5 116 L 160.5 87 C 160.5 84.23858 162.73858 82 165.5 82 Z" fill="#df7300"/>
        <text transform="translate(165.5 87)" fill="white">
          <tspan font-family="Helvetica Neue" font-size="18" fill="white" x="9.165" y="17" xml:space="preserve">Clinic 2</tspan>
        </text>
      </g>
      <g id="Graphic_18">
        <path d="M 268 81 L 346 81 C 348.76142 81 351 83.23858 351 86 L 351 115 C 351 117.76142 348.76142 120 346 120 L 268 120 C 265.23858 120 263 117.76142 263 115 L 263 86 C 263 83.23858 265.23858 81 268 81 Z" fill="#df7300"/>
        <text transform="translate(268 86)" fill="white">
          <tspan font-family="Helvetica Neue" font-size="18" fill="white" x="9.165" y="17" xml:space="preserve">Clinic 3</tspan>
        </text>
      </g>
      <g id="Graphic_17">
        <path d="M 66 82 L 144 82 C 146.76142 82 149 84.23858 149 87 L 149 116 C 149 118.76142 146.76142 121 144 121 L 66 121 C 63.23858 121 61 118.76142 61 116 L 61 87 C 61 84.23858 63.23858 82 66 82 Z" fill="#df7300"/>
        <text transform="translate(66 87)" fill="white">
          <tspan font-family="Helvetica Neue" font-size="18" fill="white" x="9.165" y="17" xml:space="preserve">Clinic 1</tspan>
        </text>
      </g>
      <g id="Graphic_16">
        <path d="M 396 82 L 474 82 C 476.7614 82 479 84.23858 479 87 L 479 115 C 479 117.76142 476.7614 120 474 120 L 396 120 C 393.23858 120 391 117.76142 391 115 L 391 87 C 391 84.23858 393.23858 82 396 82 Z" fill="#df7300"/>
        <text transform="translate(396 87)" fill="white">
          <tspan font-family="Helvetica Neue" font-size="18" fill="white" x="9.165" y="17" xml:space="preserve">Clinic </tspan>
          <tspan font-family="Helvetica Neue" font-style="italic" font-size="18" fill="white" y="17" xml:space="preserve">n</tspan>
        </text>
      </g>
      <g id="Graphic_15">
        <path d="M 66 178 L 144 178 C 146.76142 178 149 180.23858 149 183 L 149 319 C 149 321.76142 146.76142 324 144 324 L 66 324 C 63.23858 324 61 321.76142 61 319 L 61 183 C 61 180.23858 63.23858 178 66 178 Z" fill="#666"/>
        <text transform="translate(73 183)" fill="white">
          <tspan font-family="Helvetica Neue" font-size="14" fill="white" x="0" y="13" xml:space="preserve">Person 1</tspan>
          <tspan font-family="Helvetica Neue" font-size="14" fill="white" x="0" y="30" xml:space="preserve">Person 2</tspan>
          <tspan font-family="Helvetica Neue" font-size="14" fill="white" x="0" y="47" xml:space="preserve">Person 3</tspan>
          <tspan font-family="Helvetica Neue" font-size="14" fill="white" x="0" y="64" xml:space="preserve">Person 4</tspan>
        </text>
      </g>
      <g id="Graphic_13">
        <path d="M 165.5 178 L 243.5 178 C 246.26142 178 248.5 180.23858 248.5 183 L 248.5 319 C 248.5 321.76142 246.26142 324 243.5 324 L 165.5 324 C 162.73858 324 160.5 321.76142 160.5 319 L 160.5 183 C 160.5 180.23858 162.73858 178 165.5 178 Z" fill="#666"/>
        <text transform="translate(172.5 183)" fill="white">
          <tspan font-family="Helvetica Neue" font-size="14" fill="white" x="0" y="13" xml:space="preserve">Person 5</tspan>
          <tspan font-family="Helvetica Neue" font-size="14" fill="white" x="0" y="30" xml:space="preserve">Person 6</tspan>
          <tspan font-family="Helvetica Neue" font-size="14" fill="white" x="0" y="47" xml:space="preserve">Person 7</tspan>
          <tspan font-family="Helvetica Neue" font-size="14" fill="white" x="0" y="64" xml:space="preserve">Person 8</tspan>
        </text>
      </g>
      <g id="Graphic_12">
        <path d="M 268 178 L 346 178 C 348.76142 178 351 180.23858 351 183 L 351 319 C 351 321.76142 348.76142 324 346 324 L 268 324 C 265.23858 324 263 321.76142 263 319 L 263 183 C 263 180.23858 265.23858 178 268 178 Z" fill="#666"/>
        <text transform="translate(275 183)" fill="white">
          <tspan font-family="Helvetica Neue" font-size="14" fill="white" x="0" y="13" xml:space="preserve">Person 9</tspan>
          <tspan font-family="Helvetica Neue" font-size="14" fill="white" x="0" y="30" xml:space="preserve">Person 10</tspan>
          <tspan font-family="Helvetica Neue" font-size="14" fill="white" x="0" y="47" xml:space="preserve">Person 11</tspan>
          <tspan font-family="Helvetica Neue" font-size="14" fill="white" x="0" y="64" xml:space="preserve">Person 12</tspan>
          <tspan font-family="Helvetica Neue" font-size="14" fill="white" x="0" y="81" xml:space="preserve">Person 13</tspan>
          <tspan font-family="Helvetica Neue" font-size="14" fill="white" x="0" y="98" xml:space="preserve">Person 14</tspan>
        </text>
      </g>
      <g id="Graphic_11">
        <path d="M 396 178 L 474 178 C 476.7614 178 479 180.23858 479 183 L 479 319 C 479 321.76142 476.7614 324 474 324 L 396 324 C 393.23858 324 391 321.76142 391 319 L 391 183 C 391 180.23858 393.23858 178 396 178 Z" fill="#666"/>
        <text transform="translate(403 183)" fill="white">
          <tspan font-family="Helvetica Neue" font-size="14" fill="white" x="0" y="13" xml:space="preserve">Person </tspan>
          <tspan font-family="Helvetica Neue" font-style="italic" font-size="14" fill="white" y="13" xml:space="preserve">x</tspan>
          <tspan font-family="Helvetica Neue" font-size="14" fill="white" x="0" y="30" xml:space="preserve">Person </tspan>
          <tspan font-family="Helvetica Neue" font-style="italic" font-size="14" fill="white" y="30" xml:space="preserve">y</tspan>
          <tspan font-family="Helvetica Neue" font-size="14" fill="white" x="0" y="47" xml:space="preserve">Person </tspan>
          <tspan font-family="Helvetica Neue" font-style="italic" font-size="14" fill="white" y="47" xml:space="preserve">z</tspan>
        </text>
      </g>
      <g id="Line_10">
        <line x1="105" y1="121" x2="105" y2="166.3" marker-end="url(#SharpArrow_Marker)" stroke="#004479" stroke-linecap="round" stroke-linejoin="round" stroke-width="3"/>
      </g>
      <g id="Line_9">
        <line x1="204.5" y1="121" x2="204.5" y2="166.3" marker-end="url(#SharpArrow_Marker)" stroke="#004479" stroke-linecap="round" stroke-linejoin="round" stroke-width="3"/>
      </g>
      <g id="Line_8">
        <line x1="307" y1="120" x2="307" y2="166.3" marker-end="url(#SharpArrow_Marker)" stroke="#004479" stroke-linecap="round" stroke-linejoin="round" stroke-width="3"/>
      </g>
      <g id="Line_7">
        <line x1="435" y1="120" x2="435" y2="166.3" marker-end="url(#SharpArrow_Marker)" stroke="#004479" stroke-linecap="round" stroke-linejoin="round" stroke-width="3"/>
      </g>
      <g id="Graphic_6">
        <text transform="translate(26 43)" fill="white">
          <tspan font-family="Helvetica Neue" font-size="24" fill="white" x="0" y="23" xml:space="preserve">Level</tspan>
        </text>
      </g>
      <g id="Graphic_5">
        <text transform="translate(32 83)" fill="white">
          <tspan font-family="Helvetica Neue" font-size="24" fill="white" x="0" y="23" xml:space="preserve">2</tspan>
        </text>
      </g>
      <g id="Graphic_4">
        <text transform="translate(32 235.75)" fill="#666">
          <tspan font-family="Helvetica Neue" font-size="24" fill="#666" x="0" y="23" xml:space="preserve">1</tspan>
        </text>
      </g>
      <g id="Graphic_14">
        <text transform="translate(363 102)" fill="white">
          <tspan font-family="Helvetica Neue" font-weight="bold" font-size="18" fill="white" x="0" y="18" xml:space="preserve">...</tspan>
        </text>
      </g>
      <g id="Graphic_3">
        <text transform="translate(363 239.5)" fill="#666">
          <tspan font-family="Helvetica Neue" font-weight="bold" font-size="18" fill="#666" x="0" y="18" xml:space="preserve">...</tspan>
        </text>
      </g>
    </g>
  </g>
</svg>
