<?xml version="1.0" encoding="UTF-8" standalone="no"?>
<!DOCTYPE svg PUBLIC "-//W3C//DTD SVG 1.1//EN" "http://www.w3.org/Graphics/SVG/1.1/DTD/svg11.dtd">
<svg version="1.1" xmlns="http://www.w3.org/2000/svg" xmlns:xl="http://www.w3.org/1999/xlink" xmlns:dc="http://purl.org/dc/elements/1.1/" viewBox="235.0882 21.610503 591.5318 498.65906" width="591.5318" height="498.65906">
  <defs>
    <marker orient="auto" overflow="visible" markerUnits="strokeWidth" id="SharpArrow_Marker" stroke-linejoin="miter" stroke-miterlimit="10" viewBox="-3 -3 7 6" markerWidth="7" markerHeight="6" color="#951256">
      <g>
        <path d="M 2.3333333 0 L -1.4 -1.4 L 0 0 L 0 0 L -1.4 1.4 Z" fill="currentColor" stroke="currentColor" stroke-width="1"/>
      </g>
    </marker>
    <marker orient="auto" overflow="visible" markerUnits="strokeWidth" id="SharpArrow_Marker_2" stroke-linejoin="miter" stroke-miterlimit="10" viewBox="-3 -3 7 6" markerWidth="7" markerHeight="6" color="#99990f">
      <g>
        <path d="M 2.3333333 0 L -1.4 -1.4 L 0 0 L 0 0 L -1.4 1.4 Z" fill="currentColor" stroke="currentColor" stroke-width="1"/>
      </g>
    </marker>
    <marker orient="auto" overflow="visible" markerUnits="strokeWidth" id="SharpArrow_Marker_3" stroke-linejoin="miter" stroke-miterlimit="10" viewBox="-3 -3 7 6" markerWidth="7" markerHeight="6" color="#36218e">
      <g>
        <path d="M 2.3333333 0 L -1.4 -1.4 L 0 0 L 0 0 L -1.4 1.4 Z" fill="currentColor" stroke="currentColor" stroke-width="1"/>
      </g>
    </marker>
  </defs>
  <g id="Canvas_1" stroke-opacity="1" stroke="none" stroke-dasharray="none" fill="none" fill-opacity="1">
    <title>Canvas 1</title>
    <g id="Canvas_1_Layer_1">
      <title>Layer 1</title>
      <g id="Graphic_29">
        <path d="M 756.3139 457.72275 L 812.9777 457.72275 C 819.6803 457.72275 825.12 465.78675 825.12 475.72275 C 825.12 485.65875 819.6803 493.72275 812.9777 493.72275 L 756.3139 493.72275 C 749.6114 493.72275 744.1717 485.65875 744.1717 475.72275 C 744.1717 465.78675 749.6114 457.72275 756.3139 457.72275 Z" fill="#e1cc69"/>
        <path d="M 756.3139 457.72275 L 812.9777 457.72275 C 819.6803 457.72275 825.12 465.78675 825.12 475.72275 C 825.12 485.65875 819.6803 493.72275 812.9777 493.72275 L 756.3139 493.72275 C 749.6114 493.72275 744.1717 485.65875 744.1717 475.72275 C 744.1717 465.78675 749.6114 457.72275 756.3139 457.72275 Z" stroke="#99990f" stroke-linecap="round" stroke-linejoin="round" stroke-width="3"/>
        <text transform="translate(749.1717 468.0487)" fill="#4b3d2a">
          <tspan font-family="Helvetica Neue" font-weight="bold" font-size="12" fill="#4b3d2a" x="2.552144" y="12" xml:space="preserve">Effect sizes</tspan>
        </text>
      </g>
      <g id="Graphic_18">
        <path d="M 284.53492 118.04795 L 349.5487 118.04795 C 357.23892 118.04795 363.48025 125.88795 363.48025 135.54795 C 363.48025 145.20795 357.23892 153.04795 349.5487 153.04795 L 284.53492 153.04795 C 276.84472 153.04795 270.6034 145.20795 270.6034 135.54795 C 270.6034 125.88795 276.84472 118.04795 284.53492 118.04795 Z" fill="#dc5e76"/>
        <path d="M 284.53492 118.04795 L 349.5487 118.04795 C 357.23892 118.04795 363.48025 125.88795 363.48025 135.54795 C 363.48025 145.20795 357.23892 153.04795 349.5487 153.04795 L 284.53492 153.04795 C 276.84472 153.04795 270.6034 145.20795 270.6034 135.54795 C 270.6034 125.88795 276.84472 118.04795 284.53492 118.04795 Z" stroke="#951256" stroke-linecap="butt" stroke-linejoin="round" stroke-width="3"/>
        <text transform="translate(275.6034 120.19987)" fill="white">
          <tspan font-family="Helvetica Neue" font-weight="bold" font-size="12" fill="white" x="18.332427" y="12" xml:space="preserve">Specific </tspan>
          <tspan font-family="Helvetica Neue" font-weight="bold" font-size="12" fill="white" x="8.432427" y="27.348083" xml:space="preserve">hypotheses</tspan>
        </text>
      </g>
      <g id="Graphic_17">
        <path d="M 395.10027 118.04795 L 460.11406 118.04795 C 467.80426 118.04795 474.0456 125.88795 474.0456 135.54795 C 474.0456 145.20795 467.80426 153.04795 460.11406 153.04795 L 395.10027 153.04795 C 387.41006 153.04795 381.16874 145.20795 381.16874 135.54795 C 381.16874 125.88795 387.41006 118.04795 395.10027 118.04795 Z" fill="#dc5e76"/>
        <path d="M 395.10027 118.04795 L 460.11406 118.04795 C 467.80426 118.04795 474.0456 125.88795 474.0456 135.54795 C 474.0456 145.20795 467.80426 153.04795 460.11406 153.04795 L 395.10027 153.04795 C 387.41006 153.04795 381.16874 145.20795 381.16874 135.54795 C 381.16874 125.88795 387.41006 118.04795 395.10027 118.04795 Z" stroke="#951256" stroke-linecap="butt" stroke-linejoin="round" stroke-width="3"/>
        <text transform="translate(386.16874 120.19987)" fill="white">
          <tspan font-family="Helvetica Neue" font-weight="bold" font-size="12" fill="white" x="33.326427" y="12" xml:space="preserve">No </tspan>
          <tspan font-family="Helvetica Neue" font-weight="bold" font-size="12" fill="white" x="8.432427" y="27.348083" xml:space="preserve">hypotheses</tspan>
        </text>
      </g>
      <g id="Graphic_16">
        <path d="M 245.5882 187.73221 L 320.46504 187.73221 C 325.4356 187.73221 329.46504 191.76165 329.46504 196.73221 L 329.46504 213.73221 C 329.46504 218.70278 325.4356 222.73221 320.46504 222.73221 L 245.5882 222.73221 C 240.61762 222.73221 236.5882 218.70278 236.5882 213.73221 L 236.5882 196.73221 C 236.5882 191.76165 240.61762 187.73221 245.5882 187.73221 Z" fill="#71cff2"/>
        <path d="M 245.5882 187.73221 L 320.46504 187.73221 C 325.4356 187.73221 329.46504 191.76165 329.46504 196.73221 L 329.46504 213.73221 C 329.46504 218.70278 325.4356 222.73221 320.46504 222.73221 L 245.5882 222.73221 C 240.61762 222.73221 236.5882 218.70278 236.5882 213.73221 L 236.5882 196.73221 C 236.5882 191.76165 240.61762 187.73221 245.5882 187.73221 Z" stroke="#36218e" stroke-linecap="butt" stroke-linejoin="round" stroke-width="3"/>
        <text transform="translate(241.5882 189.88413)" fill="#36218e">
          <tspan font-family="Helvetica Neue" font-weight="bold" font-size="12" fill="#36218e" x="16.544427" y="12" xml:space="preserve">Contrast </tspan>
          <tspan font-family="Helvetica Neue" font-weight="bold" font-size="12" fill="#36218e" x="21.890427" y="27.348083" xml:space="preserve">coding</tspan>
        </text>
      </g>
      <g id="Graphic_15">
        <path d="M 413.61273 187.73221 L 488.4896 187.73221 C 493.46015 187.73221 497.4896 191.76165 497.4896 196.73221 L 497.4896 213.73221 C 497.4896 218.70278 493.46015 222.73221 488.4896 222.73221 L 413.61273 222.73221 C 408.64217 222.73221 404.61273 218.70278 404.61273 213.73221 L 404.61273 196.73221 C 404.61273 191.76165 408.64217 187.73221 413.61273 187.73221 Z" fill="#71cff2"/>
        <path d="M 413.61273 187.73221 L 488.4896 187.73221 C 493.46015 187.73221 497.4896 191.76165 497.4896 196.73221 L 497.4896 213.73221 C 497.4896 218.70278 493.46015 222.73221 488.4896 222.73221 L 413.61273 222.73221 C 408.64217 222.73221 404.61273 218.70278 404.61273 213.73221 L 404.61273 196.73221 C 404.61273 191.76165 408.64217 187.73221 413.61273 187.73221 Z" stroke="#36218e" stroke-linecap="butt" stroke-linejoin="round" stroke-width="3"/>
        <text transform="translate(409.61273 189.88413)" fill="#36218e">
          <tspan font-family="Helvetica Neue" font-weight="bold" font-size="12" fill="#36218e" x="19.448427" y="12" xml:space="preserve">Dummy </tspan>
          <tspan font-family="Helvetica Neue" font-weight="bold" font-size="12" fill="#36218e" x="21.890427" y="27.348083" xml:space="preserve">coding</tspan>
        </text>
      </g>
      <g id="Line_12">
        <line x1="315.99154" y1="154.1189" x2="291.2188" y2="179.3789" marker-end="url(#SharpArrow_Marker)" stroke="#951256" stroke-linecap="butt" stroke-linejoin="round" stroke-width="3"/>
      </g>
      <g id="Line_11">
        <line x1="428.44716" y1="154.2907" x2="444.49916" y2="178.03885" marker-end="url(#SharpArrow_Marker)" stroke="#951256" stroke-linecap="butt" stroke-linejoin="round" stroke-width="3"/>
      </g>
      <g id="Graphic_9">
        <path d="M 318.42338 457.72275 L 419.6876 457.72275 C 431.6657 457.72275 441.38706 465.78675 441.38706 475.72275 C 441.38706 485.65875 431.6657 493.72275 419.6876 493.72275 L 318.42338 493.72275 C 306.44527 493.72275 296.7239 485.65875 296.7239 475.72275 C 296.7239 465.78675 306.44527 457.72275 318.42338 457.72275 Z" fill="#e1cc69"/>
        <path d="M 318.42338 457.72275 L 419.6876 457.72275 C 431.6657 457.72275 441.38706 465.78675 441.38706 475.72275 C 441.38706 485.65875 431.6657 493.72275 419.6876 493.72275 L 318.42338 493.72275 C 306.44527 493.72275 296.7239 485.65875 296.7239 475.72275 C 296.7239 465.78675 306.44527 457.72275 318.42338 457.72275 Z" stroke="#99990f" stroke-linecap="round" stroke-linejoin="round" stroke-width="3"/>
        <text transform="translate(301.7239 460.37466)" fill="#4b3d2a">
          <tspan font-family="Helvetica Neue" font-weight="bold" font-size="12" fill="#4b3d2a" x="30.455573" y="12" xml:space="preserve">Model based </tspan>
          <tspan font-family="Helvetica Neue" font-weight="bold" font-size="12" fill="#4b3d2a" x="37.241573" y="27.348083" xml:space="preserve">estimation</tspan>
        </text>
      </g>
      <g id="Line_7">
        <line x1="369.0555" y1="359.308" x2="369.0555" y2="446.02275" marker-end="url(#SharpArrow_Marker_2)" stroke="#99990f" stroke-linecap="round" stroke-linejoin="round" stroke-width="3"/>
      </g>
      <g id="Graphic_79">
        <path d="M 320.7555 323.308 L 417.3555 323.308 C 428.7819 323.308 438.0555 331.372 438.0555 341.308 C 438.0555 351.244 428.7819 359.308 417.3555 359.308 L 320.7555 359.308 C 309.3291 359.308 300.0555 351.244 300.0555 341.308 C 300.0555 331.372 309.3291 323.308 320.7555 323.308 Z" fill="#e1cc69"/>
        <path d="M 320.7555 323.308 L 417.3555 323.308 C 428.7819 323.308 438.0555 331.372 438.0555 341.308 C 438.0555 351.244 428.7819 359.308 417.3555 359.308 L 320.7555 359.308 C 309.3291 359.308 300.0555 351.244 300.0555 341.308 C 300.0555 331.372 309.3291 323.308 320.7555 323.308 Z" stroke="#99990f" stroke-linecap="round" stroke-linejoin="round" stroke-width="3"/>
        <text transform="translate(305.0555 333.63397)" fill="#4b3d2a">
          <tspan font-family="Helvetica Neue" font-weight="bold" font-size="12" fill="#4b3d2a" x="18.118" y="12" xml:space="preserve">Check residuals</tspan>
        </text>
      </g>
      <g id="Graphic_77">
        <path d="M 514.59296 324.058 L 626.59296 324.058 C 639.84096 324.058 650.59296 332.122 650.59296 342.058 C 650.59296 351.994 639.84096 360.058 626.59296 360.058 L 514.59296 360.058 C 501.34496 360.058 490.59296 351.994 490.59296 342.058 C 490.59296 332.122 501.34496 324.058 514.59296 324.058 Z" fill="#dc5e76"/>
        <path d="M 514.59296 324.058 L 626.59296 324.058 C 639.84096 324.058 650.59296 332.122 650.59296 342.058 C 650.59296 351.994 639.84096 360.058 626.59296 360.058 L 514.59296 360.058 C 501.34496 360.058 490.59296 351.994 490.59296 342.058 C 490.59296 332.122 501.34496 324.058 514.59296 324.058 Z" stroke="#951256" stroke-linecap="butt" stroke-linejoin="round" stroke-width="3"/>
        <text transform="translate(495.59296 334.38397)" fill="white">
          <tspan font-family="Helvetica Neue" font-weight="bold" font-size="12" fill="white" x="38.46" y="12" xml:space="preserve">No normality</tspan>
        </text>
      </g>
      <g id="Graphic_75">
        <path d="M 711.5328 320.558 L 816.12 320.558 C 821.0905 320.558 825.12 324.58745 825.12 329.558 L 825.12 354.558 C 825.12 359.52858 821.0905 363.558 816.12 363.558 L 711.5328 363.558 C 706.5622 363.558 702.5328 359.52858 702.5328 354.558 L 702.5328 329.558 C 702.5328 324.58745 706.5622 320.558 711.5328 320.558 Z" fill="#71cff2"/>
        <path d="M 711.5328 320.558 L 816.12 320.558 C 821.0905 320.558 825.12 324.58745 825.12 329.558 L 825.12 354.558 C 825.12 359.52858 821.0905 363.558 816.12 363.558 L 711.5328 363.558 C 706.5622 363.558 702.5328 359.52858 702.5328 354.558 L 702.5328 329.558 C 702.5328 324.58745 706.5622 320.558 711.5328 320.558 Z" stroke="#36218e" stroke-linecap="butt" stroke-linejoin="round" stroke-width="3"/>
        <text transform="translate(707.5328 326.70993)" fill="#36218e">
          <tspan font-family="Helvetica Neue" font-weight="bold" font-size="12" fill="#36218e" x="1.753602" y="12" xml:space="preserve">Robust estimation/</tspan>
          <tspan font-family="Helvetica Neue" font-weight="bold" font-size="12" fill="#36218e" x="16.741602" y="27.348083" xml:space="preserve">Bootstrap CIs</tspan>
        </text>
      </g>
      <g id="Line_71">
        <line x1="439.0673" y1="342.4154" x2="482.70094" y2="390.17054" marker-end="url(#SharpArrow_Marker_2)" stroke="#99990f" stroke-linecap="round" stroke-linejoin="round" stroke-width="3"/>
      </g>
      <g id="Line_70">
        <line x1="650.59296" y1="342.058" x2="690.8328" y2="342.058" marker-end="url(#SharpArrow_Marker)" stroke="#951256" stroke-linecap="butt" stroke-linejoin="round" stroke-width="3"/>
      </g>
      <g id="Line_67">
        <line x1="438.0555" y1="341.308" x2="478.89415" y2="341.891" marker-end="url(#SharpArrow_Marker_2)" stroke="#99990f" stroke-linecap="round" stroke-linejoin="round" stroke-width="3"/>
      </g>
      <g id="Graphic_63">
        <path d="M 324.3523 44.412345 L 420.9523 44.412345 C 432.3787 44.412345 441.6523 52.476345 441.6523 62.412345 C 441.6523 72.348345 432.3787 80.41234 420.9523 80.41234 L 324.3523 80.41234 C 312.9259 80.41234 303.6523 72.348345 303.6523 62.412345 C 303.6523 52.476345 312.9259 44.412345 324.3523 44.412345 Z" fill="#e1cc69"/>
        <path d="M 324.3523 44.412345 L 420.9523 44.412345 C 432.3787 44.412345 441.6523 52.476345 441.6523 62.412345 C 441.6523 72.348345 432.3787 80.41234 420.9523 80.41234 L 324.3523 80.41234 C 312.9259 80.41234 303.6523 72.348345 303.6523 62.412345 C 303.6523 52.476345 312.9259 44.412345 324.3523 44.412345 Z" stroke="#99990f" stroke-linecap="round" stroke-linejoin="round" stroke-width="3"/>
        <text transform="translate(308.6523 54.7383)" fill="#4b3d2a">
          <tspan font-family="Helvetica Neue" font-weight="bold" font-size="12" fill="#4b3d2a" x="17.35" y="12" xml:space="preserve">Summarise data</tspan>
        </text>
      </g>
      <g id="Graphic_62">
        <path d="M 507.71246 23.110503 L 620.7312 23.110503 C 625.7017 23.110503 629.7312 27.13994 629.7312 32.110503 L 629.7312 49.110503 C 629.7312 54.081066 625.7017 58.1105 620.7312 58.1105 L 507.71246 58.1105 C 502.7419 58.1105 498.71246 54.081066 498.71246 49.110503 L 498.71246 32.110503 C 498.71246 27.13994 502.7419 23.110503 507.71246 23.110503 Z" fill="#71cff2"/>
        <path d="M 507.71246 23.110503 L 620.7312 23.110503 C 625.7017 23.110503 629.7312 27.13994 629.7312 32.110503 L 629.7312 49.110503 C 629.7312 54.081066 625.7017 58.1105 620.7312 58.1105 L 507.71246 58.1105 C 502.7419 58.1105 498.71246 54.081066 498.71246 49.110503 L 498.71246 32.110503 C 498.71246 27.13994 502.7419 23.110503 507.71246 23.110503 Z" stroke="#36218e" stroke-linecap="butt" stroke-linejoin="round" stroke-width="3"/>
        <text transform="translate(503.71246 32.93646)" fill="#36218e">
          <tspan font-family="Helvetica Neue" font-weight="bold" font-size="12" fill="#36218e" x="32.309354" y="12" xml:space="preserve">Violin plot</tspan>
        </text>
      </g>
      <g id="Line_60">
        <line x1="372.6523" y1="80.41234" x2="326.7314" y2="111.49033" marker-end="url(#SharpArrow_Marker_2)" stroke="#99990f" stroke-linecap="round" stroke-linejoin="round" stroke-width="3"/>
      </g>
      <g id="Graphic_59">
        <path d="M 507.71246 66.011374 L 620.7312 66.011374 C 625.7017 66.011374 629.7312 70.04081 629.7312 75.01137 L 629.7312 92.01137 C 629.7312 96.98194 625.7017 101.01137 620.7312 101.01137 L 507.71246 101.01137 C 502.7419 101.01137 498.71246 96.98194 498.71246 92.01137 L 498.71246 75.01137 C 498.71246 70.04081 502.7419 66.011374 507.71246 66.011374 Z" fill="#71cff2"/>
        <path d="M 507.71246 66.011374 L 620.7312 66.011374 C 625.7017 66.011374 629.7312 70.04081 629.7312 75.01137 L 629.7312 92.01137 C 629.7312 96.98194 625.7017 101.01137 620.7312 101.01137 L 507.71246 101.01137 C 502.7419 101.01137 498.71246 96.98194 498.71246 92.01137 L 498.71246 75.01137 C 498.71246 70.04081 502.7419 66.011374 507.71246 66.011374 Z" stroke="#36218e" stroke-linecap="butt" stroke-linejoin="round" stroke-width="3"/>
        <text transform="translate(503.71246 75.83733)" fill="#36218e">
          <tspan font-family="Helvetica Neue" font-weight="bold" font-size="12" fill="#36218e" x=".52735364" y="12" xml:space="preserve">Descriptive statistics</tspan>
        </text>
      </g>
      <g id="Line_58">
        <line x1="441.6523" y1="62.412345" x2="487.73865" y2="79.45361" marker-end="url(#SharpArrow_Marker_2)" stroke="#99990f" stroke-linecap="round" stroke-linejoin="round" stroke-width="3"/>
      </g>
      <g id="Graphic_57">
        <path d="M 320.7555 257.41647 L 417.3555 257.41647 C 428.7819 257.41647 438.0555 265.48047 438.0555 275.41647 C 438.0555 285.35247 428.7819 293.41647 417.3555 293.41647 L 320.7555 293.41647 C 309.3291 293.41647 300.0555 285.35247 300.0555 275.41647 C 300.0555 265.48047 309.3291 257.41647 320.7555 257.41647 Z" fill="#e1cc69"/>
        <path d="M 320.7555 257.41647 L 417.3555 257.41647 C 428.7819 257.41647 438.0555 265.48047 438.0555 275.41647 C 438.0555 285.35247 428.7819 293.41647 417.3555 293.41647 L 320.7555 293.41647 C 309.3291 293.41647 300.0555 285.35247 300.0555 275.41647 C 300.0555 265.48047 309.3291 257.41647 320.7555 257.41647 Z" stroke="#99990f" stroke-linecap="round" stroke-linejoin="round" stroke-width="3"/>
        <text transform="translate(305.0555 267.74243)" fill="#4b3d2a">
          <tspan font-family="Helvetica Neue" font-weight="bold" font-size="12" fill="#4b3d2a" x="37.354" y="12" xml:space="preserve">Fit model</tspan>
        </text>
      </g>
      <g id="Graphic_47">
        <path d="M 519.9117 270.308 L 629.15386 270.308 C 642.07564 270.308 652.5629 278.372 652.5629 288.308 C 652.5629 298.244 642.07564 306.308 629.15386 306.308 L 519.9117 306.308 C 506.98993 306.308 496.5027 298.244 496.5027 288.308 C 496.5027 278.372 506.98993 270.308 519.9117 270.308 Z" fill="#dc5e76"/>
        <path d="M 519.9117 270.308 L 629.15386 270.308 C 642.07564 270.308 652.5629 278.372 652.5629 288.308 C 652.5629 298.244 642.07564 306.308 629.15386 306.308 L 519.9117 306.308 C 506.98993 306.308 496.5027 298.244 496.5027 288.308 C 496.5027 278.372 506.98993 270.308 519.9117 270.308 Z" stroke="#951256" stroke-linecap="butt" stroke-linejoin="round" stroke-width="3"/>
        <text transform="translate(501.5027 280.63397)" fill="white">
          <tspan font-family="Helvetica Neue" font-weight="bold" font-size="12" fill="white" x="19.372098" y="12" xml:space="preserve">Heteroscedasticity</tspan>
        </text>
      </g>
      <g id="Graphic_46">
        <path d="M 711.5328 266.808 L 816.12 266.808 C 821.0905 266.808 825.12 270.83745 825.12 275.808 L 825.12 300.808 C 825.12 305.77858 821.0905 309.808 816.12 309.808 L 711.5328 309.808 C 706.5622 309.808 702.5328 305.77858 702.5328 300.808 L 702.5328 275.808 C 702.5328 270.83745 706.5622 266.808 711.5328 266.808 Z" fill="#71cff2"/>
        <path d="M 711.5328 266.808 L 816.12 266.808 C 821.0905 266.808 825.12 270.83745 825.12 275.808 L 825.12 300.808 C 825.12 305.77858 821.0905 309.808 816.12 309.808 L 711.5328 309.808 C 706.5622 309.808 702.5328 305.77858 702.5328 300.808 L 702.5328 275.808 C 702.5328 270.83745 706.5622 266.808 711.5328 266.808 Z" stroke="#36218e" stroke-linecap="butt" stroke-linejoin="round" stroke-width="3"/>
        <text transform="translate(707.5328 272.95993)" fill="#36218e">
          <tspan font-family="Helvetica Neue" font-weight="bold" font-size="12" fill="#36218e" x="2.389602" y="12" xml:space="preserve">Robust SEs/robust </tspan>
          <tspan font-family="Helvetica Neue" font-weight="bold" font-size="12" fill="#36218e" x="26.203602" y="27.348083" xml:space="preserve">estimation</tspan>
        </text>
      </g>
      <g id="Line_45">
        <line x1="652.5629" y1="288.308" x2="690.8328" y2="288.308" marker-end="url(#SharpArrow_Marker)" stroke="#951256" stroke-linecap="butt" stroke-linejoin="round" stroke-width="3"/>
      </g>
      <g id="Line_44">
        <line x1="438.0555" y1="341.308" x2="487.8355" y2="296.1674" marker-end="url(#SharpArrow_Marker_2)" stroke="#99990f" stroke-linecap="round" stroke-linejoin="round" stroke-width="3"/>
      </g>
      <g id="Line_43">
        <line x1="652.5629" y1="288.308" x2="694.5664" y2="333.48903" marker-end="url(#SharpArrow_Marker)" stroke="#951256" stroke-linecap="butt" stroke-linejoin="round" stroke-width="3"/>
      </g>
      <g id="Line_42">
        <line x1="369.0555" y1="294.91647" x2="369.0555" y2="311.608" marker-end="url(#SharpArrow_Marker_2)" stroke="#99990f" stroke-linecap="round" stroke-linejoin="round" stroke-width="3"/>
      </g>
      <g id="Graphic_41">
        <path d="M 514.59296 380.808 L 626.59296 380.808 C 639.84096 380.808 650.59296 388.872 650.59296 398.808 C 650.59296 408.744 639.84096 416.808 626.59296 416.808 L 514.59296 416.808 C 501.34496 416.808 490.59296 408.744 490.59296 398.808 C 490.59296 388.872 501.34496 380.808 514.59296 380.808 Z" fill="#dc5e76"/>
        <path d="M 514.59296 380.808 L 626.59296 380.808 C 639.84096 380.808 650.59296 388.872 650.59296 398.808 C 650.59296 408.744 639.84096 416.808 626.59296 416.808 L 514.59296 416.808 C 501.34496 416.808 490.59296 408.744 490.59296 398.808 C 490.59296 388.872 501.34496 380.808 514.59296 380.808 Z" stroke="#951256" stroke-linecap="butt" stroke-linejoin="round" stroke-width="3"/>
        <text transform="translate(495.59296 391.13397)" fill="white">
          <tspan font-family="Helvetica Neue" font-weight="bold" font-size="12" fill="white" x="11.67" y="12" xml:space="preserve">Lack of independence</tspan>
        </text>
      </g>
      <g id="Graphic_40">
        <path d="M 711.5328 377.308 L 816.12 377.308 C 821.0905 377.308 825.12 381.33745 825.12 386.308 L 825.12 411.308 C 825.12 416.2786 821.0905 420.308 816.12 420.308 L 711.5328 420.308 C 706.5622 420.308 702.5328 416.2786 702.5328 411.308 L 702.5328 386.308 C 702.5328 381.33745 706.5622 377.308 711.5328 377.308 Z" fill="#71cff2"/>
        <path d="M 711.5328 377.308 L 816.12 377.308 C 821.0905 377.308 825.12 381.33745 825.12 386.308 L 825.12 411.308 C 825.12 416.2786 821.0905 420.308 816.12 420.308 L 711.5328 420.308 C 706.5622 420.308 702.5328 416.2786 702.5328 411.308 L 702.5328 386.308 C 702.5328 381.33745 706.5622 377.308 711.5328 377.308 Z" stroke="#36218e" stroke-linecap="butt" stroke-linejoin="round" stroke-width="3"/>
        <text transform="translate(707.5328 383.45993)" fill="#36218e">
          <tspan font-family="Helvetica Neue" font-weight="bold" font-size="12" fill="#36218e" x="11.095602" y="12" xml:space="preserve">Use a multilevel </tspan>
          <tspan font-family="Helvetica Neue" font-weight="bold" font-size="12" fill="#36218e" x="1.969602" y="27.348083" xml:space="preserve">model (Chapter 21)</tspan>
        </text>
      </g>
      <g id="Line_39">
        <line x1="650.59296" y1="398.808" x2="690.8328" y2="398.808" marker-end="url(#SharpArrow_Marker)" stroke="#951256" stroke-linecap="butt" stroke-linejoin="round" stroke-width="3"/>
      </g>
      <g id="Line_38">
        <line x1="651.6057" y1="343.16453" x2="694.6335" y2="390.17717" marker-end="url(#SharpArrow_Marker)" stroke="#951256" stroke-linecap="butt" stroke-linejoin="round" stroke-width="3"/>
      </g>
      <g id="Line_80">
        <line x1="372.6523" y1="80.41234" x2="417.95393" y2="111.43698" marker-end="url(#SharpArrow_Marker_2)" stroke="#99990f" stroke-linecap="round" stroke-linejoin="round" stroke-width="3"/>
      </g>
      <g id="Line_81">
        <line x1="441.6523" y1="62.412345" x2="487.7831" y2="44.786457" marker-end="url(#SharpArrow_Marker_2)" stroke="#99990f" stroke-linecap="round" stroke-linejoin="round" stroke-width="3"/>
      </g>
      <g id="Line_82">
        <line x1="283.0266" y1="222.73221" x2="358.2042" y2="253.04156" marker-end="url(#SharpArrow_Marker_3)" stroke="#36218e" stroke-linecap="butt" stroke-linejoin="round" stroke-width="3"/>
      </g>
      <g id="Line_83">
        <line x1="451.05116" y1="222.73221" x2="379.8311" y2="252.85838" marker-end="url(#SharpArrow_Marker_3)" stroke="#36218e" stroke-linecap="butt" stroke-linejoin="round" stroke-width="3"/>
      </g>
      <g id="Graphic_84">
        <path d="M 504.11566 437.558 L 575.4739 437.558 C 580.4445 437.558 584.4739 441.58745 584.4739 446.558 L 584.4739 463.558 C 584.4739 468.5286 580.4445 472.558 575.4739 472.558 L 504.11566 472.558 C 499.1451 472.558 495.11566 468.5286 495.11566 463.558 L 495.11566 446.558 C 495.11566 441.58745 499.1451 437.558 504.11566 437.558 Z" fill="#71cff2"/>
        <path d="M 504.11566 437.558 L 575.4739 437.558 C 580.4445 437.558 584.4739 441.58745 584.4739 446.558 L 584.4739 463.558 C 584.4739 468.5286 580.4445 472.558 575.4739 472.558 L 504.11566 472.558 C 499.1451 472.558 495.11566 468.5286 495.11566 463.558 L 495.11566 446.558 C 495.11566 441.58745 499.1451 437.558 504.11566 437.558 Z" stroke="#36218e" stroke-linecap="butt" stroke-linejoin="round" stroke-width="3"/>
        <text transform="translate(500.11566 439.70993)" fill="#36218e">
          <tspan font-family="Helvetica Neue" font-weight="bold" font-size="12" fill="#36218e" x="16.573134" y="12" xml:space="preserve">Specific </tspan>
          <tspan font-family="Helvetica Neue" font-weight="bold" font-size="12" fill="#36218e" x="6.673134" y="27.348083" xml:space="preserve">hypotheses</tspan>
        </text>
      </g>
      <g id="Graphic_85">
        <path d="M 507.71246 483.76956 L 575.4739 483.76956 C 580.4445 483.76956 584.4739 487.799 584.4739 492.76956 L 584.4739 509.76956 C 584.4739 514.7401 580.4445 518.76956 575.4739 518.76956 L 507.71246 518.76956 C 502.7419 518.76956 498.71246 514.7401 498.71246 509.76956 L 498.71246 492.76956 C 498.71246 487.799 502.7419 483.76956 507.71246 483.76956 Z" fill="#71cff2"/>
        <path d="M 507.71246 483.76956 L 575.4739 483.76956 C 580.4445 483.76956 584.4739 487.799 584.4739 492.76956 L 584.4739 509.76956 C 584.4739 514.7401 580.4445 518.76956 575.4739 518.76956 L 507.71246 518.76956 C 502.7419 518.76956 498.71246 514.7401 498.71246 509.76956 L 498.71246 492.76956 C 498.71246 487.799 502.7419 483.76956 507.71246 483.76956 Z" stroke="#36218e" stroke-linecap="butt" stroke-linejoin="round" stroke-width="3"/>
        <text transform="translate(503.71246 485.9215)" fill="#36218e">
          <tspan font-family="Helvetica Neue" font-weight="bold" font-size="12" fill="#36218e" x="29.768733" y="12" xml:space="preserve">No </tspan>
          <tspan font-family="Helvetica Neue" font-weight="bold" font-size="12" fill="#36218e" x="4.8747335" y="27.348083" xml:space="preserve">hypotheses</tspan>
        </text>
      </g>
      <g id="Graphic_86">
        <path d="M 625.03754 437.558 L 695.57306 437.558 C 700.5436 437.558 704.57306 441.58745 704.57306 446.558 L 704.57306 463.558 C 704.57306 468.5286 700.5436 472.558 695.57306 472.558 L 625.03754 472.558 C 620.067 472.558 616.03754 468.5286 616.03754 463.558 L 616.03754 446.558 C 616.03754 441.58745 620.067 437.558 625.03754 437.558 Z" fill="#71cff2"/>
        <path d="M 625.03754 437.558 L 695.57306 437.558 C 700.5436 437.558 704.57306 441.58745 704.57306 446.558 L 704.57306 463.558 C 704.57306 468.5286 700.5436 472.558 695.57306 472.558 L 625.03754 472.558 C 620.067 472.558 616.03754 468.5286 616.03754 463.558 L 616.03754 446.558 C 616.03754 441.58745 620.067 437.558 625.03754 437.558 Z" stroke="#36218e" stroke-linecap="butt" stroke-linejoin="round" stroke-width="3"/>
        <text transform="translate(621.03754 439.70993)" fill="#36218e">
          <tspan font-family="Helvetica Neue" font-weight="bold" font-size="12" fill="#36218e" x="9.273757" y="12" xml:space="preserve">Parameter </tspan>
          <tspan font-family="Helvetica Neue" font-weight="bold" font-size="12" fill="#36218e" x="11.283757" y="27.348083" xml:space="preserve">estimates</tspan>
        </text>
      </g>
      <g id="Graphic_87">
        <path d="M 627.8116 483.76956 L 695.57306 483.76956 C 700.5436 483.76956 704.57306 487.799 704.57306 492.76956 L 704.57306 509.76956 C 704.57306 514.7401 700.5436 518.76956 695.57306 518.76956 L 627.8116 518.76956 C 622.841 518.76956 618.8116 514.7401 618.8116 509.76956 L 618.8116 492.76956 C 618.8116 487.799 622.841 483.76956 627.8116 483.76956 Z" fill="#71cff2"/>
        <path d="M 627.8116 483.76956 L 695.57306 483.76956 C 700.5436 483.76956 704.57306 487.799 704.57306 492.76956 L 704.57306 509.76956 C 704.57306 514.7401 700.5436 518.76956 695.57306 518.76956 L 627.8116 518.76956 C 622.841 518.76956 618.8116 514.7401 618.8116 509.76956 L 618.8116 492.76956 C 618.8116 487.799 622.841 483.76956 627.8116 483.76956 Z" stroke="#36218e" stroke-linecap="butt" stroke-linejoin="round" stroke-width="3"/>
        <text transform="translate(623.8116 485.9215)" fill="#36218e">
          <tspan font-family="Helvetica Neue" font-style="italic" font-weight="bold" font-size="12" fill="#36218e" x="12.758733" y="12" xml:space="preserve">Post hoc </tspan>
          <tspan font-family="Helvetica Neue" font-weight="bold" font-size="12" fill="#36218e" x="23.768733" y="27.348083" xml:space="preserve">tests</tspan>
        </text>
      </g>
      <g id="Line_88">
        <line x1="441.38706" y1="475.72275" x2="484.1955" y2="459.25805" marker-end="url(#SharpArrow_Marker_2)" stroke="#99990f" stroke-linecap="butt" stroke-linejoin="round" stroke-width="3"/>
      </g>
      <g id="Line_89">
        <line x1="441.38706" y1="475.72275" x2="488.02564" y2="496.507" marker-end="url(#SharpArrow_Marker_2)" stroke="#99990f" stroke-linecap="butt" stroke-linejoin="round" stroke-width="3"/>
      </g>
      <g id="Line_90">
        <line x1="585.9739" y1="455.058" x2="604.33754" y2="455.058" marker-end="url(#SharpArrow_Marker_3)" stroke="#36218e" stroke-linecap="butt" stroke-linejoin="round" stroke-width="3"/>
      </g>
      <g id="Line_91">
        <line x1="584.4739" y1="501.26956" x2="607.1116" y2="501.26956" marker-end="url(#SharpArrow_Marker_3)" stroke="#36218e" stroke-linecap="butt" stroke-linejoin="round" stroke-width="3"/>
      </g>
      <g id="Line_92">
        <line x1="705.9029" y1="455.752" x2="733.7991" y2="470.3098" marker-end="url(#SharpArrow_Marker_3)" stroke="#36218e" stroke-linecap="round" stroke-linejoin="round" stroke-width="3"/>
      </g>
      <g id="Line_93">
        <line x1="705.8335" y1="500.4564" x2="734.34014" y2="482.0655" marker-end="url(#SharpArrow_Marker_3)" stroke="#36218e" stroke-linecap="round" stroke-linejoin="round" stroke-width="3"/>
      </g>
    </g>
  </g>
</svg>
