<?xml version="1.0" encoding="UTF-8" standalone="no"?>
<!DOCTYPE svg PUBLIC "-//W3C//DTD SVG 1.1//EN" "http://www.w3.org/Graphics/SVG/1.1/DTD/svg11.dtd">
<svg version="1.1" xmlns:xl="http://www.w3.org/1999/xlink" xmlns:dc="http://purl.org/dc/elements/1.1/" xmlns="http://www.w3.org/2000/svg" viewBox="72.25094 31.735412 930.9957 576.6308" width="930.9957" height="576.6308">
  <defs>
    <marker orient="auto" overflow="visible" markerUnits="strokeWidth" id="SharpArrow_Marker" stroke-linejoin="miter" stroke-miterlimit="10" viewBox="-3 -3 7 6" markerWidth="7" markerHeight="6" color="#99990f">
      <g>
        <path d="M 2.3333333 0 L -1.4 -1.4 L 0 0 L 0 0 L -1.4 1.4 Z" fill="currentColor" stroke="currentColor" stroke-width="1"/>
      </g>
    </marker>
    <marker orient="auto" overflow="visible" markerUnits="strokeWidth" id="SharpArrow_Marker_2" stroke-linejoin="miter" stroke-miterlimit="10" viewBox="-3 -3 7 6" markerWidth="7" markerHeight="6" color="#36218e">
      <g>
        <path d="M 2.3333333 0 L -1.4 -1.4 L 0 0 L 0 0 L -1.4 1.4 Z" fill="currentColor" stroke="currentColor" stroke-width="1"/>
      </g>
    </marker>
    <marker orient="auto" overflow="visible" markerUnits="strokeWidth" id="SharpArrow_Marker_3" stroke-linejoin="miter" stroke-miterlimit="10" viewBox="-3 -3 7 6" markerWidth="7" markerHeight="6" color="#007928">
      <g>
        <path d="M 2.3333333 0 L -1.4 -1.4 L 0 0 L 0 0 L -1.4 1.4 Z" fill="currentColor" stroke="currentColor" stroke-width="1"/>
      </g>
    </marker>
    <marker orient="auto" overflow="visible" markerUnits="strokeWidth" id="SharpArrow_Marker_4" stroke-linejoin="miter" stroke-miterlimit="10" viewBox="-3 -3 7 6" markerWidth="7" markerHeight="6" color="#951256">
      <g>
        <path d="M 2.3333333 0 L -1.4 -1.4 L 0 0 L 0 0 L -1.4 1.4 Z" fill="currentColor" stroke="currentColor" stroke-width="1"/>
      </g>
    </marker>
  </defs>
  <g id="Canvas_1" fill="none" stroke-opacity="1" stroke="none" fill-opacity="1" stroke-dasharray="none">
    <title>Canvas 1</title>
    <g id="Canvas_1_Layer_1">
      <title>Layer 1</title>
      <g id="Graphic_37">
        <path d="M 533.7896 33.235412 L 741.3669 33.235412 C 746.3374 33.235412 750.3669 37.26485 750.3669 42.23541 L 750.3669 288.36 C 750.3669 293.33056 746.3374 297.36 741.3669 297.36 L 533.7896 297.36 C 528.81905 297.36 524.7896 293.33056 524.7896 288.36 L 524.7896 42.23541 C 524.7896 37.26485 528.81905 33.235412 533.7896 33.235412 Z" fill="#00ad99" fill-opacity=".5"/>
        <path d="M 533.7896 33.235412 L 741.3669 33.235412 C 746.3374 33.235412 750.3669 37.26485 750.3669 42.23541 L 750.3669 288.36 C 750.3669 293.33056 746.3374 297.36 741.3669 297.36 L 533.7896 297.36 C 528.81905 297.36 524.7896 293.33056 524.7896 288.36 L 524.7896 42.23541 C 524.7896 37.26485 528.81905 33.235412 533.7896 33.235412 Z" stroke="#007928" stroke-linecap="round" stroke-linejoin="round" stroke-width="3"/>
      </g>
      <g id="Graphic_32">
        <path d="M 348.081 555.9174 L 449.3452 555.9174 C 461.32333 555.9174 471.0447 563.9814 471.0447 573.9174 C 471.0447 583.8534 461.32333 591.9174 449.3452 591.9174 L 348.081 591.9174 C 336.1029 591.9174 326.38154 583.8534 326.38154 573.9174 C 326.38154 563.9814 336.1029 555.9174 348.081 555.9174 Z" fill="#e1cc69"/>
        <path d="M 348.081 555.9174 L 449.3452 555.9174 C 461.32333 555.9174 471.0447 563.9814 471.0447 573.9174 C 471.0447 583.8534 461.32333 591.9174 449.3452 591.9174 L 348.081 591.9174 C 336.1029 591.9174 326.38154 583.8534 326.38154 573.9174 C 326.38154 563.9814 336.1029 555.9174 348.081 555.9174 Z" stroke="#99990f" stroke-linecap="round" stroke-linejoin="round" stroke-width="3"/>
        <text transform="translate(331.38154 566.24334)" fill="#4b3d2a">
          <tspan font-family="Helvetica Neue" font-weight="bold" font-size="12" fill="#4b3d2a" x="34.409573" y="12" xml:space="preserve">Effect sizes</tspan>
        </text>
      </g>
      <g id="Graphic_31">
        <path d="M 533.7896 342.90027 L 627.7896 342.90027 C 632.7602 342.90027 636.7896 346.9297 636.7896 351.90027 L 636.7896 368.90027 C 636.7896 373.87083 632.7602 377.90027 627.7896 377.90027 L 533.7896 377.90027 C 528.81905 377.90027 524.7896 373.87083 524.7896 368.90027 L 524.7896 351.90027 C 524.7896 346.9297 528.81905 342.90027 533.7896 342.90027 Z" fill="#71cff2"/>
        <path d="M 533.7896 342.90027 L 627.7896 342.90027 C 632.7602 342.90027 636.7896 346.9297 636.7896 351.90027 L 636.7896 368.90027 C 636.7896 373.87083 632.7602 377.90027 627.7896 377.90027 L 533.7896 377.90027 C 528.81905 377.90027 524.7896 373.87083 524.7896 368.90027 L 524.7896 351.90027 C 524.7896 346.9297 528.81905 342.90027 533.7896 342.90027 Z" stroke="#36218e" stroke-linecap="butt" stroke-linejoin="round" stroke-width="3"/>
        <text transform="translate(529.7896 352.72623)" fill="#36218e">
          <tspan font-family="Helvetica Neue" font-weight="bold" font-size="12" fill="#36218e" x="10.356" y="12" xml:space="preserve">Residual plots</tspan>
        </text>
      </g>
      <g id="Line_30">
        <path d="M 477.11874 346.101 L 480.46246 349.80845 C 486.84067 356.88046 495.9631 360.8522 505.48533 360.7029 L 513.09106 360.58367" marker-end="url(#SharpArrow_Marker)" stroke="#99990f" stroke-linecap="round" stroke-linejoin="round" stroke-width="3"/>
      </g>
      <g id="Graphic_29">
        <path d="M 348.081 208.16075 L 449.3452 208.16075 C 461.32333 208.16075 471.0447 216.22475 471.0447 226.16075 C 471.0447 236.09675 461.32333 244.16075 449.3452 244.16075 L 348.081 244.16075 C 336.1029 244.16075 326.38154 236.09675 326.38154 226.16075 C 326.38154 216.22475 336.1029 208.16075 348.081 208.16075 Z" fill="#e1cc69"/>
        <path d="M 348.081 208.16075 L 449.3452 208.16075 C 461.32333 208.16075 471.0447 216.22475 471.0447 226.16075 C 471.0447 236.09675 461.32333 244.16075 449.3452 244.16075 L 348.081 244.16075 C 336.1029 244.16075 326.38154 236.09675 326.38154 226.16075 C 326.38154 216.22475 336.1029 208.16075 348.081 208.16075 Z" stroke="#99990f" stroke-linecap="round" stroke-linejoin="round" stroke-width="3"/>
        <text transform="translate(331.38154 218.4867)" fill="#4b3d2a">
          <tspan font-family="Helvetica Neue" font-weight="bold" font-size="12" fill="#4b3d2a" x="23.141573" y="12" xml:space="preserve">Fit linear model</tspan>
        </text>
      </g>
      <g id="Line_28">
        <line x1="580.7896" y1="379.40027" x2="580.7896" y2="402.23784" marker-end="url(#SharpArrow_Marker_2)" stroke="#36218e" stroke-linecap="butt" stroke-linejoin="round" stroke-width="3"/>
      </g>
      <g id="Graphic_27">
        <path d="M 344.5324 319.42712 L 452.8938 319.42712 C 465.7114 319.42712 476.1141 330.878 476.1141 344.98712 C 476.1141 359.09624 465.7114 370.54712 452.8938 370.54712 L 344.5324 370.54712 C 331.7148 370.54712 321.3121 359.09624 321.3121 344.98712 C 321.3121 330.878 331.7148 319.42712 344.5324 319.42712 Z" fill="#e1cc69"/>
        <path d="M 344.5324 319.42712 L 452.8938 319.42712 C 465.7114 319.42712 476.1141 330.878 476.1141 344.98712 C 476.1141 359.09624 465.7114 370.54712 452.8938 370.54712 L 344.5324 370.54712 C 331.7148 370.54712 321.3121 359.09624 321.3121 344.98712 C 321.3121 330.878 331.7148 319.42712 344.5324 319.42712 Z" stroke="#99990f" stroke-linecap="round" stroke-linejoin="round" stroke-width="3"/>
        <text transform="translate(326.3121 329.63904)" fill="#4b3d2a">
          <tspan font-family="Helvetica Neue" font-weight="bold" font-size="12" fill="#4b3d2a" x="19.631" y="12" xml:space="preserve">Check for outliers, </tspan>
          <tspan font-family="Helvetica Neue" font-weight="bold" font-size="12" fill="#4b3d2a" x="5.537001" y="27.348083" xml:space="preserve">normality, homogeneity </tspan>
        </text>
      </g>
      <g id="Graphic_24">
        <path d="M 535.8146 413.93784 L 625.7646 413.93784 C 636.4044 413.93784 645.0396 422.00184 645.0396 431.93784 C 645.0396 441.87384 636.4044 449.93784 625.7646 449.93784 L 535.8146 449.93784 C 525.1748 449.93784 516.5396 441.87384 516.5396 431.93784 C 516.5396 422.00184 525.1748 413.93784 535.8146 413.93784 Z" fill="#e1cc69"/>
        <path d="M 535.8146 413.93784 L 625.7646 413.93784 C 636.4044 413.93784 645.0396 422.00184 645.0396 431.93784 C 645.0396 441.87384 636.4044 449.93784 625.7646 449.93784 L 535.8146 449.93784 C 525.1748 449.93784 516.5396 441.87384 516.5396 431.93784 C 516.5396 422.00184 525.1748 413.93784 535.8146 413.93784 Z" stroke="#99990f" stroke-linecap="round" stroke-linejoin="round" stroke-width="3"/>
        <text transform="translate(521.5396 424.2638)" fill="#4b3d2a">
          <tspan font-family="Helvetica Neue" font-weight="bold" font-size="12" fill="#4b3d2a" x="9.036" y="12" xml:space="preserve">Correct problems</tspan>
        </text>
      </g>
      <g id="Graphic_20">
        <path d="M 344.5324 406.37784 L 452.8938 406.37784 C 465.7114 406.37784 476.1141 417.8287 476.1141 431.93784 C 476.1141 446.04696 465.7114 457.49784 452.8938 457.49784 L 344.5324 457.49784 C 331.7148 457.49784 321.3121 446.04696 321.3121 431.93784 C 321.3121 417.8287 331.7148 406.37784 344.5324 406.37784 Z" fill="#e1cc69"/>
        <path d="M 344.5324 406.37784 L 452.8938 406.37784 C 465.7114 406.37784 476.1141 417.8287 476.1141 431.93784 C 476.1141 446.04696 465.7114 457.49784 452.8938 457.49784 L 344.5324 457.49784 C 331.7148 457.49784 321.3121 446.04696 321.3121 431.93784 C 321.3121 417.8287 331.7148 406.37784 344.5324 406.37784 Z" stroke="#99990f" stroke-linecap="round" stroke-linejoin="round" stroke-width="3"/>
        <text transform="translate(326.3121 416.58975)" fill="#4b3d2a">
          <tspan font-family="Helvetica Neue" font-weight="bold" font-size="12" fill="#4b3d2a" x=".983001" y="12" xml:space="preserve">Model-based predictions </tspan>
          <tspan font-family="Helvetica Neue" font-weight="bold" font-size="12" fill="#4b3d2a" x="26.093" y="27.348083" xml:space="preserve">(follow-up tests)</tspan>
        </text>
      </g>
      <g id="Graphic_17">
        <path d="M 125.22763 406.37784 L 198.27708 406.37784 C 203.24765 406.37784 207.27708 410.40727 207.27708 415.37784 L 207.27708 484.9042 C 207.27708 489.87476 203.24765 493.9042 198.27708 493.9042 L 125.22763 493.9042 C 120.25707 493.9042 116.22763 489.87476 116.22763 484.9042 L 116.22763 415.37784 C 116.22763 410.40727 120.25707 406.37784 125.22763 406.37784 Z" fill="#71cff2"/>
        <path d="M 125.22763 406.37784 L 198.27708 406.37784 C 203.24765 406.37784 207.27708 410.40727 207.27708 415.37784 L 207.27708 484.9042 C 207.27708 489.87476 203.24765 493.9042 198.27708 493.9042 L 125.22763 493.9042 C 120.25707 493.9042 116.22763 489.87476 116.22763 484.9042 L 116.22763 415.37784 C 116.22763 410.40727 120.25707 406.37784 125.22763 406.37784 Z" stroke="#36218e" stroke-linecap="butt" stroke-linejoin="round" stroke-width="3"/>
        <text transform="translate(121.22763 411.7708)" fill="#36218e">
          <tspan font-family="Helvetica Neue" font-weight="bold" font-size="12" fill="#36218e" x="10.530727" y="12" xml:space="preserve">Parameter </tspan>
          <tspan font-family="Helvetica Neue" font-weight="bold" font-size="12" fill="#36218e" x="12.540727" y="27.348083" xml:space="preserve">estimates </tspan>
          <tspan font-family="Helvetica Neue" font-weight="bold" font-size="12" fill="#36218e" x="14.190727" y="42.696167" xml:space="preserve">based on </tspan>
          <tspan font-family="Helvetica Neue" font-weight="bold" font-size="12" fill="#36218e" x="17.640727" y="58.04425" xml:space="preserve">planned </tspan>
          <tspan font-family="Helvetica Neue" font-weight="bold" font-size="12" fill="#36218e" x="13.410727" y="73.39233" xml:space="preserve">contrasts</tspan>
        </text>
      </g>
      <g id="Graphic_16">
        <path d="M 599.14916 556.4174 L 672.1986 556.4174 C 677.1692 556.4174 681.1986 560.4468 681.1986 565.4174 L 681.1986 582.4174 C 681.1986 587.38794 677.1692 591.4174 672.1986 591.4174 L 599.14916 591.4174 C 594.1786 591.4174 590.14916 587.38794 590.14916 582.4174 L 590.14916 565.4174 C 590.14916 560.4468 594.1786 556.4174 599.14916 556.4174 Z" fill="#71cff2"/>
        <path d="M 599.14916 556.4174 L 672.1986 556.4174 C 677.1692 556.4174 681.1986 560.4468 681.1986 565.4174 L 681.1986 582.4174 C 681.1986 587.38794 677.1692 591.4174 672.1986 591.4174 L 599.14916 591.4174 C 594.1786 591.4174 590.14916 587.38794 590.14916 582.4174 L 590.14916 565.4174 C 590.14916 560.4468 594.1786 556.4174 599.14916 556.4174 Z" stroke="#36218e" stroke-linecap="butt" stroke-linejoin="round" stroke-width="3"/>
        <text transform="translate(595.14916 558.5693)" fill="#36218e">
          <tspan font-family="Helvetica Neue" font-style="italic" font-weight="bold" font-size="12" fill="#36218e" x="15.402727" y="12" xml:space="preserve">Post hoc </tspan>
          <tspan font-family="Helvetica Neue" font-weight="bold" font-size="12" fill="#36218e" x="26.412727" y="27.348083" xml:space="preserve">tests</tspan>
        </text>
      </g>
      <g id="Line_10">
        <line x1="544.38316" y1="182.02636" x2="481.06943" y2="220.12796" marker-end="url(#SharpArrow_Marker)" stroke="#99990f" stroke-linecap="round" stroke-linejoin="round" stroke-width="3"/>
      </g>
      <g id="Graphic_9">
        <path d="M 572.3417 228.55126 L 702.8148 228.55126 C 718.2479 228.55126 730.7733 241.12486 730.7733 256.61732 C 730.7733 272.1098 718.2479 284.6834 702.8148 284.6834 L 572.3417 284.6834 C 556.9086 284.6834 544.38316 272.1098 544.38316 256.61732 C 544.38316 241.12486 556.9086 228.55126 572.3417 228.55126 Z" fill="#e1cc69"/>
        <path d="M 572.3417 228.55126 L 702.8148 228.55126 C 718.2479 228.55126 730.7733 241.12486 730.7733 256.61732 C 730.7733 272.1098 718.2479 284.6834 702.8148 284.6834 L 572.3417 284.6834 C 556.9086 284.6834 544.38316 272.1098 544.38316 256.61732 C 544.38316 241.12486 556.9086 228.55126 572.3417 228.55126 Z" stroke="#99990f" stroke-linecap="round" stroke-linejoin="round" stroke-width="3"/>
        <text transform="translate(549.38316 241.26924)" fill="#4b3d2a">
          <tspan font-family="Helvetica Neue" font-weight="bold" font-size="12" fill="#4b3d2a" x="7.843084" y="12" xml:space="preserve">Test effects with </tspan>
          <tspan font-family="Helvetica Neue" font-style="italic" font-weight="bold" font-size="12" fill="#4b3d2a" y="12" xml:space="preserve">F</tspan>
          <tspan font-family="Helvetica Neue" font-weight="bold" font-size="12" fill="#4b3d2a" y="12" xml:space="preserve">-statistics </tspan>
          <tspan font-family="Helvetica Neue" font-weight="bold" font-size="12" fill="#4b3d2a" x="41.317084" y="27.348083" xml:space="preserve">using Type III SS</tspan>
        </text>
      </g>
      <g id="Line_8">
        <line x1="399.424" y1="458.8187" x2="414.3393" y2="486.53106" marker-end="url(#SharpArrow_Marker)" stroke="#99990f" stroke-linecap="round" stroke-linejoin="round" stroke-width="3"/>
      </g>
      <g id="Line_6">
        <path d="M 251.31988 298.68046 C 255.0462 305.59533 250.8358 311.71012 262.5 319.42712 C 272.13892 325.8042 292.62312 333.27857 310.50767 340.48936" marker-end="url(#SharpArrow_Marker_3)" stroke="#007928" stroke-linecap="round" stroke-linejoin="round" stroke-width="3"/>
      </g>
      <g id="Line_5">
        <path d="M 549.28657 298.6106 C 544.6915 305.54874 547.6942 311.69848 535.5 319.42712 C 525.4112 325.82137 504.9152 333.29956 486.92917 340.5158" marker-end="url(#SharpArrow_Marker_3)" stroke="#007928" stroke-linecap="round" stroke-linejoin="round" stroke-width="3"/>
      </g>
      <g id="Graphic_33">
        <path d="M 82.75094 33.235412 L 276.13214 33.235412 C 281.1027 33.235412 285.13214 37.26485 285.13214 42.23541 L 285.13214 288.36 C 285.13214 293.33056 281.1027 297.36 276.13214 297.36 L 82.75094 297.36 C 77.780375 297.36 73.75094 293.33056 73.75094 288.36 L 73.75094 42.23541 C 73.75094 37.26485 77.780375 33.235412 82.75094 33.235412 Z" fill="#00ad99" fill-opacity=".5"/>
        <path d="M 82.75094 33.235412 L 276.13214 33.235412 C 281.1027 33.235412 285.13214 37.26485 285.13214 42.23541 L 285.13214 288.36 C 285.13214 293.33056 281.1027 297.36 276.13214 297.36 L 82.75094 297.36 C 77.780375 297.36 73.75094 293.33056 73.75094 288.36 L 73.75094 42.23541 C 73.75094 37.26485 77.780375 33.235412 82.75094 33.235412 Z" stroke="#007928" stroke-linecap="round" stroke-linejoin="round" stroke-width="3"/>
      </g>
      <g id="Graphic_4">
        <text transform="translate(99.76897 35.98458)" fill="#007928">
          <tspan font-family="Helvetica Neue" font-size="18" fill="#007928" x="24158453e-20" y="17" xml:space="preserve">Modelling approach</tspan>
        </text>
      </g>
      <g id="Graphic_36">
        <text transform="translate(566.81125 36.785137)" fill="#007928">
          <tspan font-family="Helvetica Neue" font-size="18" fill="#007928" x="0" y="17" xml:space="preserve">ANOVA approach</tspan>
        </text>
      </g>
      <g id="Graphic_38">
        <path d="M 114.55141 66.24467 L 245.02453 66.24467 C 260.45764 66.24467 272.98306 78.818265 272.98306 94.31073 C 272.98306 109.8032 260.45764 122.37679 245.02453 122.37679 L 114.55141 122.37679 C 99.11831 122.37679 86.59289 109.8032 86.59289 94.31073 C 86.59289 78.818265 99.11831 66.24467 114.55141 66.24467 Z" fill="#e1cc69"/>
        <path d="M 114.55141 66.24467 L 245.02453 66.24467 C 260.45764 66.24467 272.98306 78.818265 272.98306 94.31073 C 272.98306 109.8032 260.45764 122.37679 245.02453 122.37679 L 114.55141 122.37679 C 99.11831 122.37679 86.59289 109.8032 86.59289 94.31073 C 86.59289 78.818265 99.11831 66.24467 114.55141 66.24467 Z" stroke="#99990f" stroke-linecap="round" stroke-linejoin="round" stroke-width="3"/>
        <text transform="translate(91.59289 78.96265)" fill="#4b3d2a">
          <tspan font-family="Helvetica Neue" font-weight="bold" font-size="12" fill="#4b3d2a" x="11.347084" y="12" xml:space="preserve">Build linear model entering </tspan>
          <tspan font-family="Helvetica Neue" font-weight="bold" font-size="12" fill="#4b3d2a" x="10.969084" y="27.348083" xml:space="preserve">predictors based on theory</tspan>
        </text>
      </g>
      <g id="Graphic_39">
        <path d="M 572.3417 66.24467 L 702.8148 66.24467 C 718.2479 66.24467 730.7733 78.818265 730.7733 94.31073 C 730.7733 109.8032 718.2479 122.37679 702.8148 122.37679 L 572.3417 122.37679 C 556.9086 122.37679 544.38316 109.8032 544.38316 94.31073 C 544.38316 78.818265 556.9086 66.24467 572.3417 66.24467 Z" fill="#e1cc69"/>
        <path d="M 572.3417 66.24467 L 702.8148 66.24467 C 718.2479 66.24467 730.7733 78.818265 730.7733 94.31073 C 730.7733 109.8032 718.2479 122.37679 702.8148 122.37679 L 572.3417 122.37679 C 556.9086 122.37679 544.38316 109.8032 544.38316 94.31073 C 544.38316 78.818265 556.9086 66.24467 572.3417 66.24467 Z" stroke="#99990f" stroke-linecap="round" stroke-linejoin="round" stroke-width="3"/>
        <text transform="translate(549.38316 78.96265)" fill="#4b3d2a">
          <tspan font-family="Helvetica Neue" font-weight="bold" font-size="12" fill="#4b3d2a" x="3.1390836" y="12" xml:space="preserve">Build linear model entering all </tspan>
          <tspan font-family="Helvetica Neue" font-weight="bold" font-size="12" fill="#4b3d2a" x="14.221084" y="27.348083" xml:space="preserve">predictors simultaneously</tspan>
        </text>
      </g>
      <g id="Graphic_42">
        <path d="M 114.20498 153.9603 L 244.6781 153.9603 C 260.1112 153.9603 272.63662 166.53389 272.63662 182.02636 C 272.63662 197.51882 260.1112 210.09242 244.6781 210.09242 L 114.20498 210.09242 C 98.77187 210.09242 86.24645 197.51882 86.24645 182.02636 C 86.24645 166.53389 98.77187 153.9603 114.20498 153.9603 Z" fill="#e1cc69"/>
        <path d="M 114.20498 153.9603 L 244.6781 153.9603 C 260.1112 153.9603 272.63662 166.53389 272.63662 182.02636 C 272.63662 197.51882 260.1112 210.09242 244.6781 210.09242 L 114.20498 210.09242 C 98.77187 210.09242 86.24645 197.51882 86.24645 182.02636 C 86.24645 166.53389 98.77187 153.9603 114.20498 153.9603 Z" stroke="#99990f" stroke-linecap="round" stroke-linejoin="round" stroke-width="3"/>
        <text transform="translate(91.24645 166.67827)" fill="#4b3d2a">
          <tspan font-family="Helvetica Neue" font-weight="bold" font-size="12" fill="#4b3d2a" x="26.335084" y="12" xml:space="preserve">Include interactions if </tspan>
          <tspan font-family="Helvetica Neue" font-weight="bold" font-size="12" fill="#4b3d2a" x="28.423084" y="27.348083" xml:space="preserve">theoretically relevant</tspan>
        </text>
      </g>
      <g id="Line_43">
        <line x1="179.77152" y1="123.8767" x2="179.56987" y2="142.261" marker-end="url(#SharpArrow_Marker)" stroke="#99990f" stroke-linecap="round" stroke-linejoin="round" stroke-width="3"/>
      </g>
      <g id="Line_46">
        <line x1="398.7131" y1="372.04712" x2="398.7131" y2="394.67784" marker-end="url(#SharpArrow_Marker)" stroke="#99990f" stroke-linecap="round" stroke-linejoin="round" stroke-width="3"/>
      </g>
      <g id="Graphic_48">
        <path d="M 263.7583 478.7601 L 353.7083 478.7601 C 364.3481 478.7601 372.9833 486.8241 372.9833 496.7601 C 372.9833 506.6961 364.3481 514.7601 353.7083 514.7601 L 263.7583 514.7601 C 253.1185 514.7601 244.4833 506.6961 244.4833 496.7601 C 244.4833 486.8241 253.1185 478.7601 263.7583 478.7601 Z" fill="#e1cc69"/>
        <path d="M 263.7583 478.7601 L 353.7083 478.7601 C 364.3481 478.7601 372.9833 486.8241 372.9833 496.7601 C 372.9833 506.6961 364.3481 514.7601 353.7083 514.7601 L 263.7583 514.7601 C 253.1185 514.7601 244.4833 506.6961 244.4833 496.7601 C 244.4833 486.8241 253.1185 478.7601 263.7583 478.7601 Z" stroke="#99990f" stroke-linecap="round" stroke-linejoin="round" stroke-width="3"/>
        <text transform="translate(249.4833 489.08604)" fill="#4b3d2a">
          <tspan font-family="Helvetica Neue" font-weight="bold" font-size="12" fill="#4b3d2a" x="1.47" y="12" xml:space="preserve">Specific hypotheses</tspan>
        </text>
      </g>
      <g id="Graphic_49">
        <path d="M 439.1593 478.8336 L 529.1093 478.8336 C 539.7491 478.8336 548.3843 486.8976 548.3843 496.8336 C 548.3843 506.7696 539.7491 514.8336 529.1093 514.8336 L 439.1593 514.8336 C 428.5195 514.8336 419.8843 506.7696 419.8843 496.8336 C 419.8843 486.8976 428.5195 478.8336 439.1593 478.8336 Z" fill="#e1cc69"/>
        <path d="M 439.1593 478.8336 L 529.1093 478.8336 C 539.7491 478.8336 548.3843 486.8976 548.3843 496.8336 C 548.3843 506.7696 539.7491 514.8336 529.1093 514.8336 L 439.1593 514.8336 C 428.5195 514.8336 419.8843 506.7696 419.8843 496.8336 C 419.8843 486.8976 428.5195 478.8336 439.1593 478.8336 Z" stroke="#99990f" stroke-linecap="round" stroke-linejoin="round" stroke-width="3"/>
        <text transform="translate(424.8843 489.1596)" fill="#4b3d2a">
          <tspan font-family="Helvetica Neue" font-weight="bold" font-size="12" fill="#4b3d2a" x="16.464" y="12" xml:space="preserve">No hypotheses</tspan>
        </text>
      </g>
      <g id="Line_50">
        <line x1="398.7131" y1="457.49784" x2="379.3963" y2="486.9742" marker-end="url(#SharpArrow_Marker)" stroke="#99990f" stroke-linecap="round" stroke-linejoin="round" stroke-width="3"/>
      </g>
      <g id="Line_51">
        <path d="M 548.3843 496.8336 L 599.8757 498.569 C 615.859 499.1077 629.1557 511.0293 631.42906 526.8593 L 634.0107 544.8362" marker-end="url(#SharpArrow_Marker)" stroke="#99990f" stroke-linecap="round" stroke-linejoin="round" stroke-width="3"/>
      </g>
      <g id="Line_52">
        <path d="M 307.66517 477.70696 L 289.17498 459.4768 C 282.97736 453.3663 274.61675 449.9516 265.91342 449.97606 L 218.97704 450.1081" marker-end="url(#SharpArrow_Marker)" stroke="#99990f" stroke-linecap="round" stroke-linejoin="round" stroke-width="3"/>
      </g>
      <g id="Line_53">
        <line x1="590.14916" y1="573.9174" x2="482.7447" y2="573.9174" marker-end="url(#SharpArrow_Marker_2)" stroke="#36218e" stroke-linecap="butt" stroke-linejoin="round" stroke-width="3"/>
      </g>
      <g id="Line_54">
        <line x1="207.27708" y1="573.9174" x2="314.68154" y2="573.9174" marker-end="url(#SharpArrow_Marker_2)" stroke="#36218e" stroke-linecap="butt" stroke-linejoin="round" stroke-width="3"/>
      </g>
      <g id="Graphic_65">
        <path d="M 735.9403 414.68784 L 825.8903 414.68784 C 836.5301 414.68784 845.1653 422.75184 845.1653 432.68784 C 845.1653 442.62384 836.5301 450.68784 825.8903 450.68784 L 735.9403 450.68784 C 725.3005 450.68784 716.6653 442.62384 716.6653 432.68784 C 716.6653 422.75184 725.3005 414.68784 735.9403 414.68784 Z" fill="#dc5e76"/>
        <path d="M 735.9403 414.68784 L 825.8903 414.68784 C 836.5301 414.68784 845.1653 422.75184 845.1653 432.68784 C 845.1653 442.62384 836.5301 450.68784 825.8903 450.68784 L 735.9403 450.68784 C 725.3005 450.68784 716.6653 442.62384 716.6653 432.68784 C 716.6653 422.75184 725.3005 414.68784 735.9403 414.68784 Z" stroke="#951256" stroke-linecap="butt" stroke-linejoin="round" stroke-width="3"/>
        <text transform="translate(721.6653 425.0138)" fill="white">
          <tspan font-family="Helvetica Neue" font-weight="bold" font-size="12" fill="white" x="22.71" y="12" xml:space="preserve">No normality</tspan>
        </text>
      </g>
      <g id="Graphic_64">
        <path d="M 891.1088 408.43784 L 992.7466 408.43784 C 997.7172 408.43784 1001.7466 412.46727 1001.7466 417.43784 L 1001.7466 447.93784 C 1001.7466 452.9084 997.7172 456.93784 992.7466 456.93784 L 891.1088 456.93784 C 886.1382 456.93784 882.1088 452.9084 882.1088 447.93784 L 882.1088 417.43784 C 882.1088 412.46727 886.1382 408.43784 891.1088 408.43784 Z" fill="#71cff2"/>
        <path d="M 891.1088 408.43784 L 992.7466 408.43784 C 997.7172 408.43784 1001.7466 412.46727 1001.7466 417.43784 L 1001.7466 447.93784 C 1001.7466 452.9084 997.7172 456.93784 992.7466 456.93784 L 891.1088 456.93784 C 886.1382 456.93784 882.1088 452.9084 882.1088 447.93784 L 882.1088 417.43784 C 882.1088 412.46727 886.1382 408.43784 891.1088 408.43784 Z" stroke="#36218e" stroke-linecap="butt" stroke-linejoin="round" stroke-width="3"/>
        <text transform="translate(887.1088 417.33975)" fill="#36218e">
          <tspan font-family="Helvetica Neue" font-weight="bold" font-size="12" fill="#36218e" x=".27892395" y="12" xml:space="preserve">Robust estimation/</tspan>
          <tspan font-family="Helvetica Neue" font-weight="bold" font-size="12" fill="#36218e" x="15.266924" y="27.348083" xml:space="preserve">Bootstrap CIs</tspan>
        </text>
      </g>
      <g id="Line_63">
        <line x1="845.1653" y1="432.68784" x2="870.4088" y2="432.68784" marker-end="url(#SharpArrow_Marker_4)" stroke="#951256" stroke-linecap="butt" stroke-linejoin="round" stroke-width="3"/>
      </g>
      <g id="Graphic_62">
        <path d="M 735.9403 360.93784 L 825.8903 360.93784 C 836.5301 360.93784 845.1653 369.00184 845.1653 378.93784 C 845.1653 388.87384 836.5301 396.93784 825.8903 396.93784 L 735.9403 396.93784 C 725.3005 396.93784 716.6653 388.87384 716.6653 378.93784 C 716.6653 369.00184 725.3005 360.93784 735.9403 360.93784 Z" fill="#dc5e76"/>
        <path d="M 735.9403 360.93784 L 825.8903 360.93784 C 836.5301 360.93784 845.1653 369.00184 845.1653 378.93784 C 845.1653 388.87384 836.5301 396.93784 825.8903 396.93784 L 735.9403 396.93784 C 725.3005 396.93784 716.6653 388.87384 716.6653 378.93784 C 716.6653 369.00184 725.3005 360.93784 735.9403 360.93784 Z" stroke="#951256" stroke-linecap="butt" stroke-linejoin="round" stroke-width="3"/>
        <text transform="translate(721.6653 371.2638)" fill="white">
          <tspan font-family="Helvetica Neue" font-weight="bold" font-size="12" fill="white" x="5.592" y="12" xml:space="preserve">Heteroscedasticity</tspan>
        </text>
      </g>
      <g id="Graphic_61">
        <path d="M 891.1088 358.68784 L 992.7466 358.68784 C 997.7172 358.68784 1001.7466 362.71727 1001.7466 367.68784 L 1001.7466 390.18784 C 1001.7466 395.1584 997.7172 399.18784 992.7466 399.18784 L 891.1088 399.18784 C 886.1382 399.18784 882.1088 395.1584 882.1088 390.18784 L 882.1088 367.68784 C 882.1088 362.71727 886.1382 358.68784 891.1088 358.68784 Z" fill="#71cff2"/>
        <path d="M 891.1088 358.68784 L 992.7466 358.68784 C 997.7172 358.68784 1001.7466 362.71727 1001.7466 367.68784 L 1001.7466 390.18784 C 1001.7466 395.1584 997.7172 399.18784 992.7466 399.18784 L 891.1088 399.18784 C 886.1382 399.18784 882.1088 395.1584 882.1088 390.18784 L 882.1088 367.68784 C 882.1088 362.71727 886.1382 358.68784 891.1088 358.68784 Z" stroke="#36218e" stroke-linecap="butt" stroke-linejoin="round" stroke-width="3"/>
        <text transform="translate(887.1088 363.58975)" fill="#36218e">
          <tspan font-family="Helvetica Neue" font-weight="bold" font-size="12" fill="#36218e" x=".914924" y="12" xml:space="preserve">Robust SEs/robust </tspan>
          <tspan font-family="Helvetica Neue" font-weight="bold" font-size="12" fill="#36218e" x="24.728924" y="27.348083" xml:space="preserve">estimation</tspan>
        </text>
      </g>
      <g id="Line_60">
        <line x1="845.1653" y1="378.93784" x2="870.4088" y2="378.93784" marker-end="url(#SharpArrow_Marker_4)" stroke="#951256" stroke-linecap="butt" stroke-linejoin="round" stroke-width="3"/>
      </g>
      <g id="Line_59">
        <line x1="846.0149" y1="380.174" x2="875.4816" y2="423.04574" marker-end="url(#SharpArrow_Marker_4)" stroke="#951256" stroke-linecap="butt" stroke-linejoin="round" stroke-width="3"/>
      </g>
      <g id="Graphic_58">
        <path d="M 735.9403 470.43784 L 825.8903 470.43784 C 836.5301 470.43784 845.1653 478.50184 845.1653 488.43784 C 845.1653 498.37384 836.5301 506.43784 825.8903 506.43784 L 735.9403 506.43784 C 725.3005 506.43784 716.6653 498.37384 716.6653 488.43784 C 716.6653 478.50184 725.3005 470.43784 735.9403 470.43784 Z" fill="#dc5e76"/>
        <path d="M 735.9403 470.43784 L 825.8903 470.43784 C 836.5301 470.43784 845.1653 478.50184 845.1653 488.43784 C 845.1653 498.37384 836.5301 506.43784 825.8903 506.43784 L 735.9403 506.43784 C 725.3005 506.43784 716.6653 498.37384 716.6653 488.43784 C 716.6653 478.50184 725.3005 470.43784 735.9403 470.43784 Z" stroke="#951256" stroke-linecap="butt" stroke-linejoin="round" stroke-width="3"/>
        <text transform="translate(721.6653 473.08975)" fill="white">
          <tspan font-family="Helvetica Neue" font-weight="bold" font-size="12" fill="white" x="38.028" y="12" xml:space="preserve">Lack of </tspan>
          <tspan font-family="Helvetica Neue" font-weight="bold" font-size="12" fill="white" x="18.81" y="27.348083" xml:space="preserve">independence</tspan>
        </text>
      </g>
      <g id="Graphic_57">
        <path d="M 891.1088 471.43784 L 992.7466 471.43784 C 997.7172 471.43784 1001.7466 475.4673 1001.7466 480.43784 L 1001.7466 497.43784 C 1001.7466 502.4084 997.7172 506.43784 992.7466 506.43784 L 891.1088 506.43784 C 886.1382 506.43784 882.1088 502.4084 882.1088 497.43784 L 882.1088 480.43784 C 882.1088 475.4673 886.1382 471.43784 891.1088 471.43784 Z" fill="#71cff2"/>
        <path d="M 891.1088 471.43784 L 992.7466 471.43784 C 997.7172 471.43784 1001.7466 475.4673 1001.7466 480.43784 L 1001.7466 497.43784 C 1001.7466 502.4084 997.7172 506.43784 992.7466 506.43784 L 891.1088 506.43784 C 886.1382 506.43784 882.1088 502.4084 882.1088 497.43784 L 882.1088 480.43784 C 882.1088 475.4673 886.1382 471.43784 891.1088 471.43784 Z" stroke="#36218e" stroke-linecap="butt" stroke-linejoin="round" stroke-width="3"/>
        <text transform="translate(887.1088 473.58975)" fill="#36218e">
          <tspan font-family="Helvetica Neue" font-weight="bold" font-size="12" fill="#36218e" x="9.620924" y="12" xml:space="preserve">Use a multilevel </tspan>
          <tspan font-family="Helvetica Neue" font-weight="bold" font-size="12" fill="#36218e" x=".49492395" y="27.348083" xml:space="preserve">model (Chapter 21)</tspan>
        </text>
      </g>
      <g id="Line_56">
        <line x1="845.1653" y1="488.43784" x2="870.4098" y2="488.7795" marker-end="url(#SharpArrow_Marker_4)" stroke="#951256" stroke-linecap="butt" stroke-linejoin="round" stroke-width="3"/>
      </g>
      <g id="Line_55">
        <line x1="845.1653" y1="432.68784" x2="875.6859" y2="479.1584" marker-end="url(#SharpArrow_Marker_4)" stroke="#951256" stroke-linecap="butt" stroke-linejoin="round" stroke-width="3"/>
      </g>
      <g id="Line_66">
        <line x1="516.5396" y1="431.93784" x2="487.8141" y2="431.93784" marker-end="url(#SharpArrow_Marker)" stroke="#99990f" stroke-linecap="round" stroke-linejoin="round" stroke-width="3"/>
      </g>
      <g id="Line_67">
        <line x1="645.0396" y1="431.93784" x2="707.2602" y2="385.89724" marker-end="url(#SharpArrow_Marker)" stroke="#99990f" stroke-linecap="round" stroke-linejoin="round" stroke-width="3"/>
      </g>
      <g id="Line_68">
        <line x1="645.0396" y1="431.93784" x2="704.9659" y2="432.56533" marker-end="url(#SharpArrow_Marker)" stroke="#99990f" stroke-linecap="round" stroke-linejoin="round" stroke-width="3"/>
      </g>
      <g id="Line_69">
        <line x1="645.0396" y1="431.93784" x2="707.4793" y2="481.1917" marker-end="url(#SharpArrow_Marker)" stroke="#99990f" stroke-linecap="round" stroke-linejoin="round" stroke-width="3"/>
      </g>
      <g id="Graphic_73">
        <path d="M 114.20498 223.66851 L 244.6781 223.66851 C 260.1112 223.66851 272.63662 238.42958 272.63662 256.61732 C 272.63662 274.80506 260.1112 289.56613 244.6781 289.56613 L 114.20498 289.56613 C 98.77187 289.56613 86.24645 274.80506 86.24645 256.61732 C 86.24645 238.42958 98.77187 223.66851 114.20498 223.66851 Z" fill="#e1cc69"/>
        <path d="M 114.20498 223.66851 L 244.6781 223.66851 C 260.1112 223.66851 272.63662 238.42958 272.63662 256.61732 C 272.63662 274.80506 260.1112 289.56613 244.6781 289.56613 L 114.20498 289.56613 C 98.77187 289.56613 86.24645 274.80506 86.24645 256.61732 C 86.24645 238.42958 98.77187 223.66851 114.20498 223.66851 Z" stroke="#99990f" stroke-linecap="round" stroke-linejoin="round" stroke-width="3"/>
        <text transform="translate(91.24645 233.5952)" fill="#4b3d2a">
          <tspan font-family="Helvetica Neue" font-weight="bold" font-size="12" fill="#4b3d2a" x="28.651084" y="12" xml:space="preserve">Test model fit, where </tspan>
          <tspan font-family="Helvetica Neue" font-weight="bold" font-size="12" fill="#4b3d2a" x="5.3170836" y="27.348083" xml:space="preserve">theoretically relevant, with </tspan>
          <tspan font-family="Helvetica Neue" font-style="italic" font-weight="bold" font-size="12" fill="#4b3d2a" y="27.348083" xml:space="preserve">F</tspan>
          <tspan font-family="Helvetica Neue" font-weight="bold" font-size="12" fill="#4b3d2a" y="27.348083" xml:space="preserve">-</tspan>
          <tspan font-family="Helvetica Neue" font-weight="bold" font-size="12" fill="#4b3d2a" x="17.203084" y="42.696167" xml:space="preserve">statistics using Type I SS</tspan>
        </text>
      </g>
      <g id="Line_74">
        <line x1="272.63662" y1="182.02636" x2="317.33956" y2="218.73563" marker-end="url(#SharpArrow_Marker)" stroke="#99990f" stroke-linecap="round" stroke-linejoin="round" stroke-width="3"/>
      </g>
      <g id="Line_75">
        <line x1="326.38154" y1="226.16075" x2="282.8158" y2="250.84892" marker-end="url(#SharpArrow_Marker)" stroke="#99990f" stroke-linecap="round" stroke-linejoin="round" stroke-width="3"/>
      </g>
      <g id="Line_76">
        <line x1="471.0447" y1="226.16075" x2="533.5779" y2="252.13002" marker-end="url(#SharpArrow_Marker)" stroke="#99990f" stroke-linecap="round" stroke-linejoin="round" stroke-width="3"/>
      </g>
      <g id="Graphic_77">
        <path d="M 572.3417 153.9603 L 702.8148 153.9603 C 718.2479 153.9603 730.7733 166.53389 730.7733 182.02636 C 730.7733 197.51882 718.2479 210.09242 702.8148 210.09242 L 572.3417 210.09242 C 556.9086 210.09242 544.38316 197.51882 544.38316 182.02636 C 544.38316 166.53389 556.9086 153.9603 572.3417 153.9603 Z" fill="#e1cc69"/>
        <path d="M 572.3417 153.9603 L 702.8148 153.9603 C 718.2479 153.9603 730.7733 166.53389 730.7733 182.02636 C 730.7733 197.51882 718.2479 210.09242 702.8148 210.09242 L 572.3417 210.09242 C 556.9086 210.09242 544.38316 197.51882 544.38316 182.02636 C 544.38316 166.53389 556.9086 153.9603 572.3417 153.9603 Z" stroke="#99990f" stroke-linecap="round" stroke-linejoin="round" stroke-width="3"/>
        <text transform="translate(549.38316 174.35231)" fill="#4b3d2a">
          <tspan font-family="Helvetica Neue" font-weight="bold" font-size="12" fill="#4b3d2a" x="23.341084" y="12" xml:space="preserve">Include all interactions</tspan>
        </text>
      </g>
      <g id="Line_78">
        <line x1="637.57825" y1="123.87679" x2="637.57825" y2="142.2603" marker-end="url(#SharpArrow_Marker)" stroke="#99990f" stroke-linecap="round" stroke-linejoin="round" stroke-width="3"/>
      </g>
      <g id="Graphic_79">
        <path d="M 125.22763 540.9686 L 198.27708 540.9686 C 203.24765 540.9686 207.27708 544.998 207.27708 549.9686 L 207.27708 597.8662 C 207.27708 602.83675 203.24765 606.8662 198.27708 606.8662 L 125.22763 606.8662 C 120.25707 606.8662 116.22763 602.83675 116.22763 597.8662 L 116.22763 549.9686 C 116.22763 544.998 120.25707 540.9686 125.22763 540.9686 Z" fill="#71cff2"/>
        <path d="M 125.22763 540.9686 L 198.27708 540.9686 C 203.24765 540.9686 207.27708 544.998 207.27708 549.9686 L 207.27708 597.8662 C 207.27708 602.83675 203.24765 606.8662 198.27708 606.8662 L 125.22763 606.8662 C 120.25707 606.8662 116.22763 602.83675 116.22763 597.8662 L 116.22763 549.9686 C 116.22763 544.998 120.25707 540.9686 125.22763 540.9686 Z" stroke="#36218e" stroke-linecap="butt" stroke-linejoin="round" stroke-width="3"/>
        <text transform="translate(121.22763 550.89526)" fill="#36218e">
          <tspan font-family="Helvetica Neue" font-weight="bold" font-size="12" fill="#36218e" x="20.988727" y="12" xml:space="preserve">Simple </tspan>
          <tspan font-family="Helvetica Neue" font-weight="bold" font-size="12" fill="#36218e" x="11.376727" y="27.348083" xml:space="preserve">effects for </tspan>
          <tspan font-family="Helvetica Neue" font-weight="bold" font-size="12" fill="#36218e" x="6.534727" y="42.696167" xml:space="preserve">interactions</tspan>
        </text>
      </g>
      <g id="Line_80">
        <line x1="161.75236" y1="495.4042" x2="161.75236" y2="529.2686" marker-end="url(#SharpArrow_Marker_2)" stroke="#36218e" stroke-linecap="butt" stroke-linejoin="round" stroke-width="3"/>
      </g>
      <g id="Graphic_81">
        <path d="M 788.779 228.55126 L 936.2491 228.55126 C 941.2196 228.55126 945.2491 232.5807 945.2491 237.55126 L 945.2491 275.6834 C 945.2491 280.65395 941.2196 284.6834 936.2491 284.6834 L 788.779 284.6834 C 783.8084 284.6834 779.779 280.65395 779.779 275.6834 L 779.779 237.55126 C 779.779 232.5807 783.8084 228.55126 788.779 228.55126 Z" fill="#71cff2"/>
        <path d="M 788.779 228.55126 L 936.2491 228.55126 C 941.2196 228.55126 945.2491 232.5807 945.2491 237.55126 L 945.2491 275.6834 C 945.2491 280.65395 941.2196 284.6834 936.2491 284.6834 L 788.779 284.6834 C 783.8084 284.6834 779.779 280.65395 779.779 275.6834 L 779.779 237.55126 C 779.779 232.5807 783.8084 228.55126 788.779 228.55126 Z" stroke="#36218e" stroke-linecap="butt" stroke-linejoin="round" stroke-width="3"/>
        <text transform="translate(784.779 241.26924)" fill="#36218e">
          <tspan font-family="Helvetica Neue" font-weight="bold" font-size="12" fill="#36218e" x="6.617046" y="12" xml:space="preserve">Set orthogonal contrasts </tspan>
          <tspan font-family="Helvetica Neue" font-weight="bold" font-size="12" fill="#36218e" x="38.741046" y="27.348083" xml:space="preserve">for predictors</tspan>
        </text>
      </g>
      <g id="Line_82">
        <line x1="730.7733" y1="256.61732" x2="768.079" y2="256.61732" marker-end="url(#SharpArrow_Marker_2)" stroke="#36218e" stroke-linecap="butt" stroke-linejoin="round" stroke-width="3"/>
      </g>
    </g>
  </g>
</svg>
