<?xml version="1.0" encoding="UTF-8" standalone="no"?>
<!DOCTYPE svg PUBLIC "-//W3C//DTD SVG 1.1//EN" "http://www.w3.org/Graphics/SVG/1.1/DTD/svg11.dtd">
<svg xmlns:xl="http://www.w3.org/1999/xlink" xmlns="http://www.w3.org/2000/svg" xmlns:dc="http://purl.org/dc/elements/1.1/" version="1.1" viewBox="105.03287 31.735412 898.2138 561.682" width="898.2138" height="561.682">
  <defs>
    <marker orient="auto" overflow="visible" markerUnits="strokeWidth" id="SharpArrow_Marker" stroke-linejoin="miter" stroke-miterlimit="10" viewBox="-3 -3 7 6" markerWidth="7" markerHeight="6" color="#99990f">
      <g>
        <path d="M 2.3333333 0 L -1.4 -1.4 L 0 0 L 0 0 L -1.4 1.4 Z" fill="currentColor" stroke="currentColor" stroke-width="1"/>
      </g>
    </marker>
    <marker orient="auto" overflow="visible" markerUnits="strokeWidth" id="SharpArrow_Marker_2" stroke-linejoin="miter" stroke-miterlimit="10" viewBox="-3 -3 7 6" markerWidth="7" markerHeight="6" color="#36218e">
      <g>
        <path d="M 2.3333333 0 L -1.4 -1.4 L 0 0 L 0 0 L -1.4 1.4 Z" fill="currentColor" stroke="currentColor" stroke-width="1"/>
      </g>
    </marker>
    <marker orient="auto" overflow="visible" markerUnits="strokeWidth" id="SharpArrow_Marker_3" stroke-linejoin="miter" stroke-miterlimit="10" viewBox="-3 -3 7 6" markerWidth="7" markerHeight="6" color="#007928">
      <g>
        <path d="M 2.3333333 0 L -1.4 -1.4 L 0 0 L 0 0 L -1.4 1.4 Z" fill="currentColor" stroke="currentColor" stroke-width="1"/>
      </g>
    </marker>
    <marker orient="auto" overflow="visible" markerUnits="strokeWidth" id="SharpArrow_Marker_4" stroke-linejoin="miter" stroke-miterlimit="10" viewBox="-3 -3 7 6" markerWidth="7" markerHeight="6" color="#951256">
      <g>
        <path d="M 2.3333333 0 L -1.4 -1.4 L 0 0 L 0 0 L -1.4 1.4 Z" fill="currentColor" stroke="currentColor" stroke-width="1"/>
      </g>
    </marker>
  </defs>
  <g id="Canvas_1" fill-opacity="1" stroke-dasharray="none" stroke="none" stroke-opacity="1" fill="none">
    <title>Canvas 1</title>
    <g id="Canvas_1_Layer_1">
      <title>Layer 1</title>
      <g id="Graphic_37">
        <path d="M 503.99465 33.235412 L 868.2884 33.235412 C 873.2589 33.235412 877.2884 37.26485 877.2884 42.23541 L 877.2884 198.2635 C 877.2884 203.23406 873.2589 207.2635 868.2884 207.2635 L 503.99465 207.2635 C 499.0241 207.2635 494.99465 203.23406 494.99465 198.2635 L 494.99465 42.23541 C 494.99465 37.26485 499.0241 33.235412 503.99465 33.235412 Z" fill="#00ad99" fill-opacity=".5"/>
        <path d="M 503.99465 33.235412 L 868.2884 33.235412 C 873.2589 33.235412 877.2884 37.26485 877.2884 42.23541 L 877.2884 198.2635 C 877.2884 203.23406 873.2589 207.2635 868.2884 207.2635 L 503.99465 207.2635 C 499.0241 207.2635 494.99465 203.23406 494.99465 198.2635 L 494.99465 42.23541 C 494.99465 37.26485 499.0241 33.235412 503.99465 33.235412 Z" stroke="#007928" stroke-linecap="round" stroke-linejoin="round" stroke-width="3"/>
      </g>
      <g id="Graphic_32">
        <path d="M 348.081 555.9174 L 449.3452 555.9174 C 461.32333 555.9174 471.0447 563.9814 471.0447 573.9174 C 471.0447 583.8534 461.32333 591.9174 449.3452 591.9174 L 348.081 591.9174 C 336.1029 591.9174 326.38154 583.8534 326.38154 573.9174 C 326.38154 563.9814 336.1029 555.9174 348.081 555.9174 Z" fill="#e1cc69"/>
        <path d="M 348.081 555.9174 L 449.3452 555.9174 C 461.32333 555.9174 471.0447 563.9814 471.0447 573.9174 C 471.0447 583.8534 461.32333 591.9174 449.3452 591.9174 L 348.081 591.9174 C 336.1029 591.9174 326.38154 583.8534 326.38154 573.9174 C 326.38154 563.9814 336.1029 555.9174 348.081 555.9174 Z" stroke="#99990f" stroke-linecap="round" stroke-linejoin="round" stroke-width="3"/>
        <text transform="translate(331.38154 566.24334)" fill="#4b3d2a">
          <tspan font-family="Helvetica Neue" font-weight="bold" font-size="12" fill="#4b3d2a" x="34.409573" y="12" xml:space="preserve">Effect sizes</tspan>
        </text>
      </g>
      <g id="Graphic_31">
        <path d="M 532.90115 319.42712 L 626.90115 319.42712 C 631.8717 319.42712 635.90115 323.45656 635.90115 328.42712 L 635.90115 345.42712 C 635.90115 350.3977 631.8717 354.42712 626.90115 354.42712 L 532.90115 354.42712 C 527.9306 354.42712 523.90115 350.3977 523.90115 345.42712 L 523.90115 328.42712 C 523.90115 323.45656 527.9306 319.42712 532.90115 319.42712 Z" fill="#71cff2"/>
        <path d="M 532.90115 319.42712 L 626.90115 319.42712 C 631.8717 319.42712 635.90115 323.45656 635.90115 328.42712 L 635.90115 345.42712 C 635.90115 350.3977 631.8717 354.42712 626.90115 354.42712 L 532.90115 354.42712 C 527.9306 354.42712 523.90115 350.3977 523.90115 345.42712 L 523.90115 328.42712 C 523.90115 323.45656 527.9306 319.42712 532.90115 319.42712 Z" stroke="#36218e" stroke-linecap="butt" stroke-linejoin="round" stroke-width="3"/>
        <text transform="translate(528.90115 329.2531)" fill="#36218e">
          <tspan font-family="Helvetica Neue" font-weight="bold" font-size="12" fill="#36218e" x="10.356" y="12" xml:space="preserve">Residual plots</tspan>
        </text>
      </g>
      <g id="Line_30">
        <line x1="476.1141" y1="336.92712" x2="512.20115" y2="336.92712" marker-end="url(#SharpArrow_Marker)" stroke="#99990f" stroke-linecap="round" stroke-linejoin="round" stroke-width="3"/>
      </g>
      <g id="Graphic_29">
        <path d="M 348.081 238.2013 L 449.3452 238.2013 C 461.32333 238.2013 471.0447 246.2653 471.0447 256.2013 C 471.0447 266.1373 461.32333 274.2013 449.3452 274.2013 L 348.081 274.2013 C 336.1029 274.2013 326.38154 266.1373 326.38154 256.2013 C 326.38154 246.2653 336.1029 238.2013 348.081 238.2013 Z" fill="#e1cc69"/>
        <path d="M 348.081 238.2013 L 449.3452 238.2013 C 461.32333 238.2013 471.0447 246.2653 471.0447 256.2013 C 471.0447 266.1373 461.32333 274.2013 449.3452 274.2013 L 348.081 274.2013 C 336.1029 274.2013 326.38154 266.1373 326.38154 256.2013 C 326.38154 246.2653 336.1029 238.2013 348.081 238.2013 Z" stroke="#99990f" stroke-linecap="round" stroke-linejoin="round" stroke-width="3"/>
        <text transform="translate(331.38154 248.52725)" fill="#4b3d2a">
          <tspan font-family="Helvetica Neue" font-weight="bold" font-size="12" fill="#4b3d2a" x="23.141573" y="12" xml:space="preserve">Fit linear model</tspan>
        </text>
      </g>
      <g id="Line_28">
        <line x1="579.90115" y1="354.42712" x2="579.90115" y2="402.23784" marker-end="url(#SharpArrow_Marker_2)" stroke="#36218e" stroke-linecap="butt" stroke-linejoin="round" stroke-width="3"/>
      </g>
      <g id="Graphic_27">
        <path d="M 344.5324 311.36712 L 452.8938 311.36712 C 465.7114 311.36712 476.1141 322.818 476.1141 336.92712 C 476.1141 351.03624 465.7114 362.48712 452.8938 362.48712 L 344.5324 362.48712 C 331.7148 362.48712 321.3121 351.03624 321.3121 336.92712 C 321.3121 322.818 331.7148 311.36712 344.5324 311.36712 Z" fill="#e1cc69"/>
        <path d="M 344.5324 311.36712 L 452.8938 311.36712 C 465.7114 311.36712 476.1141 322.818 476.1141 336.92712 C 476.1141 351.03624 465.7114 362.48712 452.8938 362.48712 L 344.5324 362.48712 C 331.7148 362.48712 321.3121 351.03624 321.3121 336.92712 C 321.3121 322.818 331.7148 311.36712 344.5324 311.36712 Z" stroke="#99990f" stroke-linecap="round" stroke-linejoin="round" stroke-width="3"/>
        <text transform="translate(326.3121 321.57904)" fill="#4b3d2a">
          <tspan font-family="Helvetica Neue" font-weight="bold" font-size="12" fill="#4b3d2a" x="19.631" y="12" xml:space="preserve">Check for outliers, </tspan>
          <tspan font-family="Helvetica Neue" font-weight="bold" font-size="12" fill="#4b3d2a" x="5.537001" y="27.348083" xml:space="preserve">normality, homogeneity </tspan>
        </text>
      </g>
      <g id="Line_25">
        <line x1="717.6293" y1="162.97987" x2="666.3537" y2="162.97987" marker-end="url(#SharpArrow_Marker)" stroke="#99990f" stroke-linecap="round" stroke-linejoin="round" stroke-width="3"/>
      </g>
      <g id="Graphic_24">
        <path d="M 534.92615 413.93784 L 624.87615 413.93784 C 635.51595 413.93784 644.15115 422.00184 644.15115 431.93784 C 644.15115 441.87384 635.51595 449.93784 624.87615 449.93784 L 534.92615 449.93784 C 524.28635 449.93784 515.65115 441.87384 515.65115 431.93784 C 515.65115 422.00184 524.28635 413.93784 534.92615 413.93784 Z" fill="#e1cc69"/>
        <path d="M 534.92615 413.93784 L 624.87615 413.93784 C 635.51595 413.93784 644.15115 422.00184 644.15115 431.93784 C 644.15115 441.87384 635.51595 449.93784 624.87615 449.93784 L 534.92615 449.93784 C 524.28635 449.93784 515.65115 441.87384 515.65115 431.93784 C 515.65115 422.00184 524.28635 413.93784 534.92615 413.93784 Z" stroke="#99990f" stroke-linecap="round" stroke-linejoin="round" stroke-width="3"/>
        <text transform="translate(520.65115 424.2638)" fill="#4b3d2a">
          <tspan font-family="Helvetica Neue" font-weight="bold" font-size="12" fill="#4b3d2a" x="9.036" y="12" xml:space="preserve">Correct problems</tspan>
        </text>
      </g>
      <g id="Graphic_22">
        <path d="M 702.7801 239.24883 L 875.3704 239.24883 C 880.341 239.24883 884.3704 243.27827 884.3704 248.24883 L 884.3704 306.36 C 884.3704 311.33056 880.341 315.36 875.3704 315.36 L 702.7801 315.36 C 697.8095 315.36 693.7801 311.33056 693.7801 306.36 L 693.7801 248.24883 C 693.7801 243.27827 697.8095 239.24883 702.7801 239.24883 Z" fill="#71cff2"/>
        <path d="M 702.7801 239.24883 L 875.3704 239.24883 C 880.341 239.24883 884.3704 243.27827 884.3704 248.24883 L 884.3704 306.36 C 884.3704 311.33056 880.341 315.36 875.3704 315.36 L 702.7801 315.36 C 697.8095 315.36 693.7801 311.33056 693.7801 306.36 L 693.7801 248.24883 C 693.7801 243.27827 697.8095 239.24883 702.7801 239.24883 Z" stroke="#36218e" stroke-linecap="butt" stroke-linejoin="round" stroke-width="3"/>
        <text transform="translate(698.7801 246.60824)" fill="#36218e">
          <tspan font-family="Helvetica Neue" font-weight="bold" font-size="12" fill="#36218e" x="4.399151" y="12" xml:space="preserve">If not independent you are not </tspan>
          <tspan font-family="Helvetica Neue" font-weight="bold" font-size="12" fill="#36218e" x="9.625151" y="27.348083" xml:space="preserve">reducing error to get a more </tspan>
          <tspan font-family="Helvetica Neue" font-weight="bold" font-size="12" fill="#36218e" x="20.52115" y="42.696167" xml:space="preserve">sensitive measure of the </tspan>
          <tspan font-family="Helvetica Neue" font-weight="bold" font-size="12" fill="#36218e" x="36.52315" y="58.04425" xml:space="preserve">treatment variable.</tspan>
        </text>
      </g>
      <g id="Line_21">
        <line x1="790.1293" y1="188.53987" x2="789.3184" y2="227.55136" marker-end="url(#SharpArrow_Marker_2)" stroke="#36218e" stroke-linecap="butt" stroke-linejoin="round" stroke-width="3"/>
      </g>
      <g id="Graphic_20">
        <path d="M 344.5324 406.37784 L 452.8938 406.37784 C 465.7114 406.37784 476.1141 417.8287 476.1141 431.93784 C 476.1141 446.04696 465.7114 457.49784 452.8938 457.49784 L 344.5324 457.49784 C 331.7148 457.49784 321.3121 446.04696 321.3121 431.93784 C 321.3121 417.8287 331.7148 406.37784 344.5324 406.37784 Z" fill="#e1cc69"/>
        <path d="M 344.5324 406.37784 L 452.8938 406.37784 C 465.7114 406.37784 476.1141 417.8287 476.1141 431.93784 C 476.1141 446.04696 465.7114 457.49784 452.8938 457.49784 L 344.5324 457.49784 C 331.7148 457.49784 321.3121 446.04696 321.3121 431.93784 C 321.3121 417.8287 331.7148 406.37784 344.5324 406.37784 Z" stroke="#99990f" stroke-linecap="round" stroke-linejoin="round" stroke-width="3"/>
        <text transform="translate(326.3121 416.58975)" fill="#4b3d2a">
          <tspan font-family="Helvetica Neue" font-weight="bold" font-size="12" fill="#4b3d2a" x=".983001" y="12" xml:space="preserve">Model-based predictions </tspan>
          <tspan font-family="Helvetica Neue" font-weight="bold" font-size="12" fill="#4b3d2a" x="26.093" y="27.348083" xml:space="preserve">(follow-up tests)</tspan>
        </text>
      </g>
      <g id="Graphic_17">
        <path d="M 125.22763 452.9969 L 198.27708 452.9969 C 203.24765 452.9969 207.27708 457.02634 207.27708 461.9969 L 207.27708 531.52326 C 207.27708 536.4938 203.24765 540.52326 198.27708 540.52326 L 125.22763 540.52326 C 120.25707 540.52326 116.22763 536.4938 116.22763 531.52326 L 116.22763 461.9969 C 116.22763 457.02634 120.25707 452.9969 125.22763 452.9969 Z" fill="#71cff2"/>
        <path d="M 125.22763 452.9969 L 198.27708 452.9969 C 203.24765 452.9969 207.27708 457.02634 207.27708 461.9969 L 207.27708 531.52326 C 207.27708 536.4938 203.24765 540.52326 198.27708 540.52326 L 125.22763 540.52326 C 120.25707 540.52326 116.22763 536.4938 116.22763 531.52326 L 116.22763 461.9969 C 116.22763 457.02634 120.25707 452.9969 125.22763 452.9969 Z" stroke="#36218e" stroke-linecap="butt" stroke-linejoin="round" stroke-width="3"/>
        <text transform="translate(121.22763 458.3899)" fill="#36218e">
          <tspan font-family="Helvetica Neue" font-weight="bold" font-size="12" fill="#36218e" x="10.530727" y="12" xml:space="preserve">Parameter </tspan>
          <tspan font-family="Helvetica Neue" font-weight="bold" font-size="12" fill="#36218e" x="12.540727" y="27.348083" xml:space="preserve">estimates </tspan>
          <tspan font-family="Helvetica Neue" font-weight="bold" font-size="12" fill="#36218e" x="14.190727" y="42.696167" xml:space="preserve">based on </tspan>
          <tspan font-family="Helvetica Neue" font-weight="bold" font-size="12" fill="#36218e" x="17.640727" y="58.04425" xml:space="preserve">planned </tspan>
          <tspan font-family="Helvetica Neue" font-weight="bold" font-size="12" fill="#36218e" x="13.410727" y="73.39233" xml:space="preserve">contrasts</tspan>
        </text>
      </g>
      <g id="Graphic_16">
        <path d="M 596.0001 479.8336 L 669.0495 479.8336 C 674.0201 479.8336 678.0495 483.86307 678.0495 488.8336 L 678.0495 505.8336 C 678.0495 510.8042 674.0201 514.8336 669.0495 514.8336 L 596.0001 514.8336 C 591.0295 514.8336 587.0001 510.8042 587.0001 505.8336 L 587.0001 488.8336 C 587.0001 483.86307 591.0295 479.8336 596.0001 479.8336 Z" fill="#71cff2"/>
        <path d="M 596.0001 479.8336 L 669.0495 479.8336 C 674.0201 479.8336 678.0495 483.86307 678.0495 488.8336 L 678.0495 505.8336 C 678.0495 510.8042 674.0201 514.8336 669.0495 514.8336 L 596.0001 514.8336 C 591.0295 514.8336 587.0001 510.8042 587.0001 505.8336 L 587.0001 488.8336 C 587.0001 483.86307 591.0295 479.8336 596.0001 479.8336 Z" stroke="#36218e" stroke-linecap="butt" stroke-linejoin="round" stroke-width="3"/>
        <text transform="translate(592.0001 481.98554)" fill="#36218e">
          <tspan font-family="Helvetica Neue" font-style="italic" font-weight="bold" font-size="12" fill="#36218e" x="15.402727" y="12" xml:space="preserve">Post hoc </tspan>
          <tspan font-family="Helvetica Neue" font-weight="bold" font-size="12" fill="#36218e" x="26.412727" y="27.348083" xml:space="preserve">tests</tspan>
        </text>
      </g>
      <g id="Graphic_11">
        <path d="M 739.3793 137.41987 L 840.8793 137.41987 C 852.8853 137.41987 862.6293 148.87075 862.6293 162.97987 C 862.6293 177.08899 852.8853 188.53987 840.8793 188.53987 L 739.3793 188.53987 C 727.3733 188.53987 717.6293 177.08899 717.6293 162.97987 C 717.6293 148.87075 727.3733 137.41987 739.3793 137.41987 Z" fill="#e1cc69"/>
        <path d="M 739.3793 137.41987 L 840.8793 137.41987 C 852.8853 137.41987 862.6293 148.87075 862.6293 162.97987 C 862.6293 177.08899 852.8853 188.53987 840.8793 188.53987 L 739.3793 188.53987 C 727.3733 188.53987 717.6293 177.08899 717.6293 162.97987 C 717.6293 148.87075 727.3733 137.41987 739.3793 137.41987 Z" stroke="#99990f" stroke-linecap="round" stroke-linejoin="round" stroke-width="3"/>
        <text transform="translate(722.6293 139.95774)" fill="#4b3d2a">
          <tspan font-family="Helvetica Neue" font-weight="bold" font-size="12" fill="#4b3d2a" x="7.056" y="12" xml:space="preserve">Check independence </tspan>
          <tspan font-family="Helvetica Neue" font-weight="bold" font-size="12" fill="#4b3d2a" x="8.064" y="27.348083" xml:space="preserve">of treatment variable </tspan>
          <tspan font-family="Helvetica Neue" font-weight="bold" font-size="12" fill="#4b3d2a" x="28.608" y="42.696167" xml:space="preserve">and covariate</tspan>
        </text>
      </g>
      <g id="Line_10">
        <line x1="398.7131" y1="274.2013" x2="398.7131" y2="299.66712" marker-end="url(#SharpArrow_Marker)" stroke="#99990f" stroke-linecap="round" stroke-linejoin="round" stroke-width="3"/>
      </g>
      <g id="Graphic_9">
        <path d="M 531.4037 137.41987 L 632.9037 137.41987 C 644.9097 137.41987 654.6537 148.87075 654.6537 162.97987 C 654.6537 177.08899 644.9097 188.53987 632.9037 188.53987 L 531.4037 188.53987 C 519.3977 188.53987 509.6537 177.08899 509.6537 162.97987 C 509.6537 148.87075 519.3977 137.41987 531.4037 137.41987 Z" fill="#e1cc69"/>
        <path d="M 531.4037 137.41987 L 632.9037 137.41987 C 644.9097 137.41987 654.6537 148.87075 654.6537 162.97987 C 654.6537 177.08899 644.9097 188.53987 632.9037 188.53987 L 531.4037 188.53987 C 519.3977 188.53987 509.6537 177.08899 509.6537 162.97987 C 509.6537 148.87075 519.3977 137.41987 531.4037 137.41987 Z" stroke="#99990f" stroke-linecap="round" stroke-linejoin="round" stroke-width="3"/>
        <text transform="translate(514.6537 147.63178)" fill="#4b3d2a">
          <tspan font-family="Helvetica Neue" font-weight="bold" font-size="12" fill="#4b3d2a" x=".618" y="12" xml:space="preserve">Check for homogeneity </tspan>
          <tspan font-family="Helvetica Neue" font-weight="bold" font-size="12" fill="#4b3d2a" x="9.51" y="27.348083" xml:space="preserve">of regression slopes</tspan>
        </text>
      </g>
      <g id="Line_8">
        <line x1="399.424" y1="458.8187" x2="414.3393" y2="486.53106" marker-end="url(#SharpArrow_Marker)" stroke="#99990f" stroke-linecap="round" stroke-linejoin="round" stroke-width="3"/>
      </g>
      <g id="Line_6">
        <path d="M 258.73635 208.5886 C 264.15703 218.80766 263.96432 231.3925 275 239.24883 C 283.6863 245.43262 299.33313 248.68983 313.72124 252.47536" marker-end="url(#SharpArrow_Marker_3)" stroke="#007928" stroke-linecap="round" stroke-linejoin="round" stroke-width="3"/>
      </g>
      <g id="Line_5">
        <path d="M 547.99654 208.06821 C 536.89775 215.1237 527.5209 221.21544 514.69686 229.23682 C 504.7407 235.46435 492.70216 242.85787 481.0073 250.0589" marker-end="url(#SharpArrow_Marker_3)" stroke="#007928" stroke-linecap="round" stroke-linejoin="round" stroke-width="3"/>
      </g>
      <g id="Graphic_33">
        <path d="M 115.53287 33.235412 L 308.2212 33.235412 C 313.19176 33.235412 317.2212 37.26485 317.2212 42.23541 L 317.2212 198.2635 C 317.2212 203.23406 313.19176 207.2635 308.2212 207.2635 L 115.53287 207.2635 C 110.56231 207.2635 106.53287 203.23406 106.53287 198.2635 L 106.53287 42.23541 C 106.53287 37.26485 110.56231 33.235412 115.53287 33.235412 Z" fill="#00ad99" fill-opacity=".5"/>
        <path d="M 115.53287 33.235412 L 308.2212 33.235412 C 313.19176 33.235412 317.2212 37.26485 317.2212 42.23541 L 317.2212 198.2635 C 317.2212 203.23406 313.19176 207.2635 308.2212 207.2635 L 115.53287 207.2635 C 110.56231 207.2635 106.53287 203.23406 106.53287 198.2635 L 106.53287 42.23541 C 106.53287 37.26485 110.56231 33.235412 115.53287 33.235412 Z" stroke="#007928" stroke-linecap="round" stroke-linejoin="round" stroke-width="3"/>
      </g>
      <g id="Graphic_4">
        <text transform="translate(131.85803 36.785137)" fill="#007928">
          <tspan font-family="Helvetica Neue" font-size="18" fill="#007928" x="24158453e-20" y="17" xml:space="preserve">Modelling approach</tspan>
        </text>
      </g>
      <g id="Graphic_36">
        <text transform="translate(608.8765 36.785137)" fill="#007928">
          <tspan font-family="Helvetica Neue" font-size="18" fill="#007928" x="0" y="17" xml:space="preserve">ANCOVA approach</tspan>
        </text>
      </g>
      <g id="Graphic_38">
        <path d="M 144.18616 68.427874 L 274.65928 68.427874 C 290.0924 68.427874 302.6178 78.42398 302.6178 90.74061 C 302.6178 103.05724 290.0924 113.05335 274.65928 113.05335 L 144.18616 113.05335 C 128.75305 113.05335 116.22763 103.05724 116.22763 90.74061 C 116.22763 78.42398 128.75305 68.427874 144.18616 68.427874 Z" fill="#e1cc69"/>
        <path d="M 144.18616 68.427874 L 274.65928 68.427874 C 290.0924 68.427874 302.6178 78.42398 302.6178 90.74061 C 302.6178 103.05724 290.0924 113.05335 274.65928 113.05335 L 144.18616 113.05335 C 128.75305 113.05335 116.22763 103.05724 116.22763 90.74061 C 116.22763 78.42398 128.75305 68.427874 144.18616 68.427874 Z" stroke="#99990f" stroke-linecap="round" stroke-linejoin="round" stroke-width="3"/>
        <text transform="translate(121.22763 75.39253)" fill="#4b3d2a">
          <tspan font-family="Helvetica Neue" font-weight="bold" font-size="12" fill="#4b3d2a" x="11.347084" y="12" xml:space="preserve">Build linear model entering </tspan>
          <tspan font-family="Helvetica Neue" font-weight="bold" font-size="12" fill="#4b3d2a" x="10.969084" y="27.348083" xml:space="preserve">predictors based on theory</tspan>
        </text>
      </g>
      <g id="Graphic_39">
        <path d="M 610.913 68.427874 L 761.37 68.427874 C 779.1669 68.427874 793.6107 78.42398 793.6107 90.74061 C 793.6107 103.05724 779.1669 113.05335 761.37 113.05335 L 610.913 113.05335 C 593.1161 113.05335 578.67226 103.05724 578.67226 90.74061 C 578.67226 78.42398 593.1161 68.427874 610.913 68.427874 Z" fill="#e1cc69"/>
        <path d="M 610.913 68.427874 L 761.37 68.427874 C 779.1669 68.427874 793.6107 78.42398 793.6107 90.74061 C 793.6107 103.05724 779.1669 113.05335 761.37 113.05335 L 610.913 113.05335 C 593.1161 113.05335 578.67226 103.05724 578.67226 90.74061 C 578.67226 78.42398 593.1161 68.427874 610.913 68.427874 Z" stroke="#99990f" stroke-linecap="round" stroke-linejoin="round" stroke-width="3"/>
        <text transform="translate(583.67226 75.39253)" fill="#4b3d2a">
          <tspan font-family="Helvetica Neue" font-weight="bold" font-size="12" fill="#4b3d2a" x="17.413238" y="12" xml:space="preserve">Build linear model entering all </tspan>
          <tspan font-family="Helvetica Neue" font-weight="bold" font-size="12" fill="#4b3d2a" x="28.495238" y="27.348083" xml:space="preserve">predictors simultaneously</tspan>
        </text>
      </g>
      <g id="Line_40">
        <line x1="686.9417" y1="114.32209" x2="711.38794" y2="153.08365" marker-end="url(#SharpArrow_Marker)" stroke="#99990f" stroke-linecap="round" stroke-linejoin="round" stroke-width="3"/>
      </g>
      <g id="Line_41">
        <line x1="686.1415" y1="113.05335" x2="660.89506" y2="153.08365" marker-end="url(#SharpArrow_Marker)" stroke="#99990f" stroke-linecap="round" stroke-linejoin="round" stroke-width="3"/>
      </g>
      <g id="Graphic_42">
        <path d="M 144.18616 140.66713 L 274.65928 140.66713 C 290.0924 140.66713 302.6178 150.66324 302.6178 162.97987 C 302.6178 175.2965 290.0924 185.2926 274.65928 185.2926 L 144.18616 185.2926 C 128.75305 185.2926 116.22763 175.2965 116.22763 162.97987 C 116.22763 150.66324 128.75305 140.66713 144.18616 140.66713 Z" fill="#e1cc69"/>
        <path d="M 144.18616 140.66713 L 274.65928 140.66713 C 290.0924 140.66713 302.6178 150.66324 302.6178 162.97987 C 302.6178 175.2965 290.0924 185.2926 274.65928 185.2926 L 144.18616 185.2926 C 128.75305 185.2926 116.22763 175.2965 116.22763 162.97987 C 116.22763 150.66324 128.75305 140.66713 144.18616 140.66713 Z" stroke="#99990f" stroke-linecap="round" stroke-linejoin="round" stroke-width="3"/>
        <text transform="translate(121.22763 147.63178)" fill="#4b3d2a">
          <tspan font-family="Helvetica Neue" font-weight="bold" font-size="12" fill="#4b3d2a" x="26.335084" y="12" xml:space="preserve">Include interactions if </tspan>
          <tspan font-family="Helvetica Neue" font-weight="bold" font-size="12" fill="#4b3d2a" x="28.423084" y="27.348083" xml:space="preserve">theoretically relevant</tspan>
        </text>
      </g>
      <g id="Line_43">
        <line x1="209.42272" y1="113.05335" x2="209.42272" y2="128.96713" marker-end="url(#SharpArrow_Marker)" stroke="#99990f" stroke-linecap="round" stroke-linejoin="round" stroke-width="3"/>
      </g>
      <g id="Line_46">
        <line x1="398.7131" y1="363.98712" x2="398.7131" y2="394.67784" marker-end="url(#SharpArrow_Marker)" stroke="#99990f" stroke-linecap="round" stroke-linejoin="round" stroke-width="3"/>
      </g>
      <g id="Graphic_48">
        <path d="M 263.7583 478.7601 L 353.7083 478.7601 C 364.3481 478.7601 372.9833 486.8241 372.9833 496.7601 C 372.9833 506.6961 364.3481 514.7601 353.7083 514.7601 L 263.7583 514.7601 C 253.1185 514.7601 244.4833 506.6961 244.4833 496.7601 C 244.4833 486.8241 253.1185 478.7601 263.7583 478.7601 Z" fill="#e1cc69"/>
        <path d="M 263.7583 478.7601 L 353.7083 478.7601 C 364.3481 478.7601 372.9833 486.8241 372.9833 496.7601 C 372.9833 506.6961 364.3481 514.7601 353.7083 514.7601 L 263.7583 514.7601 C 253.1185 514.7601 244.4833 506.6961 244.4833 496.7601 C 244.4833 486.8241 253.1185 478.7601 263.7583 478.7601 Z" stroke="#99990f" stroke-linecap="round" stroke-linejoin="round" stroke-width="3"/>
        <text transform="translate(249.4833 489.08604)" fill="#4b3d2a">
          <tspan font-family="Helvetica Neue" font-weight="bold" font-size="12" fill="#4b3d2a" x="1.47" y="12" xml:space="preserve">Specific hypotheses</tspan>
        </text>
      </g>
      <g id="Graphic_49">
        <path d="M 439.1593 478.8336 L 529.1093 478.8336 C 539.7491 478.8336 548.3843 486.8976 548.3843 496.8336 C 548.3843 506.7696 539.7491 514.8336 529.1093 514.8336 L 439.1593 514.8336 C 428.5195 514.8336 419.8843 506.7696 419.8843 496.8336 C 419.8843 486.8976 428.5195 478.8336 439.1593 478.8336 Z" fill="#e1cc69"/>
        <path d="M 439.1593 478.8336 L 529.1093 478.8336 C 539.7491 478.8336 548.3843 486.8976 548.3843 496.8336 C 548.3843 506.7696 539.7491 514.8336 529.1093 514.8336 L 439.1593 514.8336 C 428.5195 514.8336 419.8843 506.7696 419.8843 496.8336 C 419.8843 486.8976 428.5195 478.8336 439.1593 478.8336 Z" stroke="#99990f" stroke-linecap="round" stroke-linejoin="round" stroke-width="3"/>
        <text transform="translate(424.8843 489.1596)" fill="#4b3d2a">
          <tspan font-family="Helvetica Neue" font-weight="bold" font-size="12" fill="#4b3d2a" x="16.464" y="12" xml:space="preserve">No hypotheses</tspan>
        </text>
      </g>
      <g id="Line_50">
        <line x1="398.7131" y1="457.49784" x2="379.3963" y2="486.9742" marker-end="url(#SharpArrow_Marker)" stroke="#99990f" stroke-linecap="round" stroke-linejoin="round" stroke-width="3"/>
      </g>
      <g id="Line_51">
        <line x1="548.3843" y1="496.8336" x2="575.30105" y2="497.18215" marker-end="url(#SharpArrow_Marker)" stroke="#99990f" stroke-linecap="round" stroke-linejoin="round" stroke-width="3"/>
      </g>
      <g id="Line_52">
        <line x1="244.4833" y1="496.7601" x2="218.97708" y2="496.7601" marker-end="url(#SharpArrow_Marker)" stroke="#99990f" stroke-linecap="round" stroke-linejoin="round" stroke-width="3"/>
      </g>
      <g id="Line_53">
        <path d="M 631.69165 516.081 C 621.8006 530.8893 628.78744 550.872 602.0156 560.51046 C 577.555 569.3168 524.8993 569.4927 482.69515 572.8657" marker-end="url(#SharpArrow_Marker_2)" stroke="#36218e" stroke-linecap="butt" stroke-linejoin="round" stroke-width="3"/>
      </g>
      <g id="Line_54">
        <path d="M 161.75236 540.52326 C 172.6755 549.1813 167.08964 560.9349 194.5251 566.5 C 219.5988 571.58606 272.26706 571.5061 314.6962 573.34175" marker-end="url(#SharpArrow_Marker_2)" stroke="#36218e" stroke-linecap="butt" stroke-linejoin="round" stroke-width="3"/>
      </g>
      <g id="Graphic_65">
        <path d="M 735.9403 414.68784 L 825.8903 414.68784 C 836.5301 414.68784 845.1653 422.75184 845.1653 432.68784 C 845.1653 442.62384 836.5301 450.68784 825.8903 450.68784 L 735.9403 450.68784 C 725.3005 450.68784 716.6653 442.62384 716.6653 432.68784 C 716.6653 422.75184 725.3005 414.68784 735.9403 414.68784 Z" fill="#dc5e76"/>
        <path d="M 735.9403 414.68784 L 825.8903 414.68784 C 836.5301 414.68784 845.1653 422.75184 845.1653 432.68784 C 845.1653 442.62384 836.5301 450.68784 825.8903 450.68784 L 735.9403 450.68784 C 725.3005 450.68784 716.6653 442.62384 716.6653 432.68784 C 716.6653 422.75184 725.3005 414.68784 735.9403 414.68784 Z" stroke="#951256" stroke-linecap="butt" stroke-linejoin="round" stroke-width="3"/>
        <text transform="translate(721.6653 425.0138)" fill="white">
          <tspan font-family="Helvetica Neue" font-weight="bold" font-size="12" fill="white" x="22.71" y="12" xml:space="preserve">No normality</tspan>
        </text>
      </g>
      <g id="Graphic_64">
        <path d="M 891.1088 408.43784 L 992.7466 408.43784 C 997.7172 408.43784 1001.7466 412.46727 1001.7466 417.43784 L 1001.7466 447.93784 C 1001.7466 452.9084 997.7172 456.93784 992.7466 456.93784 L 891.1088 456.93784 C 886.1382 456.93784 882.1088 452.9084 882.1088 447.93784 L 882.1088 417.43784 C 882.1088 412.46727 886.1382 408.43784 891.1088 408.43784 Z" fill="#71cff2"/>
        <path d="M 891.1088 408.43784 L 992.7466 408.43784 C 997.7172 408.43784 1001.7466 412.46727 1001.7466 417.43784 L 1001.7466 447.93784 C 1001.7466 452.9084 997.7172 456.93784 992.7466 456.93784 L 891.1088 456.93784 C 886.1382 456.93784 882.1088 452.9084 882.1088 447.93784 L 882.1088 417.43784 C 882.1088 412.46727 886.1382 408.43784 891.1088 408.43784 Z" stroke="#36218e" stroke-linecap="butt" stroke-linejoin="round" stroke-width="3"/>
        <text transform="translate(887.1088 417.33975)" fill="#36218e">
          <tspan font-family="Helvetica Neue" font-weight="bold" font-size="12" fill="#36218e" x=".27892395" y="12" xml:space="preserve">Robust estimation/</tspan>
          <tspan font-family="Helvetica Neue" font-weight="bold" font-size="12" fill="#36218e" x="15.266924" y="27.348083" xml:space="preserve">Bootstrap CIs</tspan>
        </text>
      </g>
      <g id="Line_63">
        <line x1="845.1653" y1="432.68784" x2="870.4088" y2="432.68784" marker-end="url(#SharpArrow_Marker_4)" stroke="#951256" stroke-linecap="butt" stroke-linejoin="round" stroke-width="3"/>
      </g>
      <g id="Graphic_62">
        <path d="M 735.9403 360.93784 L 825.8903 360.93784 C 836.5301 360.93784 845.1653 369.00184 845.1653 378.93784 C 845.1653 388.87384 836.5301 396.93784 825.8903 396.93784 L 735.9403 396.93784 C 725.3005 396.93784 716.6653 388.87384 716.6653 378.93784 C 716.6653 369.00184 725.3005 360.93784 735.9403 360.93784 Z" fill="#dc5e76"/>
        <path d="M 735.9403 360.93784 L 825.8903 360.93784 C 836.5301 360.93784 845.1653 369.00184 845.1653 378.93784 C 845.1653 388.87384 836.5301 396.93784 825.8903 396.93784 L 735.9403 396.93784 C 725.3005 396.93784 716.6653 388.87384 716.6653 378.93784 C 716.6653 369.00184 725.3005 360.93784 735.9403 360.93784 Z" stroke="#951256" stroke-linecap="butt" stroke-linejoin="round" stroke-width="3"/>
        <text transform="translate(721.6653 371.2638)" fill="white">
          <tspan font-family="Helvetica Neue" font-weight="bold" font-size="12" fill="white" x="5.592" y="12" xml:space="preserve">Heteroscedasticity</tspan>
        </text>
      </g>
      <g id="Graphic_61">
        <path d="M 891.1088 358.68784 L 992.7466 358.68784 C 997.7172 358.68784 1001.7466 362.71727 1001.7466 367.68784 L 1001.7466 390.18784 C 1001.7466 395.1584 997.7172 399.18784 992.7466 399.18784 L 891.1088 399.18784 C 886.1382 399.18784 882.1088 395.1584 882.1088 390.18784 L 882.1088 367.68784 C 882.1088 362.71727 886.1382 358.68784 891.1088 358.68784 Z" fill="#71cff2"/>
        <path d="M 891.1088 358.68784 L 992.7466 358.68784 C 997.7172 358.68784 1001.7466 362.71727 1001.7466 367.68784 L 1001.7466 390.18784 C 1001.7466 395.1584 997.7172 399.18784 992.7466 399.18784 L 891.1088 399.18784 C 886.1382 399.18784 882.1088 395.1584 882.1088 390.18784 L 882.1088 367.68784 C 882.1088 362.71727 886.1382 358.68784 891.1088 358.68784 Z" stroke="#36218e" stroke-linecap="butt" stroke-linejoin="round" stroke-width="3"/>
        <text transform="translate(887.1088 363.58975)" fill="#36218e">
          <tspan font-family="Helvetica Neue" font-weight="bold" font-size="12" fill="#36218e" x=".914924" y="12" xml:space="preserve">Robust SEs/robust </tspan>
          <tspan font-family="Helvetica Neue" font-weight="bold" font-size="12" fill="#36218e" x="24.728924" y="27.348083" xml:space="preserve">estimation</tspan>
        </text>
      </g>
      <g id="Line_60">
        <line x1="845.1653" y1="378.93784" x2="870.4088" y2="378.93784" marker-end="url(#SharpArrow_Marker_4)" stroke="#951256" stroke-linecap="butt" stroke-linejoin="round" stroke-width="3"/>
      </g>
      <g id="Line_59">
        <line x1="846.0149" y1="380.174" x2="875.4816" y2="423.04574" marker-end="url(#SharpArrow_Marker_4)" stroke="#951256" stroke-linecap="butt" stroke-linejoin="round" stroke-width="3"/>
      </g>
      <g id="Graphic_58">
        <path d="M 735.9403 470.43784 L 825.8903 470.43784 C 836.5301 470.43784 845.1653 478.50184 845.1653 488.43784 C 845.1653 498.37384 836.5301 506.43784 825.8903 506.43784 L 735.9403 506.43784 C 725.3005 506.43784 716.6653 498.37384 716.6653 488.43784 C 716.6653 478.50184 725.3005 470.43784 735.9403 470.43784 Z" fill="#dc5e76"/>
        <path d="M 735.9403 470.43784 L 825.8903 470.43784 C 836.5301 470.43784 845.1653 478.50184 845.1653 488.43784 C 845.1653 498.37384 836.5301 506.43784 825.8903 506.43784 L 735.9403 506.43784 C 725.3005 506.43784 716.6653 498.37384 716.6653 488.43784 C 716.6653 478.50184 725.3005 470.43784 735.9403 470.43784 Z" stroke="#951256" stroke-linecap="butt" stroke-linejoin="round" stroke-width="3"/>
        <text transform="translate(721.6653 473.08975)" fill="white">
          <tspan font-family="Helvetica Neue" font-weight="bold" font-size="12" fill="white" x="38.028" y="12" xml:space="preserve">Lack of </tspan>
          <tspan font-family="Helvetica Neue" font-weight="bold" font-size="12" fill="white" x="18.81" y="27.348083" xml:space="preserve">independence</tspan>
        </text>
      </g>
      <g id="Graphic_57">
        <path d="M 891.1088 471.43784 L 992.7466 471.43784 C 997.7172 471.43784 1001.7466 475.4673 1001.7466 480.43784 L 1001.7466 497.43784 C 1001.7466 502.4084 997.7172 506.43784 992.7466 506.43784 L 891.1088 506.43784 C 886.1382 506.43784 882.1088 502.4084 882.1088 497.43784 L 882.1088 480.43784 C 882.1088 475.4673 886.1382 471.43784 891.1088 471.43784 Z" fill="#71cff2"/>
        <path d="M 891.1088 471.43784 L 992.7466 471.43784 C 997.7172 471.43784 1001.7466 475.4673 1001.7466 480.43784 L 1001.7466 497.43784 C 1001.7466 502.4084 997.7172 506.43784 992.7466 506.43784 L 891.1088 506.43784 C 886.1382 506.43784 882.1088 502.4084 882.1088 497.43784 L 882.1088 480.43784 C 882.1088 475.4673 886.1382 471.43784 891.1088 471.43784 Z" stroke="#36218e" stroke-linecap="butt" stroke-linejoin="round" stroke-width="3"/>
        <text transform="translate(887.1088 473.58975)" fill="#36218e">
          <tspan font-family="Helvetica Neue" font-weight="bold" font-size="12" fill="#36218e" x="9.620924" y="12" xml:space="preserve">Use a multilevel </tspan>
          <tspan font-family="Helvetica Neue" font-weight="bold" font-size="12" fill="#36218e" x=".49492395" y="27.348083" xml:space="preserve">model (Chapter 21)</tspan>
        </text>
      </g>
      <g id="Line_56">
        <line x1="845.1653" y1="488.43784" x2="870.4098" y2="488.7795" marker-end="url(#SharpArrow_Marker_4)" stroke="#951256" stroke-linecap="butt" stroke-linejoin="round" stroke-width="3"/>
      </g>
      <g id="Line_55">
        <line x1="845.1653" y1="432.68784" x2="875.6859" y2="479.1584" marker-end="url(#SharpArrow_Marker_4)" stroke="#951256" stroke-linecap="butt" stroke-linejoin="round" stroke-width="3"/>
      </g>
      <g id="Line_66">
        <line x1="515.65115" y1="431.93784" x2="487.8141" y2="431.93784" marker-end="url(#SharpArrow_Marker)" stroke="#99990f" stroke-linecap="round" stroke-linejoin="round" stroke-width="3"/>
      </g>
      <g id="Line_67">
        <line x1="644.15115" y1="431.93784" x2="707.2194" y2="385.8418" marker-end="url(#SharpArrow_Marker)" stroke="#99990f" stroke-linecap="round" stroke-linejoin="round" stroke-width="3"/>
      </g>
      <g id="Line_68">
        <line x1="644.15115" y1="431.93784" x2="704.9659" y2="432.56683" marker-end="url(#SharpArrow_Marker)" stroke="#99990f" stroke-linecap="round" stroke-linejoin="round" stroke-width="3"/>
      </g>
      <g id="Line_69">
        <line x1="644.15115" y1="431.93784" x2="707.43606" y2="481.2468" marker-end="url(#SharpArrow_Marker)" stroke="#99990f" stroke-linecap="round" stroke-linejoin="round" stroke-width="3"/>
      </g>
      <g id="Graphic_70">
        <path d="M 355.289 124.92429 L 456.92685 124.92429 C 461.8974 124.92429 465.92685 128.95372 465.92685 133.92429 L 465.92685 192.03545 C 465.92685 197.00601 461.8974 201.03545 456.92685 201.03545 L 355.289 201.03545 C 350.31844 201.03545 346.289 197.00601 346.289 192.03545 L 346.289 133.92429 C 346.289 128.95372 350.31844 124.92429 355.289 124.92429 Z" fill="#71cff2"/>
        <path d="M 355.289 124.92429 L 456.92685 124.92429 C 461.8974 124.92429 465.92685 128.95372 465.92685 133.92429 L 465.92685 192.03545 C 465.92685 197.00601 461.8974 201.03545 456.92685 201.03545 L 355.289 201.03545 C 350.31844 201.03545 346.289 197.00601 346.289 192.03545 L 346.289 133.92429 C 346.289 128.95372 350.31844 124.92429 355.289 124.92429 Z" stroke="#36218e" stroke-linecap="butt" stroke-linejoin="round" stroke-width="3"/>
        <text transform="translate(351.289 132.2837)" fill="#36218e">
          <tspan font-family="Helvetica Neue" font-weight="bold" font-size="12" fill="#36218e" x="4.376924" y="12" xml:space="preserve">If slopes vary fit a </tspan>
          <tspan font-family="Helvetica Neue" font-weight="bold" font-size="12" fill="#36218e" x=".18292395" y="27.348083" xml:space="preserve">non-parallel slopes </tspan>
          <tspan font-family="Helvetica Neue" font-weight="bold" font-size="12" fill="#36218e" x="10.718924" y="42.696167" xml:space="preserve">model, or use a </tspan>
          <tspan font-family="Helvetica Neue" font-weight="bold" font-size="12" fill="#36218e" x="8.084924" y="58.04425" xml:space="preserve">multilevel model</tspan>
        </text>
      </g>
      <g id="Line_71">
        <line x1="509.6537" y1="162.97987" x2="477.62685" y2="162.97987" marker-end="url(#SharpArrow_Marker)" stroke="#99990f" stroke-linecap="round" stroke-linejoin="round" stroke-width="3"/>
      </g>
      <g id="Line_72">
        <line x1="346.289" y1="162.97987" x2="314.3178" y2="162.97987" marker-end="url(#SharpArrow_Marker_2)" stroke="#36218e" stroke-linecap="butt" stroke-linejoin="round" stroke-width="3"/>
      </g>
    </g>
  </g>
</svg>
