<?xml version="1.0" encoding="UTF-8" standalone="no"?>
<!DOCTYPE svg PUBLIC "-//W3C//DTD SVG 1.1//EN" "http://www.w3.org/Graphics/SVG/1.1/DTD/svg11.dtd">
<svg version="1.1" xmlns="http://www.w3.org/2000/svg" xmlns:xl="http://www.w3.org/1999/xlink" xmlns:dc="http://purl.org/dc/elements/1.1/" viewBox="83.18342 23.26 573.47055 544.5996" width="573.47055" height="544.5996">
  <defs>
    <marker orient="auto" overflow="visible" markerUnits="strokeWidth" id="SharpArrow_Marker" stroke-linejoin="miter" stroke-miterlimit="10" viewBox="-3 -3 7 6" markerWidth="7" markerHeight="6" color="#99990f">
      <g>
        <path d="M 2.3333333 0 L -1.4 -1.4 L 0 0 L 0 0 L -1.4 1.4 Z" fill="currentColor" stroke="currentColor" stroke-width="1"/>
      </g>
    </marker>
    <marker orient="auto" overflow="visible" markerUnits="strokeWidth" id="SharpArrow_Marker_2" stroke-linejoin="miter" stroke-miterlimit="10" viewBox="-3 -3 7 6" markerWidth="7" markerHeight="6" color="#36218e">
      <g>
        <path d="M 2.3333333 0 L -1.4 -1.4 L 0 0 L 0 0 L -1.4 1.4 Z" fill="currentColor" stroke="currentColor" stroke-width="1"/>
      </g>
    </marker>
  </defs>
  <g id="Canvas_1" fill-opacity="1" stroke-opacity="1" stroke-dasharray="none" stroke="none" fill="none">
    <title>Canvas 1</title>
    <rect fill="white" x="83.18342" y="23.26" width="573.47055" height="544.5996"/>
    <g id="Canvas_1_Layer_1">
      <title>Layer 1</title>
      <g id="Graphic_47">
        <path d="M 366.96185 166.30915 L 466.46185 166.30915 C 471.4324 166.30915 475.46185 170.33859 475.46185 175.30915 L 475.46185 192.30915 C 475.46185 197.2797 471.4324 201.30915 466.46185 201.30915 L 366.96185 201.30915 C 361.9913 201.30915 357.96185 197.2797 357.96185 192.30915 L 357.96185 175.30915 C 357.96185 170.33859 361.9913 166.30915 366.96185 166.30915 Z" fill="#71cff2"/>
        <path d="M 366.96185 166.30915 L 466.46185 166.30915 C 471.4324 166.30915 475.46185 170.33859 475.46185 175.30915 L 475.46185 192.30915 C 475.46185 197.2797 471.4324 201.30915 466.46185 201.30915 L 366.96185 201.30915 C 361.9913 201.30915 357.96185 197.2797 357.96185 192.30915 L 357.96185 175.30915 C 357.96185 170.33859 361.9913 166.30915 366.96185 166.30915 Z" stroke="#36218e" stroke-linecap="butt" stroke-linejoin="round" stroke-width="3"/>
        <text transform="translate(362.96185 176.1351)" fill="#36218e">
          <tspan font-family="Helvetica Neue" font-weight="bold" font-size="12" fill="#36218e" x="26.75" y="12" xml:space="preserve">KMO test</tspan>
        </text>
      </g>
      <g id="Graphic_45">
        <path d="M 196.74817 334.90777 L 298.01238 334.90777 C 309.9905 334.90777 319.71185 342.97177 319.71185 352.90777 C 319.71185 362.84377 309.9905 370.90777 298.01238 370.90777 L 196.74817 370.90777 C 184.77007 370.90777 175.0487 362.84377 175.0487 352.90777 C 175.0487 342.97177 184.77007 334.90777 196.74817 334.90777 Z" fill="#e1cc69"/>
        <path d="M 196.74817 334.90777 L 298.01238 334.90777 C 309.9905 334.90777 319.71185 342.97177 319.71185 352.90777 C 319.71185 362.84377 309.9905 370.90777 298.01238 370.90777 L 196.74817 370.90777 C 184.77007 370.90777 175.0487 362.84377 175.0487 352.90777 C 175.0487 342.97177 184.77007 334.90777 196.74817 334.90777 Z" stroke="#99990f" stroke-linecap="round" stroke-linejoin="round" stroke-width="3"/>
        <text transform="translate(180.0487 345.23373)" fill="#4b3d2a">
          <tspan font-family="Helvetica Neue" font-weight="bold" font-size="12" fill="#4b3d2a" x="18.221573" y="12" xml:space="preserve">Factor extraction</tspan>
        </text>
      </g>
      <g id="Graphic_44">
        <path d="M 368.30926 313.31915 L 467.80926 313.31915 C 472.7798 313.31915 476.80926 317.3486 476.80926 322.31915 L 476.80926 339.31915 C 476.80926 344.2897 472.7798 348.31915 467.80926 348.31915 L 368.30926 348.31915 C 363.3387 348.31915 359.30926 344.2897 359.30926 339.31915 L 359.30926 322.31915 C 359.30926 317.3486 363.3387 313.31915 368.30926 313.31915 Z" fill="#71cff2"/>
        <path d="M 368.30926 313.31915 L 467.80926 313.31915 C 472.7798 313.31915 476.80926 317.3486 476.80926 322.31915 L 476.80926 339.31915 C 476.80926 344.2897 472.7798 348.31915 467.80926 348.31915 L 368.30926 348.31915 C 363.3387 348.31915 359.30926 344.2897 359.30926 339.31915 L 359.30926 322.31915 C 359.30926 317.3486 363.3387 313.31915 368.30926 313.31915 Z" stroke="#36218e" stroke-linecap="butt" stroke-linejoin="round" stroke-width="3"/>
        <text transform="translate(364.30926 323.1451)" fill="#36218e">
          <tspan font-family="Helvetica Neue" font-weight="bold" font-size="12" fill="#36218e" x="4.88" y="12" xml:space="preserve">Kaiser&apos;s criterion</tspan>
        </text>
      </g>
      <g id="Line_43">
        <line x1="319.71185" y1="352.90777" x2="349.0915" y2="336.51892" marker-end="url(#SharpArrow_Marker)" stroke="#99990f" stroke-linecap="round" stroke-linejoin="round" stroke-width="3"/>
      </g>
      <g id="Line_42">
        <line x1="247.38903" y1="372.40775" x2="247.81724" y2="445.7458" marker-end="url(#SharpArrow_Marker)" stroke="#99990f" stroke-linecap="round" stroke-linejoin="round" stroke-width="3"/>
      </g>
      <g id="Graphic_41">
        <path d="M 196.7987 104.32915 L 298.2987 104.32915 C 310.3047 104.32915 320.0487 112.39315 320.0487 122.32915 C 320.0487 132.26515 310.3047 140.32915 298.2987 140.32915 L 196.7987 140.32915 C 184.7927 140.32915 175.0487 132.26515 175.0487 122.32915 C 175.0487 112.39315 184.7927 104.32915 196.7987 104.32915 Z" fill="#e1cc69"/>
        <path d="M 196.7987 104.32915 L 298.2987 104.32915 C 310.3047 104.32915 320.0487 112.39315 320.0487 122.32915 C 320.0487 132.26515 310.3047 140.32915 298.2987 140.32915 L 196.7987 140.32915 C 184.7927 140.32915 175.0487 132.26515 175.0487 122.32915 C 175.0487 112.39315 184.7927 104.32915 196.7987 104.32915 Z" stroke="#99990f" stroke-linecap="round" stroke-linejoin="round" stroke-width="3"/>
        <text transform="translate(180.0487 114.65511)" fill="#4b3d2a">
          <tspan font-family="Helvetica Neue" font-weight="bold" font-size="12" fill="#4b3d2a" x="33.072" y="12" xml:space="preserve">Sample size</tspan>
        </text>
      </g>
      <g id="Graphic_40">
        <path d="M 366.96185 104.32915 L 466.46185 104.32915 C 471.4324 104.32915 475.46185 108.35859 475.46185 113.32915 L 475.46185 130.32915 C 475.46185 135.29971 471.4324 139.32915 466.46185 139.32915 L 366.96185 139.32915 C 361.9913 139.32915 357.96185 135.29971 357.96185 130.32915 L 357.96185 113.32915 C 357.96185 108.35859 361.9913 104.32915 366.96185 104.32915 Z" fill="#71cff2"/>
        <path d="M 366.96185 104.32915 L 466.46185 104.32915 C 471.4324 104.32915 475.46185 108.35859 475.46185 113.32915 L 475.46185 130.32915 C 475.46185 135.29971 471.4324 139.32915 466.46185 139.32915 L 366.96185 139.32915 C 361.9913 139.32915 357.96185 135.29971 357.96185 130.32915 L 357.96185 113.32915 C 357.96185 108.35859 361.9913 104.32915 366.96185 104.32915 Z" stroke="#36218e" stroke-linecap="butt" stroke-linejoin="round" stroke-width="3"/>
        <text transform="translate(362.96185 114.15511)" fill="#36218e">
          <tspan font-family="Helvetica Neue" font-weight="bold" font-size="12" fill="#36218e" x="6.176" y="12" xml:space="preserve">Greater than 300</tspan>
        </text>
      </g>
      <g id="Line_39">
        <line x1="320.0487" y1="122.32915" x2="346.26286" y2="121.98344" marker-end="url(#SharpArrow_Marker)" stroke="#99990f" stroke-linecap="round" stroke-linejoin="round" stroke-width="3"/>
      </g>
      <g id="Line_38">
        <line x1="247.5487" y1="140.32915" x2="247.91316" y2="154.11324" marker-end="url(#SharpArrow_Marker)" stroke="#99990f" stroke-linecap="round" stroke-linejoin="round" stroke-width="3"/>
      </g>
      <g id="Graphic_37">
        <path d="M 197.30398 227.28915 L 298.804 227.28915 C 310.81 227.28915 320.554 235.35315 320.554 245.28915 C 320.554 255.22515 310.81 263.28915 298.804 263.28915 L 197.30398 263.28915 C 185.29798 263.28915 175.55398 255.22515 175.55398 245.28915 C 175.55398 235.35315 185.29798 227.28915 197.30398 227.28915 Z" fill="#e1cc69"/>
        <path d="M 197.30398 227.28915 L 298.804 227.28915 C 310.81 227.28915 320.554 235.35315 320.554 245.28915 C 320.554 255.22515 310.81 263.28915 298.804 263.28915 L 197.30398 263.28915 C 185.29798 263.28915 175.55398 255.22515 175.55398 245.28915 C 175.55398 235.35315 185.29798 227.28915 197.30398 227.28915 Z" stroke="#99990f" stroke-linecap="round" stroke-linejoin="round" stroke-width="3"/>
        <text transform="translate(180.55398 229.94106)" fill="#4b3d2a">
          <tspan font-family="Helvetica Neue" font-weight="bold" font-size="12" fill="#4b3d2a" x="6.066" y="12" xml:space="preserve">Correlations between </tspan>
          <tspan font-family="Helvetica Neue" font-weight="bold" font-size="12" fill="#4b3d2a" x="41.73" y="27.348083" xml:space="preserve">variables</tspan>
        </text>
      </g>
      <g id="Line_36">
        <line x1="248.05398" y1="263.28915" x2="247.49033" y2="323.2083" marker-end="url(#SharpArrow_Marker)" stroke="#99990f" stroke-linecap="round" stroke-linejoin="round" stroke-width="3"/>
      </g>
      <g id="Graphic_35">
        <path d="M 197.25345 457.4456 L 298.51766 457.4456 C 310.49577 457.4456 320.21713 465.5096 320.21713 475.4456 C 320.21713 485.3816 310.49577 493.4456 298.51766 493.4456 L 197.25345 493.4456 C 185.27534 493.4456 175.55398 485.3816 175.55398 475.4456 C 175.55398 465.5096 185.27534 457.4456 197.25345 457.4456 Z" fill="#e1cc69"/>
        <path d="M 197.25345 457.4456 L 298.51766 457.4456 C 310.49577 457.4456 320.21713 465.5096 320.21713 475.4456 C 320.21713 485.3816 310.49577 493.4456 298.51766 493.4456 L 197.25345 493.4456 C 185.27534 493.4456 175.55398 485.3816 175.55398 475.4456 C 175.55398 465.5096 185.27534 457.4456 197.25345 457.4456 Z" stroke="#99990f" stroke-linecap="round" stroke-linejoin="round" stroke-width="3"/>
        <text transform="translate(180.55398 467.77157)" fill="#4b3d2a">
          <tspan font-family="Helvetica Neue" font-weight="bold" font-size="12" fill="#4b3d2a" x="24.773573" y="12" xml:space="preserve">Factor rotation</tspan>
        </text>
      </g>
      <g id="Group_32">
        <g id="Graphic_34">
          <path d="M 167.78168 24.024403 C 167.43328 24.024403 157.32857 18.5213 156.63175 57.73114 C 155.93486 96.94118 157.3286 149.22112 155.23794 154.72422 C 153.14733 160.22745 150.70827 158.85175 150.70827 158.85175 C 150.70827 158.85175 156.6083 159.98036 157.3286 150.59696 C 158.04895 141.2141 157.65524 72.27642 159.39744 46.136485 C 161.13965 19.996414 168.13017 24.024403 167.78168 24.024403 Z" fill="#666"/>
          <path d="M 167.78168 24.024403 C 167.43328 24.024403 157.32857 18.5213 156.63175 57.73114 C 155.93486 96.94118 157.3286 149.22112 155.23794 154.72422 C 153.14733 160.22745 150.70827 158.85175 150.70827 158.85175 C 150.70827 158.85175 156.6083 159.98036 157.3286 150.59696 C 158.04895 141.2141 157.65524 72.27642 159.39744 46.136485 C 161.13965 19.996414 168.13017 24.024403 167.78168 24.024403 Z" stroke="#666" stroke-linecap="round" stroke-linejoin="round" stroke-width="1"/>
        </g>
        <g id="Graphic_33">
          <path d="M 167.78168 293.98474 C 167.43328 293.98474 157.32857 299.48784 156.63175 260.278 C 155.93486 221.06797 157.3286 168.78803 155.23794 163.28493 C 153.14733 157.7817 150.70827 159.1574 150.70827 159.1574 C 150.70827 159.1574 156.6083 158.02878 157.3286 167.41219 C 158.04895 176.79505 157.65524 245.73272 159.39744 271.87266 C 161.13965 298.01273 168.13017 293.98474 167.78168 293.98474 Z" fill="#666"/>
          <path d="M 167.78168 293.98474 C 167.43328 293.98474 157.32857 299.48784 156.63175 260.278 C 155.93486 221.06797 157.3286 168.78803 155.23794 163.28493 C 153.14733 157.7817 150.70827 159.1574 150.70827 159.1574 C 150.70827 159.1574 156.6083 158.02878 157.3286 167.41219 C 158.04895 176.79505 157.65524 245.73272 159.39744 271.87266 C 161.13965 298.01273 168.13017 293.98474 167.78168 293.98474 Z" stroke="#666" stroke-linecap="round" stroke-linejoin="round" stroke-width="1"/>
        </g>
      </g>
      <g id="Graphic_31">
        <text transform="translate(97.20656 144.50457)" fill="#666">
          <tspan font-family="Helvetica Neue" font-size="12" fill="#666" x="6.373" y="11" xml:space="preserve">Initial </tspan>
          <tspan font-family="Helvetica Neue" font-size="12" fill="#666" x="1.2550003" y="25.336" xml:space="preserve">checks</tspan>
        </text>
      </g>
      <g id="Graphic_30">
        <path d="M 523.554 227.28915 L 646.154 227.28915 C 651.1245 227.28915 655.154 231.31858 655.154 236.28915 L 655.154 253.28915 C 655.154 258.2597 651.1245 262.28915 646.154 262.28915 L 523.554 262.28915 C 518.5834 262.28915 514.554 258.2597 514.554 253.28915 L 514.554 236.28915 C 514.554 231.31858 518.5834 227.28915 523.554 227.28915 Z" fill="#71cff2"/>
        <path d="M 523.554 227.28915 L 646.154 227.28915 C 651.1245 227.28915 655.154 231.31858 655.154 236.28915 L 655.154 253.28915 C 655.154 258.2597 651.1245 262.28915 646.154 262.28915 L 523.554 262.28915 C 518.5834 262.28915 514.554 258.2597 514.554 253.28915 L 514.554 236.28915 C 514.554 231.31858 518.5834 227.28915 523.554 227.28915 Z" stroke="#36218e" stroke-linecap="butt" stroke-linejoin="round" stroke-width="3"/>
        <text transform="translate(519.554 229.44106)" fill="#36218e">
          <tspan font-family="Helvetica Neue" font-weight="bold" font-size="12" fill="#36218e" x="18.115995" y="12" xml:space="preserve">Multicollinearity: </tspan>
          <tspan font-family="Helvetica Neue" font-weight="bold" font-size="12" fill="#36218e" x="2.0239954" y="27.348083" xml:space="preserve">determinant &gt; 0.00001</tspan>
        </text>
      </g>
      <g id="Line_29">
        <line x1="476.4724" y1="244.78915" x2="502.854" y2="244.78915" marker-end="url(#SharpArrow_Marker_2)" stroke="#36218e" stroke-linecap="butt" stroke-linejoin="round" stroke-width="3"/>
      </g>
      <g id="Graphic_28">
        <path d="M 367.9724 227.28915 L 467.4724 227.28915 C 472.44297 227.28915 476.4724 231.31858 476.4724 236.28915 L 476.4724 253.28915 C 476.4724 258.2597 472.44297 262.28915 467.4724 262.28915 L 367.9724 262.28915 C 363.00184 262.28915 358.9724 258.2597 358.9724 253.28915 L 358.9724 236.28915 C 358.9724 231.31858 363.00184 227.28915 367.9724 227.28915 Z" fill="#71cff2"/>
        <path d="M 367.9724 227.28915 L 467.4724 227.28915 C 472.44297 227.28915 476.4724 231.31858 476.4724 236.28915 L 476.4724 253.28915 C 476.4724 258.2597 472.44297 262.28915 467.4724 262.28915 L 367.9724 262.28915 C 363.00184 262.28915 358.9724 258.2597 358.9724 253.28915 L 358.9724 236.28915 C 358.9724 231.31858 363.00184 227.28915 367.9724 227.28915 Z" stroke="#36218e" stroke-linecap="butt" stroke-linejoin="round" stroke-width="3"/>
        <text transform="translate(363.9724 237.1151)" fill="#36218e">
          <tspan font-family="Helvetica Neue" font-weight="bold" font-size="12" fill="#36218e" x="12.872" y="12" xml:space="preserve">Scan R-matrix</tspan>
        </text>
      </g>
      <g id="Line_27">
        <line x1="320.554" y1="245.28915" x2="347.2734" y2="244.9414" marker-end="url(#SharpArrow_Marker)" stroke="#99990f" stroke-linecap="round" stroke-linejoin="round" stroke-width="3"/>
      </g>
      <g id="Graphic_26">
        <path d="M 367.9724 356.07915 L 467.4724 356.07915 C 472.44297 356.07915 476.4724 360.1086 476.4724 365.07915 L 476.4724 382.07915 C 476.4724 387.0497 472.44297 391.07915 467.4724 391.07915 L 367.9724 391.07915 C 363.00184 391.07915 358.9724 387.0497 358.9724 382.07915 L 358.9724 365.07915 C 358.9724 360.1086 363.00184 356.07915 367.9724 356.07915 Z" fill="#71cff2"/>
        <path d="M 367.9724 356.07915 L 467.4724 356.07915 C 472.44297 356.07915 476.4724 360.1086 476.4724 365.07915 L 476.4724 382.07915 C 476.4724 387.0497 472.44297 391.07915 467.4724 391.07915 L 367.9724 391.07915 C 363.00184 391.07915 358.9724 387.0497 358.9724 382.07915 L 358.9724 365.07915 C 358.9724 360.1086 363.00184 356.07915 367.9724 356.07915 Z" stroke="#36218e" stroke-linecap="butt" stroke-linejoin="round" stroke-width="3"/>
        <text transform="translate(363.9724 358.23107)" fill="#36218e">
          <tspan font-family="Helvetica Neue" font-weight="bold" font-size="12" fill="#36218e" x="11.48" y="12" xml:space="preserve">Scree plot (N &gt; </tspan>
          <tspan font-family="Helvetica Neue" font-weight="bold" font-size="12" fill="#36218e" x="41.966" y="27.348083" xml:space="preserve">300)</tspan>
        </text>
      </g>
      <g id="Graphic_25">
        <path d="M 368.30926 270.55915 L 467.80926 270.55915 C 472.7798 270.55915 476.80926 274.5886 476.80926 279.55915 L 476.80926 296.55915 C 476.80926 301.5297 472.7798 305.55915 467.80926 305.55915 L 368.30926 305.55915 C 363.3387 305.55915 359.30926 301.5297 359.30926 296.55915 L 359.30926 279.55915 C 359.30926 274.5886 363.3387 270.55915 368.30926 270.55915 Z" fill="#71cff2"/>
        <path d="M 368.30926 270.55915 L 467.80926 270.55915 C 472.7798 270.55915 476.80926 274.5886 476.80926 279.55915 L 476.80926 296.55915 C 476.80926 301.5297 472.7798 305.55915 467.80926 305.55915 L 368.30926 305.55915 C 363.3387 305.55915 359.30926 301.5297 359.30926 296.55915 L 359.30926 279.55915 C 359.30926 274.5886 363.3387 270.55915 368.30926 270.55915 Z" stroke="#36218e" stroke-linecap="butt" stroke-linejoin="round" stroke-width="3"/>
        <text transform="translate(364.30926 280.3851)" fill="#36218e">
          <tspan font-family="Helvetica Neue" font-weight="bold" font-size="12" fill="#36218e" x="7.67" y="12" xml:space="preserve">Parallel analysis</tspan>
        </text>
      </g>
      <g id="Line_24">
        <line x1="319.71185" y1="352.90777" x2="348.61972" y2="368.1283" marker-end="url(#SharpArrow_Marker)" stroke="#99990f" stroke-linecap="round" stroke-linejoin="round" stroke-width="3"/>
      </g>
      <g id="Line_23">
        <path d="M 319.71185 352.8834 C 325.04746 337.11024 329.12137 316.36617 335.72028 305.55915 C 339.5791 299.23957 344.3027 296.31576 349.1323 293.8093" marker-end="url(#SharpArrow_Marker)" stroke="#99990f" stroke-linecap="round" stroke-linejoin="round" stroke-width="3"/>
      </g>
      <g id="Graphic_22">
        <path d="M 522.20657 479.8506 L 645.1434 479.8506 C 650.114 479.8506 654.1434 483.88005 654.1434 488.8506 L 654.1434 505.8506 C 654.1434 510.8212 650.114 514.8506 645.1434 514.8506 L 522.20657 514.8506 C 517.236 514.8506 513.20657 510.8212 513.20657 505.8506 L 513.20657 488.8506 C 513.20657 483.88005 517.236 479.8506 522.20657 479.8506 Z" fill="#71cff2"/>
        <path d="M 522.20657 479.8506 L 645.1434 479.8506 C 650.114 479.8506 654.1434 483.88005 654.1434 488.8506 L 654.1434 505.8506 C 654.1434 510.8212 650.114 514.8506 645.1434 514.8506 L 522.20657 514.8506 C 517.236 514.8506 513.20657 510.8212 513.20657 505.8506 L 513.20657 488.8506 C 513.20657 483.88005 517.236 479.8506 522.20657 479.8506 Z" stroke="#36218e" stroke-linecap="butt" stroke-linejoin="round" stroke-width="3"/>
        <text transform="translate(518.20657 489.6766)" fill="#36218e">
          <tspan font-family="Helvetica Neue" font-weight="bold" font-size="12" fill="#36218e" x="6.248422" y="12" xml:space="preserve">Uncorrelated factors</tspan>
        </text>
      </g>
      <g id="Line_21">
        <line x1="475.125" y1="497.3506" x2="501.50657" y2="497.3506" marker-end="url(#SharpArrow_Marker_2)" stroke="#36218e" stroke-linecap="butt" stroke-linejoin="round" stroke-width="3"/>
      </g>
      <g id="Graphic_20">
        <path d="M 366.625 479.8506 L 466.125 479.8506 C 471.09556 479.8506 475.125 483.88005 475.125 488.8506 L 475.125 505.8506 C 475.125 510.8212 471.09556 514.8506 466.125 514.8506 L 366.625 514.8506 C 361.65443 514.8506 357.625 510.8212 357.625 505.8506 L 357.625 488.8506 C 357.625 483.88005 361.65443 479.8506 366.625 479.8506 Z" fill="#71cff2"/>
        <path d="M 366.625 479.8506 L 466.125 479.8506 C 471.09556 479.8506 475.125 483.88005 475.125 488.8506 L 475.125 505.8506 C 475.125 510.8212 471.09556 514.8506 466.125 514.8506 L 366.625 514.8506 C 361.65443 514.8506 357.625 510.8212 357.625 505.8506 L 357.625 488.8506 C 357.625 483.88005 361.65443 479.8506 366.625 479.8506 Z" stroke="#36218e" stroke-linecap="butt" stroke-linejoin="round" stroke-width="3"/>
        <text transform="translate(362.625 482.00253)" fill="#36218e">
          <tspan font-family="Helvetica Neue" font-weight="bold" font-size="12" fill="#36218e" x="5.972" y="12" xml:space="preserve">Orthogonal (e.g., </tspan>
          <tspan font-family="Helvetica Neue" font-weight="bold" font-size="12" fill="#36218e" x="29.426" y="27.348083" xml:space="preserve">varimax)</tspan>
        </text>
      </g>
      <g id="Line_19">
        <line x1="320.21713" y1="475.4456" x2="347.52863" y2="491.43847" marker-end="url(#SharpArrow_Marker)" stroke="#99990f" stroke-linecap="round" stroke-linejoin="round" stroke-width="3"/>
      </g>
      <g id="Graphic_18">
        <path d="M 522.20657 439.4956 L 644.4697 439.4956 C 649.4403 439.4956 653.4697 443.52506 653.4697 448.4956 L 653.4697 465.4956 C 653.4697 470.4662 649.4403 474.4956 644.4697 474.4956 L 522.20657 474.4956 C 517.236 474.4956 513.20657 470.4662 513.20657 465.4956 L 513.20657 448.4956 C 513.20657 443.52506 517.236 439.4956 522.20657 439.4956 Z" fill="#71cff2"/>
        <path d="M 522.20657 439.4956 L 644.4697 439.4956 C 649.4403 439.4956 653.4697 443.52506 653.4697 448.4956 L 653.4697 465.4956 C 653.4697 470.4662 649.4403 474.4956 644.4697 474.4956 L 522.20657 474.4956 C 517.236 474.4956 513.20657 470.4662 513.20657 465.4956 L 513.20657 448.4956 C 513.20657 443.52506 517.236 439.4956 522.20657 439.4956 Z" stroke="#36218e" stroke-linecap="butt" stroke-linejoin="round" stroke-width="3"/>
        <text transform="translate(518.20657 449.3216)" fill="#36218e">
          <tspan font-family="Helvetica Neue" font-weight="bold" font-size="12" fill="#36218e" x="12.913569" y="12" xml:space="preserve">Correlated factors</tspan>
        </text>
      </g>
      <g id="Line_17">
        <line x1="475.125" y1="456.9956" x2="501.50657" y2="456.9956" marker-end="url(#SharpArrow_Marker_2)" stroke="#36218e" stroke-linecap="butt" stroke-linejoin="round" stroke-width="3"/>
      </g>
      <g id="Graphic_16">
        <path d="M 366.625 439.4956 L 466.125 439.4956 C 471.09556 439.4956 475.125 443.52506 475.125 448.4956 L 475.125 465.4956 C 475.125 470.4662 471.09556 474.4956 466.125 474.4956 L 366.625 474.4956 C 361.65443 474.4956 357.625 470.4662 357.625 465.4956 L 357.625 448.4956 C 357.625 443.52506 361.65443 439.4956 366.625 439.4956 Z" fill="#71cff2"/>
        <path d="M 366.625 439.4956 L 466.125 439.4956 C 471.09556 439.4956 475.125 443.52506 475.125 448.4956 L 475.125 465.4956 C 475.125 470.4662 471.09556 474.4956 466.125 474.4956 L 366.625 474.4956 C 361.65443 474.4956 357.625 470.4662 357.625 465.4956 L 357.625 448.4956 C 357.625 443.52506 361.65443 439.4956 366.625 439.4956 Z" stroke="#36218e" stroke-linecap="butt" stroke-linejoin="round" stroke-width="3"/>
        <text transform="translate(362.625 441.64754)" fill="#36218e">
          <tspan font-family="Helvetica Neue" font-weight="bold" font-size="12" fill="#36218e" x="16.094" y="12" xml:space="preserve">Oblique (e.g., </tspan>
          <tspan font-family="Helvetica Neue" font-weight="bold" font-size="12" fill="#36218e" x="12.896" y="27.348083" xml:space="preserve">direct oblimin)</tspan>
        </text>
      </g>
      <g id="Line_15">
        <line x1="320.21713" y1="475.4456" x2="347.13186" y2="462.17096" marker-end="url(#SharpArrow_Marker)" stroke="#99990f" stroke-linecap="round" stroke-linejoin="round" stroke-width="3"/>
      </g>
      <g id="Group_12">
        <g id="Graphic_14">
          <path d="M 167.78168 310.9827 C 167.43328 310.9827 157.32857 306.954 156.63175 335.65877 C 155.93486 364.3637 157.3286 402.63686 155.23794 406.6656 C 153.14733 410.6944 150.70827 409.68726 150.70827 409.68726 C 150.70827 409.68726 156.6083 410.5135 157.3286 403.6441 C 158.04895 396.77507 157.65524 346.3071 159.39744 327.17055 C 161.13965 308.0339 168.13017 310.9827 167.78168 310.9827 Z" fill="#666"/>
          <path d="M 167.78168 310.9827 C 167.43328 310.9827 157.32857 306.954 156.63175 335.65877 C 155.93486 364.3637 157.3286 402.63686 155.23794 406.6656 C 153.14733 410.6944 150.70827 409.68726 150.70827 409.68726 C 150.70827 409.68726 156.6083 410.5135 157.3286 403.6441 C 158.04895 396.77507 157.65524 346.3071 159.39744 327.17055 C 161.13965 308.0339 168.13017 310.9827 167.78168 310.9827 Z" stroke="#666" stroke-linecap="round" stroke-linejoin="round" stroke-width="1"/>
        </g>
        <g id="Graphic_13">
          <path d="M 167.78168 508.6156 C 167.43328 508.6156 157.32857 512.6443 156.63175 483.9395 C 155.93486 455.2346 157.3286 416.96143 155.23794 412.9327 C 153.14733 408.9039 150.70827 409.91102 150.70827 409.91102 C 150.70827 409.91102 156.6083 409.0848 157.3286 415.9542 C 158.04895 422.8232 157.65524 473.2912 159.39744 492.42774 C 161.13965 511.5644 168.13017 508.6156 167.78168 508.6156 Z" fill="#666"/>
          <path d="M 167.78168 508.6156 C 167.43328 508.6156 157.32857 512.6443 156.63175 483.9395 C 155.93486 455.2346 157.3286 416.96143 155.23794 412.9327 C 153.14733 408.9039 150.70827 409.91102 150.70827 409.91102 C 150.70827 409.91102 156.6083 409.0848 157.3286 415.9542 C 158.04895 422.8232 157.65524 473.2912 159.39744 492.42774 C 161.13965 511.5644 168.13017 508.6156 167.78168 508.6156 Z" stroke="#666" stroke-linecap="round" stroke-linejoin="round" stroke-width="1"/>
        </g>
      </g>
      <g id="Graphic_11">
        <text transform="translate(88.18342 395.29914)" fill="#666">
          <tspan font-family="Helvetica Neue" font-size="12" fill="#666" x="11.766574" y="11" xml:space="preserve">Main </tspan>
          <tspan font-family="Helvetica Neue" font-size="12" fill="#666" x="3.438574" y="25.336" xml:space="preserve">analysis</tspan>
        </text>
      </g>
      <g id="Line_10">
        <line x1="247.86142" y1="494.9454" x2="247.5685" y2="513.15213" marker-end="url(#SharpArrow_Marker)" stroke="#99990f" stroke-linecap="round" stroke-linejoin="round" stroke-width="3"/>
      </g>
      <g id="Graphic_9">
        <path d="M 196.74817 524.8506 L 298.01238 524.8506 C 309.9905 524.8506 319.71185 532.9146 319.71185 542.8506 C 319.71185 552.7866 309.9905 560.8506 298.01238 560.8506 L 196.74817 560.8506 C 184.77007 560.8506 175.0487 552.7866 175.0487 542.8506 C 175.0487 532.9146 184.77007 524.8506 196.74817 524.8506 Z" fill="#e1cc69"/>
        <path d="M 196.74817 524.8506 L 298.01238 524.8506 C 309.9905 524.8506 319.71185 532.9146 319.71185 542.8506 C 319.71185 552.7866 309.9905 560.8506 298.01238 560.8506 L 196.74817 560.8506 C 184.77007 560.8506 175.0487 552.7866 175.0487 542.8506 C 175.0487 532.9146 184.77007 524.8506 196.74817 524.8506 Z" stroke="#99990f" stroke-linecap="round" stroke-linejoin="round" stroke-width="3"/>
        <text transform="translate(180.0487 535.1766)" fill="#4b3d2a">
          <tspan font-family="Helvetica Neue" font-weight="bold" font-size="12" fill="#4b3d2a" x="39.479573" y="12" xml:space="preserve">Reliability</tspan>
        </text>
      </g>
      <g id="Graphic_8">
        <path d="M 367.2987 524.8506 L 466.7987 524.8506 C 471.76926 524.8506 475.7987 528.88005 475.7987 533.8506 L 475.7987 550.8506 C 475.7987 555.8212 471.76926 559.8506 466.7987 559.8506 L 367.2987 559.8506 C 362.32814 559.8506 358.2987 555.8212 358.2987 550.8506 L 358.2987 533.8506 C 358.2987 528.88005 362.32814 524.8506 367.2987 524.8506 Z" fill="#71cff2"/>
        <path d="M 367.2987 524.8506 L 466.7987 524.8506 C 471.76926 524.8506 475.7987 528.88005 475.7987 533.8506 L 475.7987 550.8506 C 475.7987 555.8212 471.76926 559.8506 466.7987 559.8506 L 367.2987 559.8506 C 362.32814 559.8506 358.2987 555.8212 358.2987 550.8506 L 358.2987 533.8506 C 358.2987 528.88005 362.32814 524.8506 367.2987 524.8506 Z" stroke="#36218e" stroke-linecap="butt" stroke-linejoin="round" stroke-width="3"/>
        <text transform="translate(363.2987 527.00253)" fill="#36218e">
          <tspan font-family="Helvetica Neue" font-weight="bold" font-size="12" fill="#36218e" x="3.524" y="12" xml:space="preserve">Cronbach&apos;s alpha </tspan>
          <tspan font-family="Helvetica Neue" font-weight="bold" font-size="12" fill="#36218e" x="11.528" y="27.348083" xml:space="preserve">for each factor</tspan>
        </text>
      </g>
      <g id="Line_7">
        <line x1="319.71185" y1="542.8506" x2="346.5997" y2="542.5022" marker-end="url(#SharpArrow_Marker)" stroke="#99990f" stroke-linecap="round" stroke-linejoin="round" stroke-width="3"/>
      </g>
      <g id="Group_4">
        <g id="Graphic_6">
          <path d="M 167.78168 517.3905 C 167.43328 517.3905 157.32857 516.3729 156.63175 523.62346 C 155.93486 530.87406 157.3286 540.5415 155.23794 541.5591 C 153.14733 542.57675 150.70827 542.32236 150.70827 542.32236 C 150.70827 542.32236 156.6083 542.53106 157.3286 540.7959 C 158.04895 539.06086 157.65524 526.3131 159.39744 521.4794 C 161.13965 516.6457 168.13017 517.3905 167.78168 517.3905 Z" fill="#666"/>
          <path d="M 167.78168 517.3905 C 167.43328 517.3905 157.32857 516.3729 156.63175 523.62346 C 155.93486 530.87406 157.3286 540.5415 155.23794 541.5591 C 153.14733 542.57675 150.70827 542.32236 150.70827 542.32236 C 150.70827 542.32236 156.6083 542.53106 157.3286 540.7959 C 158.04895 539.06086 157.65524 526.3131 159.39744 521.4794 C 161.13965 516.6457 168.13017 517.3905 167.78168 517.3905 Z" stroke="#666" stroke-linecap="round" stroke-linejoin="round" stroke-width="1"/>
        </g>
        <g id="Graphic_5">
          <path d="M 167.78168 567.3107 C 167.43328 567.3107 157.32857 568.3283 156.63175 561.0778 C 155.93486 553.8272 157.3286 544.15974 155.23794 543.1421 C 153.14733 542.1245 150.70827 542.3789 150.70827 542.3789 C 150.70827 542.3789 156.6083 542.1702 157.3286 543.9053 C 158.04895 545.6404 157.65524 558.3881 159.39744 563.2218 C 161.13965 568.05555 168.13017 567.3107 167.78168 567.3107 Z" fill="#666"/>
          <path d="M 167.78168 567.3107 C 167.43328 567.3107 157.32857 568.3283 156.63175 561.0778 C 155.93486 553.8272 157.3286 544.15974 155.23794 543.1421 C 153.14733 542.1245 150.70827 542.3789 150.70827 542.3789 C 150.70827 542.3789 156.6083 542.1702 157.3286 543.9053 C 158.04895 545.6404 157.65524 558.3881 159.39744 563.2218 C 161.13965 568.05555 168.13017 567.3107 167.78168 567.3107 Z" stroke="#666" stroke-linecap="round" stroke-linejoin="round" stroke-width="1"/>
        </g>
      </g>
      <g id="Graphic_3">
        <text transform="translate(88.52027 533.3506)" fill="#666">
          <tspan font-family="Helvetica Neue" font-size="12" fill="#666" x="12.660574" y="11" xml:space="preserve">Post </tspan>
          <tspan font-family="Helvetica Neue" font-size="12" fill="#666" x="3.438574" y="25.336" xml:space="preserve">analysis</tspan>
        </text>
      </g>
      <g id="Graphic_48">
        <path d="M 197.4724 165.80915 L 298.9724 165.80915 C 310.9784 165.80915 320.7224 173.87315 320.7224 183.80915 C 320.7224 193.74515 310.9784 201.80915 298.9724 201.80915 L 197.4724 201.80915 C 185.4664 201.80915 175.7224 193.74515 175.7224 183.80915 C 175.7224 173.87315 185.4664 165.80915 197.4724 165.80915 Z" fill="#e1cc69"/>
        <path d="M 197.4724 165.80915 L 298.9724 165.80915 C 310.9784 165.80915 320.7224 173.87315 320.7224 183.80915 C 320.7224 193.74515 310.9784 201.80915 298.9724 201.80915 L 197.4724 201.80915 C 185.4664 201.80915 175.7224 193.74515 175.7224 183.80915 C 175.7224 173.87315 185.4664 165.80915 197.4724 165.80915 Z" stroke="#99990f" stroke-linecap="round" stroke-linejoin="round" stroke-width="3"/>
        <text transform="translate(180.7224 168.46106)" fill="#4b3d2a">
          <tspan font-family="Helvetica Neue" font-weight="bold" font-size="12" fill="#4b3d2a" x="7.722" y="12" xml:space="preserve">Adequacy of data for </tspan>
          <tspan font-family="Helvetica Neue" font-weight="bold" font-size="12" fill="#4b3d2a" x="25.734" y="27.348083" xml:space="preserve">factor analysis</tspan>
        </text>
      </g>
      <g id="Line_49">
        <line x1="248.21233" y1="203.30912" x2="248.13132" y2="215.56505" marker-end="url(#SharpArrow_Marker)" stroke="#99990f" stroke-linecap="round" stroke-linejoin="round" stroke-width="3"/>
      </g>
      <g id="Line_50">
        <line x1="320.7224" y1="183.80915" x2="346.26185" y2="183.80915" marker-end="url(#SharpArrow_Marker)" stroke="#99990f" stroke-linecap="round" stroke-linejoin="round" stroke-width="3"/>
      </g>
      <g id="Graphic_51">
        <path d="M 368.30926 397.7874 L 467.80926 397.7874 C 472.7798 397.7874 476.80926 401.8168 476.80926 406.7874 L 476.80926 423.7874 C 476.80926 428.75795 472.7798 432.7874 467.80926 432.7874 L 368.30926 432.7874 C 363.3387 432.7874 359.30926 428.75795 359.30926 423.7874 L 359.30926 406.7874 C 359.30926 401.8168 363.3387 397.7874 368.30926 397.7874 Z" fill="#71cff2"/>
        <path d="M 368.30926 397.7874 L 467.80926 397.7874 C 472.7798 397.7874 476.80926 401.8168 476.80926 406.7874 L 476.80926 423.7874 C 476.80926 428.75795 472.7798 432.7874 467.80926 432.7874 L 368.30926 432.7874 C 363.3387 432.7874 359.30926 428.75795 359.30926 423.7874 L 359.30926 406.7874 C 359.30926 401.8168 363.3387 397.7874 368.30926 397.7874 Z" stroke="#36218e" stroke-linecap="butt" stroke-linejoin="round" stroke-width="3"/>
        <text transform="translate(364.30926 399.9393)" fill="#36218e">
          <tspan font-family="Helvetica Neue" font-weight="bold" font-size="12" fill="#36218e" x="22.31" y="12" xml:space="preserve">Agreement </tspan>
          <tspan font-family="Helvetica Neue" font-weight="bold" font-size="12" fill="#36218e" x="28.646" y="27.348083" xml:space="preserve">methods</tspan>
        </text>
      </g>
      <g id="Line_52">
        <path d="M 319.71185 352.90777 C 324.71416 367.86615 328.12137 387.3918 334.72028 397.7874 C 338.6925 404.04503 343.8227 406.99665 349.065 409.62717" marker-end="url(#SharpArrow_Marker)" stroke="#99990f" stroke-linecap="round" stroke-linejoin="round" stroke-width="3"/>
      </g>
      <g id="Graphic_53">
        <path d="M 197.4724 28.83118 L 298.9724 28.83118 C 310.9784 28.83118 320.7224 40.035207 320.7224 53.84017 C 320.7224 67.64513 310.9784 78.84915 298.9724 78.84915 L 197.4724 78.84915 C 185.4664 78.84915 175.7224 67.64513 175.7224 53.84017 C 175.7224 40.035207 185.4664 28.83118 197.4724 28.83118 Z" fill="#e1cc69"/>
        <path d="M 197.4724 28.83118 L 298.9724 28.83118 C 310.9784 28.83118 320.7224 40.035207 320.7224 53.84017 C 320.7224 67.64513 310.9784 78.84915 298.9724 78.84915 L 197.4724 78.84915 C 185.4664 78.84915 175.7224 67.64513 175.7224 53.84017 C 175.7224 40.035207 185.4664 28.83118 197.4724 28.83118 Z" stroke="#99990f" stroke-linecap="round" stroke-linejoin="round" stroke-width="3"/>
        <text transform="translate(180.7224 30.81804)" fill="#4b3d2a">
          <tspan font-family="Helvetica Neue" font-weight="bold" font-size="12" fill="#4b3d2a" x="26.49" y="12" xml:space="preserve">Reverse score </tspan>
          <tspan font-family="Helvetica Neue" font-weight="bold" font-size="12" fill="#4b3d2a" x="13.5" y="27.348083" xml:space="preserve">negatively phrased </tspan>
          <tspan font-family="Helvetica Neue" font-weight="bold" font-size="12" fill="#4b3d2a" x="51.738" y="42.696167" xml:space="preserve">items</tspan>
        </text>
      </g>
      <g id="Line_54">
        <line x1="248.18276" y1="80.34863" x2="247.85795" y2="92.63324" marker-end="url(#SharpArrow_Marker)" stroke="#99990f" stroke-linecap="round" stroke-linejoin="round" stroke-width="3"/>
      </g>
    </g>
  </g>
</svg>
