<?xml version="1.0" encoding="UTF-8" standalone="no"?>
<!DOCTYPE svg PUBLIC "-//W3C//DTD SVG 1.1//EN" "http://www.w3.org/Graphics/SVG/1.1/DTD/svg11.dtd">
<svg version="1.1" xmlns="http://www.w3.org/2000/svg" xmlns:xl="http://www.w3.org/1999/xlink" xmlns:dc="http://purl.org/dc/elements/1.1/" viewBox="39.5 109.53186 483 256.94813" width="483" height="256.94813">
  <defs>
    <marker orient="auto" overflow="visible" markerUnits="strokeWidth" id="SharpArrow_Marker" stroke-linejoin="miter" stroke-miterlimit="10" viewBox="-3 -3 7 6" markerWidth="7" markerHeight="6" color="#36218e">
      <g>
        <path d="M 2.3333333 0 L -1.4 -1.4 L 0 0 L 0 0 L -1.4 1.4 Z" fill="currentColor" stroke="currentColor" stroke-width="1"/>
      </g>
    </marker>
    <marker orient="auto" overflow="visible" markerUnits="strokeWidth" id="SharpArrow_Marker_2" stroke-linejoin="miter" stroke-miterlimit="10" viewBox="-3 -3 7 6" markerWidth="7" markerHeight="6" color="#99990f">
      <g>
        <path d="M 2.3333333 0 L -1.4 -1.4 L 0 0 L 0 0 L -1.4 1.4 Z" fill="currentColor" stroke="currentColor" stroke-width="1"/>
      </g>
    </marker>
  </defs>
  <g id="Canvas_1" stroke-opacity="1" stroke="none" stroke-dasharray="none" fill="none" fill-opacity="1">
    <title>Canvas 1</title>
    <g id="Canvas_1_Layer_1">
      <title>Layer 1</title>
      <g id="Graphic_19">
        <path d="M 380 262 L 512 262 C 516.97056 262 521 266.02944 521 271 L 521 288 C 521 292.97056 516.97056 297 512 297 L 380 297 C 375.02944 297 371 292.97056 371 288 L 371 271 C 371 266.02944 375.02944 262 380 262 Z" fill="#71cff2"/>
        <path d="M 380 262 L 512 262 C 516.97056 262 521 266.02944 521 271 L 521 288 C 521 292.97056 516.97056 297 512 297 L 380 297 C 375.02944 297 371 292.97056 371 288 L 371 271 C 371 266.02944 375.02944 262 380 262 Z" stroke="#36218e" stroke-linecap="butt" stroke-linejoin="round" stroke-width="3"/>
        <text transform="translate(376 271.82596)" fill="#36218e">
          <tspan font-family="Helvetica Neue" font-weight="bold" font-size="12" fill="#36218e" x="45.574" y="12" xml:space="preserve">Infidelity</tspan>
        </text>
      </g>
      <g id="Line_18">
        <line x1="207" y1="279.5" x2="359.3" y2="279.5" marker-end="url(#SharpArrow_Marker)" stroke="#36218e" stroke-linecap="butt" stroke-linejoin="round" stroke-width="3"/>
      </g>
      <g id="Graphic_17">
        <path d="M 213 165 L 361 165 C 365.97055 165 370 169.02944 370 174 L 370 191 C 370 195.97056 365.97055 200 361 200 L 213 200 C 208.02943 200 204 195.97056 204 191 L 204 174 C 204 169.02944 208.02943 165 213 165 Z" fill="#e1cc69"/>
        <path d="M 213 165 L 361 165 C 365.97055 165 370 169.02944 370 174 L 370 191 C 370 195.97056 365.97055 200 361 200 L 213 200 C 208.02943 200 204 195.97056 204 191 L 204 174 C 204 169.02944 208.02943 165 213 165 Z" stroke="#99990f" stroke-linecap="round" stroke-linejoin="round" stroke-width="3"/>
        <text transform="translate(209 174.82596)" fill="#4b3d2a">
          <tspan font-family="Helvetica Neue" font-weight="bold" font-size="12" fill="#4b3d2a" x="4.494" y="12" xml:space="preserve">Relationship commitment</tspan>
        </text>
      </g>
      <g id="Graphic_16">
        <path d="M 50 262 L 198 262 C 202.97056 262 207 266.02944 207 271 L 207 288 C 207 292.97056 202.97056 297 198 297 L 50 297 C 45.029437 297 41 292.97056 41 288 L 41 271 C 41 266.02944 45.029437 262 50 262 Z" fill="#71cff2"/>
        <path d="M 50 262 L 198 262 C 202.97056 262 207 266.02944 207 271 L 207 288 C 207 292.97056 202.97056 297 198 297 L 50 297 C 45.029437 297 41 292.97056 41 288 L 41 271 C 41 266.02944 45.029437 262 50 262 Z" stroke="#36218e" stroke-linecap="butt" stroke-linejoin="round" stroke-width="3"/>
        <text transform="translate(46 271.82596)" fill="#36218e">
          <tspan font-family="Helvetica Neue" font-weight="bold" font-size="12" fill="#36218e" x="1.782" y="12" xml:space="preserve">Pornography consumption</tspan>
        </text>
      </g>
      <g id="Line_15">
        <line x1="370" y1="182.5" x2="437.9151" y2="253.54278" marker-end="url(#SharpArrow_Marker_2)" stroke="#99990f" stroke-linecap="round" stroke-linejoin="round" stroke-width="3"/>
      </g>
      <g id="Line_14">
        <line x1="124" y1="262" x2="195.70095" y2="190.74717" marker-end="url(#SharpArrow_Marker_2)" stroke="#99990f" stroke-linecap="round" stroke-linejoin="round" stroke-width="3"/>
      </g>
      <g id="Graphic_13">
        <text transform="translate(251 111.53186)" fill="#666">
          <tspan font-family="Helvetica" font-size="12" fill="#666" x="0" y="11" xml:space="preserve">Indirect effect</tspan>
        </text>
      </g>
      <g id="Group_10">
        <g id="Graphic_12">
          <path d="M 446.6873 159.5123 C 446.6873 158.97129 453.1977 143.28026 406.81077 142.1982 C 360.4236 141.11605 298.5742 143.2803 292.06378 140.03384 C 285.5532 136.78745 287.18074 132.99997 287.18074 132.99997 C 287.18074 132.99997 285.84553 142.16178 296.9465 143.2803 C 308.04684 144.3989 389.60307 143.78752 420.52774 146.49288 C 451.45257 149.19827 446.6873 160.05344 446.6873 159.5123 Z" fill="#797979"/>
          <path d="M 446.6873 159.5123 C 446.6873 158.97129 453.1977 143.28026 406.81077 142.1982 C 360.4236 141.11605 298.5742 143.2803 292.06378 140.03384 C 285.5532 136.78745 287.18074 132.99997 287.18074 132.99997 C 287.18074 132.99997 285.84553 142.16178 296.9465 143.2803 C 308.04684 144.3989 389.60307 143.78752 420.52774 146.49288 C 451.45257 149.19827 446.6873 160.05344 446.6873 159.5123 Z" stroke="#797979" stroke-linecap="round" stroke-linejoin="round" stroke-width="1"/>
        </g>
        <g id="Graphic_11">
          <path d="M 127.31268 159.51233 C 127.31268 158.97132 120.80228 143.28029 167.1892 142.19824 C 213.57637 141.11608 275.4258 143.28034 281.9362 140.03387 C 288.44676 136.78748 286.81923 133 286.81923 133 C 286.81923 133 288.15444 142.1618 277.05346 143.28034 C 265.95313 144.39893 184.3969 143.78755 153.47223 146.49291 C 122.5474 149.1983 127.31268 160.05347 127.31268 159.51233 Z" fill="#797979"/>
          <path d="M 127.31268 159.51233 C 127.31268 158.97132 120.80228 143.28029 167.1892 142.19824 C 213.57637 141.11608 275.4258 143.28034 281.9362 140.03387 C 288.44676 136.78748 286.81923 133 286.81923 133 C 286.81923 133 288.15444 142.1618 277.05346 143.28034 C 265.95313 144.39893 184.3969 143.78755 153.47223 146.49291 C 122.5474 149.1983 127.31268 160.05347 127.31268 159.51233 Z" stroke="#797979" stroke-linecap="round" stroke-linejoin="round" stroke-width="1"/>
        </g>
      </g>
      <g id="Graphic_9">
        <text transform="translate(257 350.48)" fill="#666">
          <tspan font-family="Helvetica" font-size="12" fill="#666" x="0" y="11" xml:space="preserve">Direct effect</tspan>
        </text>
      </g>
      <g id="Group_6">
        <g id="Graphic_8">
          <path d="M 370.2238 309.6862 C 370.2238 310.22723 373.5353 325.91826 349.9409 327.0003 C 326.3464 328.08246 294.8871 325.9182 291.57563 329.16467 C 288.26407 332.41106 289.0919 336.19854 289.0919 336.19854 C 289.0919 336.19854 288.41276 327.03674 294.0592 325.9182 C 299.7053 324.7996 341.18832 325.411 356.91795 322.70563 C 372.64765 320.00024 370.2238 309.14507 370.2238 309.6862 Z" fill="#797979"/>
          <path d="M 370.2238 309.6862 C 370.2238 310.22723 373.5353 325.91826 349.9409 327.0003 C 326.3464 328.08246 294.8871 325.9182 291.57563 329.16467 C 288.26407 332.41106 289.0919 336.19854 289.0919 336.19854 C 289.0919 336.19854 288.41276 327.03674 294.0592 325.9182 C 299.7053 324.7996 341.18832 325.411 356.91795 322.70563 C 372.64765 320.00024 370.2238 309.14507 370.2238 309.6862 Z" stroke="#797979" stroke-linecap="round" stroke-linejoin="round" stroke-width="1"/>
        </g>
        <g id="Graphic_7">
          <path d="M 207.77618 309.6862 C 207.77618 310.22723 204.4647 325.91826 228.0591 327.0003 C 251.6536 328.08246 283.1129 325.9182 286.42437 329.16467 C 289.73593 332.41106 288.9081 336.19854 288.9081 336.19854 C 288.9081 336.19854 289.58724 327.03674 283.9408 325.9182 C 278.2947 324.7996 236.81168 325.411 221.08205 322.70563 C 205.35235 320.00024 207.77618 309.14507 207.77618 309.6862 Z" fill="#797979"/>
          <path d="M 207.77618 309.6862 C 207.77618 310.22723 204.4647 325.91826 228.0591 327.0003 C 251.6536 328.08246 283.1129 325.9182 286.42437 329.16467 C 289.73593 332.41106 288.9081 336.19854 288.9081 336.19854 C 288.9081 336.19854 289.58724 327.03674 283.9408 325.9182 C 278.2947 324.7996 236.81168 325.411 221.08205 322.70563 C 205.35235 320.00024 207.77618 309.14507 207.77618 309.6862 Z" stroke="#797979" stroke-linecap="round" stroke-linejoin="round" stroke-width="1"/>
        </g>
      </g>
      <g id="Graphic_5">
        <text transform="translate(143.33337 208.33333)" fill="#666">
          <tspan font-family="Helvetica Neue" font-style="italic" font-size="14" fill="#666" x="0" y="13" xml:space="preserve">a</tspan>
        </text>
      </g>
      <g id="Graphic_4">
        <text transform="translate(421.33334 208.33333)" fill="#666">
          <tspan font-family="Helvetica Neue" font-style="italic" font-size="14" fill="#666" x="0" y="13" xml:space="preserve">b</tspan>
        </text>
      </g>
      <g id="Graphic_3">
        <text transform="translate(283 290.66666)" fill="#666">
          <tspan font-family="Helvetica Neue" font-style="italic" font-size="14" fill="#666" x="0" y="13" xml:space="preserve">c</tspan>
        </text>
      </g>
    </g>
  </g>
</svg>
