<?xml version="1.0" encoding="UTF-8" standalone="no"?>
<!DOCTYPE svg PUBLIC "-//W3C//DTD SVG 1.1//EN" "http://www.w3.org/Graphics/SVG/1.1/DTD/svg11.dtd">
<svg xmlns:xl="http://www.w3.org/1999/xlink" xmlns="http://www.w3.org/2000/svg" xmlns:dc="http://purl.org/dc/elements/1.1/" version="1.1" viewBox="53 217 733 482" width="733" height="482">
  <defs>
    <marker orient="auto" overflow="visible" markerUnits="strokeWidth" id="SharpArrow_Marker" stroke-linejoin="miter" stroke-miterlimit="10" viewBox="-2 -2 5 4" markerWidth="5" markerHeight="4" color="#951256">
      <g>
        <path d="M 1.6666667 0 L -1 -1 L 0 0 L 0 0 L -1 1 Z" fill="currentColor" stroke="currentColor" stroke-width="1"/>
      </g>
    </marker>
  </defs>
  <g id="Canvas_1" stroke-opacity="1" stroke-dasharray="none" fill="none" fill-opacity="1" stroke="none">
    <title>Canvas 1</title>
    <g id="Canvas_1_Layer_1">
      <title>Layer 1</title>
      <g id="Graphic_2">
        <text transform="translate(58.147044 222.7752)" fill="#545554">
          <tspan font-family="Helvetica Neue" font-size="22" fill="#545554" x="3.589355" y="21" xml:space="preserve">What’s the problem?</tspan>
        </text>
      </g>
      <g id="Graphic_3">
        <text transform="translate(566.18365 222.7752)" fill="#545554">
          <tspan font-family="Helvetica Neue" font-size="22" fill="#545554" x="5.437355" y="21" xml:space="preserve">What’s the solution?</tspan>
        </text>
      </g>
      <g id="Graphic_4">
        <path d="M 83.59844 379.5989 L 243.26437 379.5989 C 248.23493 379.5989 252.26437 383.6283 252.26437 388.5989 L 252.26437 418.1071 C 252.26437 423.07765 248.23493 427.1071 243.26437 427.1071 L 83.59844 427.1071 C 78.627875 427.1071 74.59844 423.07765 74.59844 418.1071 L 74.59844 388.5989 C 74.59844 383.6283 78.627875 379.5989 83.59844 379.5989 Z" fill="#dc5e76"/>
        <path d="M 83.59844 379.5989 L 243.26437 379.5989 C 248.23493 379.5989 252.26437 383.6283 252.26437 388.5989 L 252.26437 418.1071 C 252.26437 423.07765 248.23493 427.1071 243.26437 427.1071 L 83.59844 427.1071 C 78.627875 427.1071 74.59844 423.07765 74.59844 418.1071 L 74.59844 388.5989 C 74.59844 383.6283 78.627875 379.5989 83.59844 379.5989 Z" stroke="#951256" stroke-linecap="butt" stroke-linejoin="round" stroke-width="3"/>
        <text transform="translate(79.59844 393.62093)" fill="white">
          <tspan font-family="Helvetica Neue" font-weight="bold" font-size="16" fill="white" x="21.632962" y="16" xml:space="preserve">Influential cases</tspan>
        </text>
      </g>
      <g id="Graphic_5">
        <path d="M 567.6512 376.97593 L 775.28485 376.97593 C 780.2554 376.97593 784.28485 381.00537 784.28485 385.97593 L 784.28485 420.73003 C 784.28485 425.7006 780.2554 429.73003 775.28485 429.73003 L 567.6512 429.73003 C 562.6806 429.73003 558.6512 425.7006 558.6512 420.73003 L 558.6512 385.97593 C 558.6512 381.00537 562.6806 376.97593 567.6512 376.97593 Z" fill="#e1cc69"/>
        <path d="M 567.6512 376.97593 L 775.28485 376.97593 C 780.2554 376.97593 784.28485 381.00537 784.28485 385.97593 L 784.28485 420.73003 C 784.28485 425.7006 780.2554 429.73003 775.28485 429.73003 L 567.6512 429.73003 C 562.6806 429.73003 558.6512 425.7006 558.6512 420.73003 L 558.6512 385.97593 C 558.6512 381.00537 562.6806 376.97593 567.6512 376.97593 Z" stroke="#99990f" stroke-linecap="round" stroke-linejoin="round" stroke-width="3"/>
        <text transform="translate(563.6512 383.88887)" fill="#4b3d2a">
          <tspan font-family="Helvetica Neue" font-weight="bold" font-size="16" fill="#4b3d2a" x="15.104841" y="16" xml:space="preserve">Robust estimation using </tspan>
          <tspan font-family="Helvetica Neue" font-weight="bold" font-size="16" fill="#4b3d2a" x="78.21684" y="35.46411" xml:space="preserve">lmRob()</tspan>
        </text>
      </g>
      <g id="Graphic_7">
        <path d="M 83.59844 465.9568 L 243.26437 465.9568 C 248.23493 465.9568 252.26437 469.98626 252.26437 474.9568 L 252.26437 504.465 C 252.26437 509.4356 248.23493 513.465 243.26437 513.465 L 83.59844 513.465 C 78.627875 513.465 74.59844 509.4356 74.59844 504.465 L 74.59844 474.9568 C 74.59844 469.98626 78.627875 465.9568 83.59844 465.9568 Z" fill="#dc5e76"/>
        <path d="M 83.59844 465.9568 L 243.26437 465.9568 C 248.23493 465.9568 252.26437 469.98626 252.26437 474.9568 L 252.26437 504.465 C 252.26437 509.4356 248.23493 513.465 243.26437 513.465 L 83.59844 513.465 C 78.627875 513.465 74.59844 509.4356 74.59844 504.465 L 74.59844 474.9568 C 74.59844 469.98626 78.627875 465.9568 83.59844 465.9568 Z" stroke="#951256" stroke-linecap="butt" stroke-linejoin="round" stroke-width="3"/>
        <text transform="translate(79.59844 479.97887)" fill="white">
          <tspan font-family="Helvetica Neue" font-weight="bold" font-size="16" fill="white" x="12.288962" y="16" xml:space="preserve">Heteroscedasticity</tspan>
        </text>
      </g>
      <g id="Graphic_6">
        <path d="M 567.6512 463.33387 L 775.28485 463.33387 C 780.2554 463.33387 784.28485 467.3633 784.28485 472.3339 L 784.28485 507.088 C 784.28485 512.05854 780.2554 516.088 775.28485 516.088 L 567.6512 516.088 C 562.6806 516.088 558.6512 512.05854 558.6512 507.088 L 558.6512 472.3339 C 558.6512 467.3633 562.6806 463.33387 567.6512 463.33387 Z" fill="#e1cc69"/>
        <path d="M 567.6512 463.33387 L 775.28485 463.33387 C 780.2554 463.33387 784.28485 467.3633 784.28485 472.3339 L 784.28485 507.088 C 784.28485 512.05854 780.2554 516.088 775.28485 516.088 L 567.6512 516.088 C 562.6806 516.088 558.6512 512.05854 558.6512 507.088 L 558.6512 472.3339 C 558.6512 467.3633 562.6806 463.33387 567.6512 463.33387 Z" stroke="#99990f" stroke-linecap="round" stroke-linejoin="round" stroke-width="3"/>
        <text transform="translate(563.6512 470.2468)" fill="#4b3d2a">
          <tspan font-family="Helvetica Neue" font-weight="bold" font-size="16" fill="#4b3d2a" x="19.20884" y="16" xml:space="preserve">Robust standard errors </tspan>
          <tspan font-family="Helvetica Neue" font-weight="bold" font-size="16" fill="#4b3d2a" x="8.600841" y="35.46411" xml:space="preserve">using model_parameters()</tspan>
        </text>
      </g>
      <g id="Graphic_9">
        <path d="M 83.59844 603.3439 L 243.26437 603.3439 C 248.23493 603.3439 252.26437 607.3734 252.26437 612.3439 L 252.26437 641.85214 C 252.26437 646.8227 248.23493 650.85214 243.26437 650.85214 L 83.59844 650.85214 C 78.627875 650.85214 74.59844 646.8227 74.59844 641.85214 L 74.59844 612.3439 C 74.59844 607.3734 78.627875 603.3439 83.59844 603.3439 Z" fill="#dc5e76"/>
        <path d="M 83.59844 603.3439 L 243.26437 603.3439 C 248.23493 603.3439 252.26437 607.3734 252.26437 612.3439 L 252.26437 641.85214 C 252.26437 646.8227 248.23493 650.85214 243.26437 650.85214 L 83.59844 650.85214 C 78.627875 650.85214 74.59844 646.8227 74.59844 641.85214 L 74.59844 612.3439 C 74.59844 607.3734 78.627875 603.3439 83.59844 603.3439 Z" stroke="#951256" stroke-linecap="butt" stroke-linejoin="round" stroke-width="3"/>
        <text transform="translate(79.59844 617.366)" fill="white">
          <tspan font-family="Helvetica Neue" font-weight="bold" font-size="16" fill="white" x="46.96896" y="16" xml:space="preserve">Normality</tspan>
        </text>
      </g>
      <g id="Graphic_8">
        <path d="M 567.6512 549.6918 L 775.28485 549.6918 C 780.2554 549.6918 784.28485 553.72125 784.28485 558.6918 L 784.28485 593.4459 C 784.28485 598.4165 780.2554 602.4459 775.28485 602.4459 L 567.6512 602.4459 C 562.6806 602.4459 558.6512 598.4165 558.6512 593.4459 L 558.6512 558.6918 C 558.6512 553.72125 562.6806 549.6918 567.6512 549.6918 Z" fill="#e1cc69"/>
        <path d="M 567.6512 549.6918 L 775.28485 549.6918 C 780.2554 549.6918 784.28485 553.72125 784.28485 558.6918 L 784.28485 593.4459 C 784.28485 598.4165 780.2554 602.4459 775.28485 602.4459 L 567.6512 602.4459 C 562.6806 602.4459 558.6512 598.4165 558.6512 593.4459 L 558.6512 558.6918 C 558.6512 553.72125 562.6806 549.6918 567.6512 549.6918 Z" stroke="#99990f" stroke-linecap="round" stroke-linejoin="round" stroke-width="3"/>
        <text transform="translate(563.6512 566.3368)" fill="#4b3d2a">
          <tspan font-family="Helvetica Neue" font-weight="bold" font-size="16" fill="#4b3d2a" x="65.88884" y="16" xml:space="preserve">Do nothing</tspan>
        </text>
      </g>
      <g id="Graphic_15">
        <path d="M 83.59844 293.24094 L 243.26437 293.24094 C 248.23493 293.24094 252.26437 297.27038 252.26437 302.24094 L 252.26437 331.74915 C 252.26437 336.7197 248.23493 340.74915 243.26437 340.74915 L 83.59844 340.74915 C 78.627875 340.74915 74.59844 336.7197 74.59844 331.74915 L 74.59844 302.24094 C 74.59844 297.27038 78.627875 293.24094 83.59844 293.24094 Z" fill="#dc5e76"/>
        <path d="M 83.59844 293.24094 L 243.26437 293.24094 C 248.23493 293.24094 252.26437 297.27038 252.26437 302.24094 L 252.26437 331.74915 C 252.26437 336.7197 248.23493 340.74915 243.26437 340.74915 L 83.59844 340.74915 C 78.627875 340.74915 74.59844 336.7197 74.59844 331.74915 L 74.59844 302.24094 C 74.59844 297.27038 78.627875 293.24094 83.59844 293.24094 Z" stroke="#951256" stroke-linecap="butt" stroke-linejoin="round" stroke-width="3"/>
        <text transform="translate(79.59844 307.263)" fill="white">
          <tspan font-family="Helvetica Neue" font-weight="bold" font-size="16" fill="white" x="34.81696" y="16" xml:space="preserve">Non-linearity</tspan>
        </text>
      </g>
      <g id="Graphic_14">
        <path d="M 567.6512 290.618 L 775.28485 290.618 C 780.2554 290.618 784.28485 294.64743 784.28485 299.618 L 784.28485 334.3721 C 784.28485 339.34266 780.2554 343.3721 775.28485 343.3721 L 567.6512 343.3721 C 562.6806 343.3721 558.6512 339.34266 558.6512 334.3721 L 558.6512 299.618 C 558.6512 294.64743 562.6806 290.618 567.6512 290.618 Z" fill="#e1cc69"/>
        <path d="M 567.6512 290.618 L 775.28485 290.618 C 780.2554 290.618 784.28485 294.64743 784.28485 299.618 L 784.28485 334.3721 C 784.28485 339.34266 780.2554 343.3721 775.28485 343.3721 L 567.6512 343.3721 C 562.6806 343.3721 558.6512 339.34266 558.6512 334.3721 L 558.6512 299.618 C 558.6512 294.64743 562.6806 290.618 567.6512 290.618 Z" stroke="#99990f" stroke-linecap="round" stroke-linejoin="round" stroke-width="3"/>
        <text transform="translate(563.6512 307.263)" fill="#4b3d2a">
          <tspan font-family="Helvetica Neue" font-weight="bold" font-size="16" fill="#4b3d2a" x="24.44884" y="16" xml:space="preserve">Fit a non-linear model</tspan>
        </text>
      </g>
      <g id="Graphic_12">
        <path d="M 567.6512 636.04975 L 775.28485 636.04975 C 780.2554 636.04975 784.28485 640.0792 784.28485 645.04975 L 784.28485 679.80386 C 784.28485 684.7744 780.2554 688.80386 775.28485 688.80386 L 567.6512 688.80386 C 562.6806 688.80386 558.6512 684.7744 558.6512 679.80386 L 558.6512 645.04975 C 558.6512 640.0792 562.6806 636.04975 567.6512 636.04975 Z" fill="#e1cc69"/>
        <path d="M 567.6512 636.04975 L 775.28485 636.04975 C 780.2554 636.04975 784.28485 640.0792 784.28485 645.04975 L 784.28485 679.80386 C 784.28485 684.7744 780.2554 688.80386 775.28485 688.80386 L 567.6512 688.80386 C 562.6806 688.80386 558.6512 684.7744 558.6512 679.80386 L 558.6512 645.04975 C 558.6512 640.0792 562.6806 636.04975 567.6512 636.04975 Z" stroke="#99990f" stroke-linecap="round" stroke-linejoin="round" stroke-width="3"/>
        <text transform="translate(563.6512 652.69475)" fill="#4b3d2a">
          <tspan font-family="Helvetica Neue" font-weight="bold" font-size="16" fill="#4b3d2a" x="36.26484" y="16" xml:space="preserve">Use Bootstrapping</tspan>
        </text>
      </g>
      <g id="Graphic_16">
        <path d="M 358.38977 549.6918 L 460.8843 549.6918 C 473.00794 549.6918 482.8474 562.6838 482.8474 578.6918 C 482.8474 594.6998 473.00794 607.6918 460.8843 607.6918 L 358.38977 607.6918 C 346.26613 607.6918 336.42665 594.6998 336.42665 578.6918 C 336.42665 562.6838 346.26613 549.6918 358.38977 549.6918 Z" fill="#dc5e76" fill-opacity=".25"/>
        <path d="M 358.38977 549.6918 L 460.8843 549.6918 C 473.00794 549.6918 482.8474 562.6838 482.8474 578.6918 C 482.8474 594.6998 473.00794 607.6918 460.8843 607.6918 L 358.38977 607.6918 C 346.26613 607.6918 336.42665 594.6998 336.42665 578.6918 C 336.42665 562.6838 346.26613 549.6918 358.38977 549.6918 Z" stroke="#dc5e76" stroke-linecap="round" stroke-linejoin="round" stroke-width="2"/>
        <text transform="translate(341.42665 567.43075)" fill="#951256">
          <tspan font-family="Helvetica Neue" font-weight="bold" font-size="18" fill="#951256" x="10.15138" y="18" xml:space="preserve">Large sample</tspan>
        </text>
      </g>
      <g id="Graphic_17">
        <path d="M 358.38977 639.6438 L 460.8843 639.6438 C 473.00794 639.6438 482.8474 652.6358 482.8474 668.6438 C 482.8474 684.6518 473.00794 697.6438 460.8843 697.6438 L 358.38977 697.6438 C 346.26613 697.6438 336.42665 684.6518 336.42665 668.6438 C 336.42665 652.6358 346.26613 639.6438 358.38977 639.6438 Z" fill="#dc5e76" fill-opacity=".25"/>
        <path d="M 358.38977 639.6438 L 460.8843 639.6438 C 473.00794 639.6438 482.8474 652.6358 482.8474 668.6438 C 482.8474 684.6518 473.00794 697.6438 460.8843 697.6438 L 358.38977 697.6438 C 346.26613 697.6438 336.42665 684.6518 336.42665 668.6438 C 336.42665 652.6358 346.26613 639.6438 358.38977 639.6438 Z" stroke="#dc5e76" stroke-linecap="round" stroke-linejoin="round" stroke-width="2"/>
        <text transform="translate(341.42665 657.3827)" fill="#951256">
          <tspan font-family="Helvetica Neue" font-weight="bold" font-size="18" fill="#951256" x="10.76338" y="18" xml:space="preserve">Small sample</tspan>
        </text>
      </g>
      <g id="Line_18">
        <line x1="253.76437" y1="316.99504" x2="538.2512" y2="316.99504" marker-end="url(#SharpArrow_Marker)" stroke="#951256" stroke-linecap="round" stroke-linejoin="round" stroke-width="6"/>
      </g>
      <g id="Line_19">
        <line x1="253.76437" y1="403.353" x2="538.2512" y2="403.353" marker-end="url(#SharpArrow_Marker)" stroke="#951256" stroke-linecap="round" stroke-linejoin="round" stroke-width="6"/>
      </g>
      <g id="Line_20">
        <line x1="253.76437" y1="489.7109" x2="538.2512" y2="489.7109" marker-end="url(#SharpArrow_Marker)" stroke="#951256" stroke-linecap="round" stroke-linejoin="round" stroke-width="6"/>
      </g>
      <g id="Line_21">
        <line x1="253.34454" y1="609.4203" x2="319.08214" y2="596.4957" marker-end="url(#SharpArrow_Marker)" stroke="#951256" stroke-linecap="round" stroke-linejoin="round" stroke-width="6"/>
      </g>
      <g id="Line_22">
        <line x1="253.74044" y1="642.33715" x2="318.28314" y2="653.22835" marker-end="url(#SharpArrow_Marker)" stroke="#951256" stroke-linecap="round" stroke-linejoin="round" stroke-width="6"/>
      </g>
      <g id="Line_23">
        <line x1="484.34044" y1="577.94346" x2="538.2522" y2="577.4034" marker-end="url(#SharpArrow_Marker)" stroke="#951256" stroke-linecap="round" stroke-linejoin="round" stroke-width="6"/>
      </g>
      <g id="Line_24">
        <line x1="484.30816" y1="666.8708" x2="538.2569" y2="665.5898" marker-end="url(#SharpArrow_Marker)" stroke="#951256" stroke-linecap="round" stroke-linejoin="round" stroke-width="6"/>
      </g>
    </g>
  </g>
</svg>
